<svg xmlns="http://www.w3.org/2000/svg" width="85" height="85" viewBox="0 0 85 85">
  <g id="Group_1189859" data-name="Group 1189859" transform="translate(-180.051 -383)">
    <circle id="Ellipse_12247" data-name="Ellipse 12247" cx="42.5" cy="42.5" r="42.5" transform="translate(180.051 383)" fill="#1a1f53"/>
    <g id="Group_1189858" data-name="Group 1189858" transform="translate(193.051 396)">
      <path id="Path_1273768" data-name="Path 1273768" d="M53.466,11.128V54.943a1.826,1.826,0,0,1-1.826,1.826H7.826A1.826,1.826,0,0,1,6,54.943V3.826A1.826,1.826,0,0,1,7.826,2H44.338Z" transform="translate(-0.087 -0.087)" fill="#ddd"/>
      <path id="Path_1273769" data-name="Path 1273769" d="M48,2v9.128h9.128" transform="translate(-3.749 -0.087)" fill="#ccc"/>
      <path id="Path_1273770" data-name="Path 1273770" d="M6,6H24.256v7.3H6" transform="translate(-0.087 -0.436)" fill="#6bc13b"/>
      <path id="Path_1273771" data-name="Path 1273771" d="M42.779,6l-8.215,7.3H30L38.215,6Z" transform="translate(-2.18 -0.436)" fill="#4d8c28"/>
      <path id="Path_1273772" data-name="Path 1273772" d="M10,18H20.954v5.477H10Z" transform="translate(-0.436 -1.482)" fill="#4d8c28"/>
      <path id="Path_1273773" data-name="Path 1273773" d="M26,18H36.954v5.477H26Z" transform="translate(-1.831 -1.482)" fill="#559b2d"/>
      <path id="Path_1273774" data-name="Path 1273774" d="M42,18H52.954v5.477H42Z" transform="translate(-3.226 -1.482)" fill="#6bc13b"/>
      <path id="Path_1273775" data-name="Path 1273775" d="M10,28H50.164V55.384H10Z" transform="translate(-0.436 -2.354)" fill="#b5b5b5"/>
      <path id="Path_1273776" data-name="Path 1273776" d="M50.164,34.39V32.564H38.3V28H36.472v4.564H23.692V28H21.867v4.564H10V34.39H21.867v3.651H10v1.826H21.867v3.651H10v1.826H21.867v3.651H10V50.82H21.867v4.564h1.826V50.82H36.472v4.564H38.3V50.82H50.164V48.995H38.3V45.343H50.164V43.518H38.3V39.867H50.164V38.041H38.3V34.39ZM36.472,48.995H23.692V45.343H36.472Zm0-5.477H23.692V39.867H36.472Zm0-5.477H23.692V34.39H36.472Z" transform="translate(-0.436 -2.354)" fill="#ccc"/>
      <path id="Path_1273777" data-name="Path 1273777" d="M30,6l8.215,7.3h4.564L34.564,6Z" transform="translate(-2.18 -0.436)" fill="#6bc13b"/>
      <path id="Path_1273778" data-name="Path 1273778" d="M9,9H21.779v1.826H9Z" transform="translate(-0.349 -0.697)" fill="#7bdf45"/>
      <path id="Path_1273779" data-name="Path 1273779" d="M10,18v5.477h4.838A9.412,9.412,0,0,0,19.585,18Z" transform="translate(-0.436 -1.482)" fill="#559b2d"/>
      <path id="Path_1273780" data-name="Path 1273780" d="M26,18v5.477h4.838A9.412,9.412,0,0,0,35.585,18Z" transform="translate(-1.831 -1.482)" fill="#6bc13b"/>
      <path id="Path_1273781" data-name="Path 1273781" d="M42,18v5.477h4.838A9.412,9.412,0,0,0,51.585,18Z" transform="translate(-3.226 -1.482)" fill="#7bdf45"/>
      <path id="Path_1273782" data-name="Path 1273782" d="M54.025,10.395,44.9,1.267A.913.913,0,0,0,44.251,1H7.738A2.738,2.738,0,0,0,5,3.738V54.856a2.738,2.738,0,0,0,2.738,2.738H51.554a2.738,2.738,0,0,0,2.738-2.738V11.041A.913.913,0,0,0,54.025,10.395ZM45.164,4.116l6.011,6.012H45.164ZM6.826,6.477H23.256v5.477H6.826ZM51.554,55.769H7.738a.913.913,0,0,1-.913-.913V13.779H24.169a.913.913,0,0,0,.913-.913v-7.3a.913.913,0,0,0-.913-.913H6.826V3.738a.913.913,0,0,1,.913-.913h35.6v8.215a.913.913,0,0,0,.913.913h8.215v42.9A.913.913,0,0,1,51.554,55.769Z" transform="translate(0)"/>
      <path id="Path_1273783" data-name="Path 1273783" d="M9.913,24.3H20.867a.913.913,0,0,0,.913-.913V17.913A.913.913,0,0,0,20.867,17H9.913A.913.913,0,0,0,9,17.913V23.39A.913.913,0,0,0,9.913,24.3Zm.913-5.477h9.128v3.651H10.826Z" transform="translate(-0.349 -1.395)"/>
      <path id="Path_1273784" data-name="Path 1273784" d="M25.913,24.3H36.867a.913.913,0,0,0,.913-.913V17.913A.913.913,0,0,0,36.867,17H25.913a.913.913,0,0,0-.913.913V23.39A.913.913,0,0,0,25.913,24.3Zm.913-5.477h9.128v3.651H26.826Z" transform="translate(-1.744 -1.395)"/>
      <path id="Path_1273785" data-name="Path 1273785" d="M52.867,17H41.913a.913.913,0,0,0-.913.913V23.39a.913.913,0,0,0,.913.913H52.867a.913.913,0,0,0,.913-.913V17.913A.913.913,0,0,0,52.867,17Zm-.913,5.477H42.826V18.826h9.128Z" transform="translate(-3.139 -1.395)"/>
      <path id="Path_1273786" data-name="Path 1273786" d="M50.077,27H9.913A.913.913,0,0,0,9,27.913V55.3a.913.913,0,0,0,.913.913H50.077a.913.913,0,0,0,.913-.913V27.913A.913.913,0,0,0,50.077,27Zm-.913,5.477H38.21V28.826H49.164ZM23.605,48.908V45.256H36.384v3.651Zm12.779,1.826v3.651H23.605V50.733Zm0-16.431v3.651H23.605V34.3ZM23.605,32.477V28.826H36.384v3.651Zm12.779,7.3v3.651H23.605V39.779ZM21.779,37.954H10.826V34.3H21.779Zm0,1.826v3.651H10.826V39.779Zm0,5.477v3.651H10.826V45.256Zm16.431,0H49.164v3.651H38.21Zm0-1.826V39.779H49.164v3.651Zm0-5.477V34.3H49.164v3.651ZM21.779,28.826v3.651H10.826V28.826ZM10.826,50.733H21.779v3.651H10.826ZM38.21,54.384V50.733H49.164v3.651Z" transform="translate(-0.349 -2.267)"/>
      <path id="Path_1273787" data-name="Path 1273787" d="M29.058,13.539a.913.913,0,0,0,.854.589h4.564a.913.913,0,0,0,.607-.231L36.3,12.814,37.521,13.9a.913.913,0,0,0,.607.231h4.564a.913.913,0,0,0,.607-1.595L39.958,9.564,43.3,6.595A.913.913,0,0,0,42.692,5H38.128a.913.913,0,0,0-.607.23L36.3,6.314,35.083,5.23A.913.913,0,0,0,34.477,5H29.913a.913.913,0,0,0-.607,1.595l3.341,2.969-3.341,2.968A.913.913,0,0,0,29.058,13.539Zm9.417-6.714h1.817L38.584,8.343l-.908-.808Zm-4.346,0L40.29,12.3H38.474L32.312,6.826Zm-.109,3.959.908.808-.8.71H32.312Z" transform="translate(-2.092 -0.349)"/>
      <path id="Path_1273788" data-name="Path 1273788" d="M9,9H21.779v1.826H9Z" transform="translate(-0.349 -0.697)"/>
    </g>
  </g>
</svg>
