<svg xmlns="http://www.w3.org/2000/svg" xmlns:xlink="http://www.w3.org/1999/xlink" width="118" height="118" viewBox="0 0 118 118">
  <defs>
    <filter id="Ellipse_12115" x="0" y="0" width="118" height="118" filterUnits="userSpaceOnUse">
      <feOffset dy="3" input="SourceAlpha"/>
      <feGaussianBlur stdDeviation="3" result="blur"/>
      <feFlood flood-opacity="0.161"/>
      <feComposite operator="in" in2="blur"/>
      <feComposite in="SourceGraphic"/>
    </filter>
  </defs>
  <g id="Group_1189937" data-name="Group 1189937" transform="translate(5050 11022.194)">
    <g id="Group_1181947" data-name="Group 1181947" transform="translate(-5849.781 -13565.194)">
      <g transform="matrix(1, 0, 0, 1, 799.78, 2543)" filter="url(#Ellipse_12115)">
        <g id="Ellipse_12115-2" data-name="Ellipse 12115" transform="translate(9 6)" fill="#fbe4a3" stroke="#f6bc1c" stroke-width="2">
          <circle cx="50" cy="50" r="50" stroke="none"/>
          <circle cx="50" cy="50" r="49" fill="none"/>
        </g>
      </g>
    </g>
    <g id="Group_1189936" data-name="Group 1189936" transform="translate(-5022.01 -11006.423)">
      <g id="Group_1189934" data-name="Group 1189934" transform="translate(0.908 11.397)">
        <g id="Group_1189911" data-name="Group 1189911" transform="translate(0 5.873)">
          <path id="Path_1274049" data-name="Path 1274049" d="M7.5,66.474v50.577a1.211,1.211,0,0,0,1.211,1.211H64.928a1.211,1.211,0,0,0,1.211-1.211V66.474Z" transform="translate(-7.5 -66.474)" fill="#f9f3f1"/>
        </g>
        <g id="Group_1189912" data-name="Group 1189912" transform="translate(52.39 5.873)">
          <path id="Path_1274050" data-name="Path 1274050" d="M441.211,66.474v50.577A1.211,1.211,0,0,1,440,118.263h5.038a1.211,1.211,0,0,0,1.211-1.211V66.474Z" transform="translate(-440 -66.474)" fill="#f3eae6"/>
        </g>
        <g id="Group_1189913" data-name="Group 1189913" transform="translate(0 0)">
          <path id="Path_1274051" data-name="Path 1274051" d="M64.928,17.989H8.711A1.211,1.211,0,0,0,7.5,19.2v4.783H66.139V19.2A1.211,1.211,0,0,0,64.928,17.989Z" transform="translate(-7.5 -17.989)" fill="#26a6fe"/>
        </g>
        <g id="Group_1189914" data-name="Group 1189914" transform="translate(52.39 0)">
          <path id="Path_1274052" data-name="Path 1274052" d="M445.038,17.989H440a1.211,1.211,0,0,1,1.211,1.211v4.783h5.038V19.2A1.211,1.211,0,0,0,445.038,17.989Z" transform="translate(-440 -17.989)" fill="#0593fc"/>
        </g>
        <g id="Group_1189915" data-name="Group 1189915" transform="translate(0 0)">
          <path id="Path_1274053" data-name="Path 1274053" d="M8.711,17.989A1.211,1.211,0,0,0,7.5,19.2v4.783h8.275V17.989Z" transform="translate(-7.5 -17.989)" fill="#60b7ff"/>
        </g>
        <g id="Group_1189926" data-name="Group 1189926" transform="translate(17.364 10.002)">
          <g id="Group_1189916" data-name="Group 1189916" transform="translate(23.878 23.878)">
            <path id="Path_1274054" data-name="Path 1274054" d="M352.674,305.211l2.829-2.829a.485.485,0,0,1,.105-.078l-4.628-4.628a14.993,14.993,0,0,1-3.012,3.012l4.628,4.628a.489.489,0,0,1,.078-.105Z" transform="translate(-347.968 -297.676)" fill="#acacac"/>
          </g>
          <g id="Group_1189917" data-name="Group 1189917" transform="translate(25.827 23.969)">
            <path id="Path_1274055" data-name="Path 1274055" d="M369.558,302.958a.6.6,0,0,1,.1-.081l-4.448-4.448a15.084,15.084,0,0,1-1.154,1.363l4.334,4.334Z" transform="translate(-364.057 -298.429)" fill="#9c9c9c"/>
          </g>
          <g id="Group_1189918" data-name="Group 1189918" transform="translate(28.321 28.321)">
            <path id="Path_1274056" data-name="Path 1274056" d="M398.4,348.11a2.606,2.606,0,0,1-3.686,0l-9.892-9.892a.606.606,0,0,1,0-.857l2.829-2.829a.606.606,0,0,1,.857,0l9.892,9.892A2.606,2.606,0,0,1,398.4,348.11Z" transform="translate(-384.646 -334.355)" fill="#838383"/>
          </g>
          <g id="Group_1189919" data-name="Group 1189919" transform="translate(30.275 28.321)">
            <path id="Path_1274057" data-name="Path 1274057" d="M412.583,344.424l-9.892-9.892a.606.606,0,0,0-.857,0l-1.052,1.052L409.6,344.4a2.6,2.6,0,0,1-.367,3.989,2.6,2.6,0,0,0,3.353-3.964Z" transform="translate(-400.783 -334.355)" fill="#5a5a5a"/>
          </g>
          <g id="Group_1189920" data-name="Group 1189920">
            <circle id="Ellipse_12256" data-name="Ellipse 12256" cx="14.986" cy="14.986" r="14.986" fill="#26a6fe"/>
          </g>
          <g id="Group_1189921" data-name="Group 1189921" transform="translate(12.451)">
            <path id="Path_1274058" data-name="Path 1274058" d="M256.171,100.556a15.08,15.08,0,0,0-2.535.215,15,15,0,0,1,10.263,6.971,10.979,10.979,0,0,1,0,15.6,15,15,0,0,1-10.263,6.972,14.986,14.986,0,1,0,2.535-29.757Z" transform="translate(-253.636 -100.556)" fill="#0593fc"/>
          </g>
          <g id="Group_1189925" data-name="Group 1189925" transform="translate(4.005 4.005)">
            <g id="Group_1189922" data-name="Group 1189922">
              <circle id="Ellipse_12257" data-name="Ellipse 12257" cx="10.98" cy="10.98" r="10.98" fill="#ffd15b"/>
            </g>
            <g id="Group_1189923" data-name="Group 1189923" transform="translate(10.98 10.98)">
              <path id="Path_1274059" data-name="Path 1274059" d="M274.56,224.268l7.764,7.764a10.946,10.946,0,0,0,3.216-7.764Z" transform="translate(-274.56 -224.268)" fill="#05e39c"/>
            </g>
            <g id="Group_1189924" data-name="Group 1189924" transform="translate(10.98)">
              <path id="Path_1274060" data-name="Path 1274060" d="M274.56,133.621V144.6h10.98A10.98,10.98,0,0,0,274.56,133.621Z" transform="translate(-274.56 -133.621)" fill="#fd8087"/>
            </g>
          </g>
        </g>
        <g id="Group_1189931" data-name="Group 1189931" transform="translate(6.289 36.466)">
          <g id="Group_1189927" data-name="Group 1189927" transform="translate(0 7.317)">
            <path id="Path_1274061" data-name="Path 1274061" d="M63.076,379.854V388.5H59.417v-8.645a.411.411,0,0,1,.411-.411h2.837A.411.411,0,0,1,63.076,379.854Z" transform="translate(-59.417 -379.443)" fill="#ffd15b"/>
          </g>
          <g id="Group_1189928" data-name="Group 1189928" transform="translate(7.318)">
            <path id="Path_1274062" data-name="Path 1274062" d="M123.491,319.446v15.963h-3.659V319.446a.411.411,0,0,1,.411-.411h2.837A.411.411,0,0,1,123.491,319.446Z" transform="translate(-119.832 -319.035)" fill="#05e39c"/>
          </g>
          <g id="Group_1189929" data-name="Group 1189929" transform="translate(14.636 5.603)">
            <path id="Path_1274063" data-name="Path 1274063" d="M183.905,365.7v10.36h-3.659V365.7a.411.411,0,0,1,.411-.411h2.837A.411.411,0,0,1,183.905,365.7Z" transform="translate(-180.246 -365.293)" fill="#ffd15b"/>
          </g>
          <g id="Group_1189930" data-name="Group 1189930" transform="translate(21.955 9.215)">
            <path id="Path_1274064" data-name="Path 1274064" d="M244.32,395.518v6.748h-3.659v-6.748a.411.411,0,0,1,.411-.411h2.837A.411.411,0,0,1,244.32,395.518Z" transform="translate(-240.661 -395.107)" fill="#fe646f"/>
          </g>
        </g>
        <g id="Group_1189932" data-name="Group 1189932" transform="translate(4.3 11.728)">
          <circle id="Ellipse_12258" data-name="Ellipse 12258" cx="3.974" cy="3.974" r="3.974" fill="#05e39c"/>
        </g>
        <g id="Group_1189933" data-name="Group 1189933" transform="translate(7.003 11.728)">
          <path id="Path_1274065" data-name="Path 1274065" d="M66.583,114.807a3.966,3.966,0,0,0-1.272.209,3.974,3.974,0,0,1,0,7.531,3.974,3.974,0,1,0,1.272-7.74Z" transform="translate(-65.311 -114.807)" fill="#0ed290"/>
        </g>
      </g>
      <g id="Group_1189935" data-name="Group 1189935" transform="translate(0 10.489)">
        <path id="Path_1274066" data-name="Path 1274066" d="M60.99,59.146l-.534-.534v-46a2.122,2.122,0,0,0-2.12-2.12H50.927a.908.908,0,0,0,0,1.817h7.409a.3.3,0,0,1,.3.3v3.874H10.092V12.306h36.6a.908.908,0,0,0,0-1.817H2.12A2.122,2.122,0,0,0,0,12.609V67.848a2.122,2.122,0,0,0,2.12,2.12H58.336a2.122,2.122,0,0,0,2.12-2.12V64.556a3.554,3.554,0,0,0,.534-.439,3.514,3.514,0,0,0,0-4.971ZM1.817,12.609a.3.3,0,0,1,.3-.3H8.275v4.177H1.817ZM58.639,67.848a.3.3,0,0,1-.3.3H2.12a.3.3,0,0,1-.3-.3V18.3H58.639V56.8L51.1,49.255a1.508,1.508,0,0,0-1.114-.441l-3.55-3.55a15.865,15.865,0,0,0-1.872-20.04l2.3-2.3h8.256a.908.908,0,0,0,0-1.817H46.485a.908.908,0,0,0-.642.266L43.213,24a15.876,15.876,0,0,0-23.547,4.149l-1.7-1.7a.908.908,0,0,0-.642-.266H13.98a4.883,4.883,0,1,0,0,1.817h2.971l1.826,1.826a15.889,15.889,0,0,0,23.36,19.727l3.55,3.55a1.508,1.508,0,0,0,.441,1.114l9.892,9.892a3.492,3.492,0,0,0,2.485,1.029c.045,0,.089,0,.134,0ZM34.167,35.476v-9.12a10.012,10.012,0,0,1,4.893,1.8l-2.078,2.078a.908.908,0,1,0,1.285,1.285l2.18-2.18a10.041,10.041,0,0,1,2.841,6.135Zm9.12,1.817a10.025,10.025,0,0,1-2.3,5.538l-5.538-5.538ZM40.361,26.856A11.879,11.879,0,0,0,22.611,31.1l-1.617-1.617A14.062,14.062,0,0,1,41.921,25.3ZM21.88,32.937a11.851,11.851,0,0,0-.51,3.448,12.009,12.009,0,0,0,.158,1.935.909.909,0,1,0,1.793-.294,10.188,10.188,0,0,1-.134-1.641,10.073,10.073,0,0,1,.19-1.951l.638.638A.908.908,0,0,0,25.3,33.787l-1.318-1.318a10.094,10.094,0,0,1,8.368-6.113V36.385a.906.906,0,0,0,.266.643L39.7,44.116a10.064,10.064,0,0,1-15.023-2.449.909.909,0,0,0-1.546.955,11.887,11.887,0,1,0,18.6-14.567l1.547-1.547a14.072,14.072,0,1,1-23.116,4.711ZM45.322,46.721l3.085,3.085-1.727,1.727-3.085-3.085A16.02,16.02,0,0,0,45.322,46.721ZM12.249,27.1a3.066,3.066,0,1,1-3.066-3.066A3.069,3.069,0,0,1,12.249,27.1ZM59.706,62.832a1.7,1.7,0,0,1-2.4,0l-9.678-9.678,2.4-2.4,9.678,9.678a1.7,1.7,0,0,1,0,2.4Z" transform="translate(0 -10.489)"/>
        <path id="Path_1274067" data-name="Path 1274067" d="M414.627,131.45h-4.658a.908.908,0,1,0,0,1.817h4.658a.908.908,0,1,0,0-1.817Z" transform="translate(-359.509 -116.798)"/>
        <path id="Path_1274068" data-name="Path 1274068" d="M414.627,164.738h-4.658a.908.908,0,1,0,0,1.817h4.658a.908.908,0,1,0,0-1.817Z" transform="translate(-359.509 -146.053)"/>
        <path id="Path_1274069" data-name="Path 1274069" d="M66,327.909h-1.08v-5.84A1.321,1.321,0,0,0,63.6,320.75H60.763a1.321,1.321,0,0,0-1.319,1.319v5.84H57.6v-9.451a1.321,1.321,0,0,0-1.319-1.319H53.445a1.321,1.321,0,0,0-1.319,1.319v9.451H50.283V312.854a1.321,1.321,0,0,0-1.319-1.319H46.126a1.321,1.321,0,0,0-1.319,1.319v5.157a.908.908,0,0,0,1.817,0v-4.659h1.842v14.557H46.624v-5.658a.908.908,0,1,0-1.817,0v5.658H42.965v-7.737a1.321,1.321,0,0,0-1.319-1.319H38.808a1.321,1.321,0,0,0-1.319,1.319v7.737h-1.08a.908.908,0,1,0,0,1.817H66a.908.908,0,1,0,0-1.817Zm-24.852,0H39.306v-7.24h1.842Zm14.636,0H53.942v-8.954h1.842Zm7.318,0H61.26v-5.342H63.1Z" transform="translate(-31.2 -275.069)"/>
        <path id="Path_1274070" data-name="Path 1274070" d="M36.408,210.245h7.037a.908.908,0,1,0,0-1.817H36.408a.908.908,0,1,0,0,1.817Z" transform="translate(-31.2 -184.451)"/>
        <path id="Path_1274071" data-name="Path 1274071" d="M36.408,241.442h7.037a.909.909,0,0,0,0-1.817H36.408a.909.909,0,0,0,0,1.817Z" transform="translate(-31.2 -211.869)"/>
        <path id="Path_1274072" data-name="Path 1274072" d="M36.408,272.639H41.28a.908.908,0,1,0,0-1.817H36.408a.908.908,0,1,0,0,1.817Z" transform="translate(-31.2 -239.287)"/>
        <path id="Path_1274073" data-name="Path 1274073" d="M319.2,415.511h-8.47a.909.909,0,1,0,0,1.817h8.47a.909.909,0,0,0,0-1.817Z" transform="translate(-272.289 -366.45)"/>
        <path id="Path_1274074" data-name="Path 1274074" d="M316.59,446.708h-5.864a.908.908,0,1,0,0,1.817h5.864a.908.908,0,1,0,0-1.817Z" transform="translate(-272.289 -393.868)"/>
      </g>
    </g>
  </g>
</svg>
