<svg xmlns="http://www.w3.org/2000/svg" xmlns:xlink="http://www.w3.org/1999/xlink" width="118" height="118" viewBox="0 0 118 118">
  <defs>
    <filter id="Ellipse_12115" x="0" y="0" width="118" height="118" filterUnits="userSpaceOnUse">
      <feOffset dy="3" input="SourceAlpha"/>
      <feGaussianBlur stdDeviation="3" result="blur"/>
      <feFlood flood-opacity="0.161"/>
      <feComposite operator="in" in2="blur"/>
      <feComposite in="SourceGraphic"/>
    </filter>
  </defs>
  <g id="Group_1190242" data-name="Group 1190242" transform="translate(-1121.832 -2713)">
    <g id="Group_1181947" data-name="Group 1181947" transform="translate(322.051 170)">
      <g transform="matrix(1, 0, 0, 1, 799.78, 2543)" filter="url(#Ellipse_12115)">
        <g id="Ellipse_12115-2" data-name="Ellipse 12115" transform="translate(9 6)" fill="#fbe4a3" stroke="#f6bc1c" stroke-width="2">
          <circle cx="50" cy="50" r="50" stroke="none"/>
          <circle cx="50" cy="50" r="49" fill="none"/>
        </g>
      </g>
    </g>
    <g id="Group_1190241" data-name="Group 1190241" transform="translate(1151.832 2733.043)">
      <g id="Group_1190240" data-name="Group 1190240" transform="translate(1.824 9.638)">
        <g id="Group_1190237" data-name="Group 1190237" transform="translate(0 0)">
          <path id="Path_1275701" data-name="Path 1275701" d="M74.122,54.825H22.94V17.217a.907.907,0,0,1,.9-.9H73.217a.907.907,0,0,1,.9.9V54.825Z" transform="translate(-21.354 -16.312)" fill="#f0f0f0" fill-rule="evenodd"/>
          <path id="Path_1275702" data-name="Path 1275702" d="M136.759,369l8.031,13.911H139.3l-7.953-13.776Zm-15.232,0,5.4.162-7.938,13.749h-5.492Z" transform="translate(-101.966 -330.274)" fill="#7a7785" fill-rule="evenodd"/>
          <path id="Path_1275703" data-name="Path 1275703" d="M8.939,347.057H62.414a.44.44,0,0,1,.439.439v2.629a.44.44,0,0,1-.439.439H8.939a.44.44,0,0,1-.439-.439V347.5A.44.44,0,0,1,8.939,347.057Z" transform="translate(-8.5 -310.74)" fill="#6f6571" fill-rule="evenodd"/>
        </g>
        <g id="Group_1190238" data-name="Group 1190238" transform="translate(4.427 3.788)">
          <circle id="Ellipse_12280" data-name="Ellipse 12280" cx="6.74" cy="6.74" r="6.74" transform="translate(0 0)" fill="#43a2ff"/>
          <path id="Path_1275704" data-name="Path 1275704" d="M48.814,57.547a6.74,6.74,0,1,1,13.48,0H57.955a2.4,2.4,0,1,0-4.8,0Z" transform="translate(-48.814 -50.807)" fill="#6ce75a" fill-rule="evenodd"/>
          <path id="Path_1275705" data-name="Path 1275705" d="M116.934,57.547a6.733,6.733,0,0,0-6.74-6.74v4.339a2.4,2.4,0,0,1,2.4,2.4Z" transform="translate(-103.454 -50.807)" fill="#ffd54f" fill-rule="evenodd"/>
          <path id="Path_1275706" data-name="Path 1275706" d="M130.7,112.187h-4.339a2.393,2.393,0,0,1-.7,1.7l3.068,3.068A6.719,6.719,0,0,0,130.7,112.187Z" transform="translate(-117.218 -105.447)" fill="#ff6372" fill-rule="evenodd"/>
          <circle id="Ellipse_12281" data-name="Ellipse 12281" cx="2.988" cy="2.988" r="2.988" transform="translate(3.752 3.752)" fill="#f0f0f0"/>
        </g>
        <g id="Group_1190239" data-name="Group 1190239" transform="translate(13.76 3.064)">
          <circle id="Ellipse_12282" data-name="Ellipse 12282" cx="12.289" cy="12.289" r="12.289" transform="translate(0 17.901) rotate(-45)" fill="#ff6372"/>
          <circle id="Ellipse_12283" data-name="Ellipse 12283" cx="7.879" cy="7.879" r="7.879" transform="translate(7.903 12.033) rotate(-13.3)" fill="#f0f0f0"/>
          <ellipse id="Ellipse_12284" data-name="Ellipse 12284" cx="3.55" cy="3.55" rx="3.55" ry="3.55" transform="matrix(1, -0.022, 0.022, 1, 13.769, 14.425)" fill="#ff6372"/>
          <path id="Path_1275707" data-name="Path 1275707" d="M372.539,53.285l4.506-.128,4.565-4.565-4.506.128.128-4.506-4.565,4.565Z" transform="translate(-346.327 -44.214)" fill="#7a7785" fill-rule="evenodd"/>
        </g>
      </g>
      <path id="Path_1275708" data-name="Path 1275708" d="M12.166,14.309v2.136a3.821,3.821,0,0,0-2.9,2.9H7.132A5.926,5.926,0,0,1,12.166,14.309Zm6.681,5.033H16.711a3.821,3.821,0,0,0-2.9-2.9V14.309A5.927,5.927,0,0,1,18.847,19.342Zm-2.136,1.647h2.136a5.9,5.9,0,0,1-1.134,2.735L16.2,22.213A3.794,3.794,0,0,0,16.711,20.989ZM12.99,18a2.164,2.164,0,1,0,2.164,2.164A2.166,2.166,0,0,0,12.99,18ZM7.132,20.989a5.911,5.911,0,0,0,9.416,3.9l-1.511-1.51a3.808,3.808,0,0,1-5.768-2.389H7.132Zm5.857,6.74a7.563,7.563,0,1,0-7.563-7.563A7.572,7.572,0,0,0,12.99,27.729ZM18.627,40.9a.823.823,0,0,1-.823.823H9.913a.823.823,0,1,1,0-1.647H17.8A.823.823,0,0,1,18.627,40.9ZM8.144,32.41a.823.823,0,0,1-.823.823H6.594a.824.824,0,1,1,0-1.647H7.32A.824.824,0,0,1,8.144,32.41Zm10.484,0a.823.823,0,0,1-.823.823H9.913a.824.824,0,1,1,0-1.647H17.8A.824.824,0,0,1,18.627,32.41ZM8.144,36.655a.823.823,0,0,1-.823.823H6.594a.824.824,0,1,1,0-1.647H7.32A.824.824,0,0,1,8.144,36.655Zm0,4.246a.823.823,0,0,1-.823.823H6.594a.823.823,0,1,1,0-1.647H7.32A.823.823,0,0,1,8.144,40.9Zm10.484-4.246a.823.823,0,0,1-.823.823H9.913a.824.824,0,1,1,0-1.647H17.8A.824.824,0,0,1,18.627,36.655ZM45.951,20.831l-3.307.094.094-3.307,2.869-2.869-.069,2.435a.822.822,0,0,0,.846.847l2.436-.069ZM35.42,26.984a4.373,4.373,0,1,0,1.165,1.164L38.5,26.233a7.06,7.06,0,1,1-1.164-1.165Zm.273,3.618a2.718,2.718,0,0,0-.307-1.255l-1.837,1.837a.823.823,0,1,1-1.164-1.163l1.837-1.837a2.692,2.692,0,0,0-1.254-.308A2.726,2.726,0,1,0,35.693,30.6ZM32.967,42.068A11.461,11.461,0,0,0,41.633,23.1l-1.961,1.96A8.7,8.7,0,1,1,38.508,23.9l1.96-1.96a11.464,11.464,0,1,0-7.5,20.131ZM50.844,16.256a.823.823,0,0,1,.605,1.406l-4.565,4.564a.824.824,0,0,1-.559.241l-3.014.086a13.127,13.127,0,1,1-2.3-2.3l.085-3.014a.824.824,0,0,1,.241-.559l4.566-4.566a.824.824,0,0,1,1.405.606l-.1,3.635Zm4.509,32.382H2.647v-1.86H55.353ZM43.221,61.452H39.631L33.184,50.286h3.589Zm-24.852,0h-3.59l6.447-11.166h3.59ZM4.232,10.543V45.131H53.767V10.543a.083.083,0,0,0-.081-.081H4.314a.083.083,0,0,0-.081.081Zm51.5,34.588h-.323V10.543a1.73,1.73,0,0,0-1.728-1.728H4.314a1.73,1.73,0,0,0-1.728,1.728V45.131H2.263A1.264,1.264,0,0,0,1,46.394v2.629a1.263,1.263,0,0,0,1.262,1.262H19.323L12.639,61.864a.823.823,0,0,0,.713,1.235h5.491a.822.822,0,0,0,.713-.412l7.16-12.4h4.567l7.16,12.4a.822.822,0,0,0,.713.412h5.491a.823.823,0,0,0,.714-1.235L38.677,50.286h17.06A1.264,1.264,0,0,0,57,49.023V46.394a1.265,1.265,0,0,0-1.263-1.263Z" fill-rule="evenodd"/>
    </g>
  </g>
</svg>
