<svg xmlns="http://www.w3.org/2000/svg" xmlns:xlink="http://www.w3.org/1999/xlink" width="118" height="118" viewBox="0 0 118 118">
  <defs>
    <filter id="Ellipse_12115" x="0" y="0" width="118" height="118" filterUnits="userSpaceOnUse">
      <feOffset dy="3" input="SourceAlpha"/>
      <feGaussianBlur stdDeviation="3" result="blur"/>
      <feFlood flood-opacity="0.161"/>
      <feComposite operator="in" in2="blur"/>
      <feComposite in="SourceGraphic"/>
    </filter>
  </defs>
  <g id="Group_1189883" data-name="Group 1189883" transform="translate(-1122.051 -586)">
    <g id="Group_1181947" data-name="Group 1181947" transform="translate(322.27 -1957)">
      <g transform="matrix(1, 0, 0, 1, 799.78, 2543)" filter="url(#Ellipse_12115)">
        <g id="Ellipse_12115-2" data-name="Ellipse 12115" transform="translate(9 6)" fill="#fbe4a3" stroke="#f6bc1c" stroke-width="2">
          <circle cx="50" cy="50" r="50" stroke="none"/>
          <circle cx="50" cy="50" r="49" fill="none"/>
        </g>
      </g>
    </g>
    <g id="Checklist" transform="translate(1151.381 609.884)">
      <rect id="Rectangle_411223" data-name="Rectangle 411223" width="42.139" height="55.051" rx="2.33" transform="translate(8.312 7.158)" fill="#ffc088"/>
      <path id="Path_1273839" data-name="Path 1273839" d="M0,0H48.254V35.342H0Z" transform="translate(47.049 10.56) rotate(90)" fill="#d2ddf2"/>
      <path id="Path_1273840" data-name="Path 1273840" d="M61.73,55.665l3.946,1.92V52.86Z" transform="translate(-18.627 -18.173)" fill="#afbae3"/>
      <rect id="Rectangle_411224" data-name="Rectangle 411224" width="35.84" height="24.854" rx="2.19" transform="translate(41.806 14.401) rotate(90)" fill="#fff"/>
      <path id="Path_1273841" data-name="Path 1273841" d="M44.817,10.86H10.19a1.527,1.527,0,0,0-1.54,1.534v7.983h3.4V14.262H44.817Z" transform="translate(-0.338 -3.702)" fill="#ffd9a6"/>
      <path id="Path_1273842" data-name="Path 1273842" d="M47.387,46.329V72.842H12.045V68.549H8.65V74.71a1.527,1.527,0,0,0,1.54,1.534H49.255a1.534,1.534,0,0,0,1.534-1.534V40.83c-1.193,1.809-2.386,3.618-3.4,5.5Z" transform="translate(-0.338 -14.028)" fill="#ff986f"/>
      <path id="Path_1273843" data-name="Path 1273843" d="M71.152,63.882V40.83c-1.193,1.809-2.386,3.618-3.4,5.5V56.22Z" transform="translate(-20.701 -14.028)" fill="#c86656"/>
      <g id="Group_1189880" data-name="Group 1189880" transform="translate(36.149 17.049)">
        <rect id="Rectangle_411225" data-name="Rectangle 411225" width="6.174" height="6.174" rx="1.82" transform="translate(0 30.111)" fill="#a8dcfb"/>
        <rect id="Rectangle_411226" data-name="Rectangle 411226" width="6.174" height="6.174" rx="1.82" transform="translate(0 20.07)" fill="#a8dcfb"/>
        <rect id="Rectangle_411227" data-name="Rectangle 411227" width="6.174" height="6.174" rx="1.82" transform="translate(0 10.035)" fill="#a8dcfb"/>
        <rect id="Rectangle_411228" data-name="Rectangle 411228" width="6.174" height="6.174" rx="1.82" fill="#a8dcfb"/>
      </g>
      <g id="Group_1189881" data-name="Group 1189881" transform="translate(14.919 16.426)">
        <path id="Path_1273844" data-name="Path 1273844" d="M54.228,61.043l-1.422-1.789a.656.656,0,1,1,1.029-.813l.964,1.213,3.33-3.323a.656.656,0,0,1,.924.931L55.185,61.1a.655.655,0,0,1-.957-.059Z" transform="translate(-30.422 -35.729)" fill="#302d3d"/>
        <path id="Path_1273845" data-name="Path 1273845" d="M54.227,46.184,52.8,44.375a.658.658,0,0,1,1.029-.819l.964,1.219,3.33-3.3a.66.66,0,0,1,.937.931L55.2,46.243a.655.655,0,0,1-.97-.059Z" transform="translate(-30.421 -30.61)" fill="#302d3d"/>
        <path id="Path_1273846" data-name="Path 1273846" d="M54.228,30.693,52.806,28.9a.656.656,0,0,1,1.029-.813L54.8,29.3l3.33-3.323a.656.656,0,1,1,.924.931l-3.867,3.841a.655.655,0,0,1-.957-.059Z" transform="translate(-30.422 -25.272)" fill="#302d3d"/>
        <path id="Path_1273847" data-name="Path 1273847" d="M54.228,76.693,52.806,74.9a.656.656,0,1,1,1.029-.813L54.8,75.3l3.33-3.323a.656.656,0,1,1,.924.931l-3.867,3.841a.655.655,0,0,1-.957-.059Z" transform="translate(-30.422 -41.122)" fill="#302d3d"/>
        <path id="Path_1273848" data-name="Path 1273848" d="M26.209,26.311H19.385a.655.655,0,0,1,0-1.311h6.823a.655.655,0,0,1,0,1.311Z" transform="translate(-18.73 -25)" fill="#302d3d"/>
        <path id="Path_1273849" data-name="Path 1273849" d="M35.293,30.971H19.385a.655.655,0,0,1,0-1.311H35.293a.655.655,0,1,1,0,1.311Z" transform="translate(-18.73 -26.606)" fill="#302d3d"/>
        <path id="Path_1273850" data-name="Path 1273850" d="M23.364,35.681H19.385a.655.655,0,0,1,0-1.311h3.979a.655.655,0,0,1,0,1.311Z" transform="translate(-18.73 -28.228)" fill="#302d3d"/>
        <path id="Path_1273851" data-name="Path 1273851" d="M35.293,41.571H19.385a.655.655,0,1,1,0-1.311H35.293a.655.655,0,1,1,0,1.311Z" transform="translate(-18.73 -30.258)" fill="#302d3d"/>
        <path id="Path_1273852" data-name="Path 1273852" d="M35.293,46.311H19.385a.655.655,0,0,1,0-1.311H35.293a.655.655,0,1,1,0,1.311Z" transform="translate(-18.73 -31.891)" fill="#302d3d"/>
        <path id="Path_1273853" data-name="Path 1273853" d="M27.349,50.991H19.385a.655.655,0,0,1,0-1.311h7.964a.655.655,0,0,1,0,1.311Z" transform="translate(-18.73 -33.504)" fill="#302d3d"/>
        <path id="Path_1273854" data-name="Path 1273854" d="M35.293,56.881H19.385a.655.655,0,1,1,0-1.311H35.293a.655.655,0,1,1,0,1.311Z" transform="translate(-18.73 -35.533)" fill="#302d3d"/>
        <path id="Path_1273855" data-name="Path 1273855" d="M38.449,61.591h-9.9a.655.655,0,1,1,0-1.311h9.9a.655.655,0,1,1,0,1.311Z" transform="translate(-21.886 -37.156)" fill="#302d3d"/>
        <path id="Path_1273856" data-name="Path 1273856" d="M28.286,66.311h-8.9a.655.655,0,1,1,0-1.311h8.9a.655.655,0,1,1,0,1.311Z" transform="translate(-18.73 -38.782)" fill="#302d3d"/>
        <path id="Path_1273857" data-name="Path 1273857" d="M35.293,72.2H19.385a.655.655,0,1,1,0-1.311H35.293a.655.655,0,1,1,0,1.311Z" transform="translate(-18.73 -40.812)" fill="#302d3d"/>
        <path id="Path_1273858" data-name="Path 1273858" d="M30.2,76.9H19.385a.655.655,0,1,1,0-1.311H30.2a.655.655,0,1,1,0,1.311Z" transform="translate(-18.73 -42.431)" fill="#302d3d"/>
        <path id="Path_1273859" data-name="Path 1273859" d="M25.389,81.611h-6a.655.655,0,1,1,0-1.311h6a.655.655,0,1,1,0,1.311Z" transform="translate(-18.73 -44.054)" fill="#302d3d"/>
        <path id="Path_1273860" data-name="Path 1273860" d="M41.244,26.311H36.655a.655.655,0,0,1,0-1.311h4.588a.655.655,0,0,1,0,1.311Z" transform="translate(-24.68 -25)" fill="#302d3d"/>
        <path id="Path_1273861" data-name="Path 1273861" d="M32.045,35.681H30.3a.655.655,0,1,1,0-1.311h1.75a.655.655,0,0,1,0,1.311Z" transform="translate(-22.489 -28.228)" fill="#302d3d"/>
        <path id="Path_1273862" data-name="Path 1273862" d="M37.334,50.991H35.885a.655.655,0,0,1,0-1.311h1.449a.655.655,0,0,1,0,1.311Z" transform="translate(-24.415 -33.504)" fill="#302d3d"/>
        <path id="Path_1273863" data-name="Path 1273863" d="M22.387,61.591h-3a.655.655,0,1,1,0-1.311h3a.655.655,0,0,1,0,1.311Z" transform="translate(-18.73 -37.156)" fill="#302d3d"/>
        <path id="Path_1273864" data-name="Path 1273864" d="M33.665,81.611H32.3a.655.655,0,1,1,0-1.311h1.37a.655.655,0,1,1,0,1.311Z" transform="translate(-23.178 -44.054)" fill="#302d3d"/>
        <path id="Path_1273865" data-name="Path 1273865" d="M42.453,76.9H40.165a.655.655,0,1,1,0-1.311h2.288a.655.655,0,1,1,0,1.311Z" transform="translate(-25.89 -42.431)" fill="#302d3d"/>
      </g>
      <path id="Path_1273866" data-name="Path 1273866" d="M0,0H5.342V23.766H0Z" transform="translate(52.726 9.994) rotate(24.591)" fill="#ffb050"/>
      <path id="Path_1273867" data-name="Path 1273867" d="M0,0H1.127V23.766H0Z" transform="translate(52.732 9.998) rotate(24.591)" fill="#ffd36e"/>
      <path id="Path_1273868" data-name="Path 1273868" d="M0,0H1.127V9.163H0Z" transform="translate(52.725 9.995) rotate(24.591)" fill="#fff19b"/>
      <path id="Path_1273869" data-name="Path 1273869" d="M0,0H2.674V23.766H0Z" transform="translate(55.158 11.112) rotate(24.591)" fill="#ff7e2d"/>
      <path id="Path_1273870" data-name="Path 1273870" d="M65.8,50.385l-.767,1.684-3.841,1.966c-.426-1.743-.2-.826-1.022-4.195l.773-1.691Z" transform="translate(-18.089 -16.55)" fill="#ffab69"/>
      <path id="Path_1273871" data-name="Path 1273871" d="M64.215,49.654c-.891,1.966-.57,1.58-3.349,3.008l-.655-2.812.773-1.691Z" transform="translate(-18.103 -16.554)" fill="#ffd38c"/>
      <path id="Path_1273872" data-name="Path 1273872" d="M0,0H.878V3.585H0Z" transform="matrix(0.417, -0.909, 0.909, 0.417, 42.486, 32.397)" fill="#ffe78c"/>
      <path id="Path_1273873" data-name="Path 1273873" d="M64.286,53.89l-2.969,1.527c-.288-1.173-.1-.406-.787-3.277Z" transform="translate(-18.213 -17.925)" fill="#302d56"/>
      <path id="Path_1273874" data-name="Path 1273874" d="M63.263,53.442,61.1,54.556l-.57-2.366Z" transform="translate(-18.213 -17.942)" fill="#3f3c6a"/>
      <path id="Path_1273875" data-name="Path 1273875" d="M62.862,53.785l-.813.419-.21-.885Z" transform="translate(-18.665 -18.332)" fill="#7b6eab"/>
      <path id="Path_1273876" data-name="Path 1273876" d="M0,0H5.342V2.72H0Z" transform="translate(53.86 7.523) rotate(24.591)" fill="#3f3c6a"/>
      <path id="Path_1273877" data-name="Path 1273877" d="M0,0H1.167V2.72H0Z" transform="translate(57.65 9.259) rotate(24.591)" fill="#353260"/>
      <path id="Path_1273878" data-name="Path 1273878" d="M0,0H2.019V2.72H0Z" transform="translate(53.857 7.524) rotate(24.591)" fill="#53508d"/>
      <path id="Path_1273879" data-name="Path 1273879" d="M84.019,9.748l-1.009,2.2-1.684-.76L78.14,9.735l1.022-2.209a1.743,1.743,0,0,1,2.229-.891l1.77.813a1.73,1.73,0,0,1,.859,2.3Z" transform="translate(-24.281 -2.203)" fill="#e13969"/>
      <path id="Path_1273880" data-name="Path 1273880" d="M82.348,8.977l-1.022,2.2L78.14,9.717l1.022-2.2a1.751,1.751,0,1,1,3.185,1.455Z" transform="translate(-24.281 -2.199)" fill="#ff526e"/>
      <path id="Path_1273881" data-name="Path 1273881" d="M79.88,9.919a.406.406,0,0,1-.2-.524L80.26,8.15a1.1,1.1,0,0,1,2.025.085,1.075,1.075,0,0,1,0,.819l-.577,1.258a.387.387,0,0,1-.518.19Z" transform="translate(-24.801 -2.551)" fill="#ff8ea5"/>
      <path id="Path_1273882" data-name="Path 1273882" d="M44.753,6.858v3.933H28V6.858a.977.977,0,0,1,.977-.977H32V5.429a4.378,4.378,0,1,1,8.75,0v.465h3.015a.977.977,0,0,1,.99.964Z" transform="translate(-7.005 -0.264)" fill="#96a6e8"/>
      <path id="Path_1273883" data-name="Path 1273883" d="M44.753,6.858V8.825H28V6.858a.977.977,0,0,1,.977-.977H32V5.429a4.378,4.378,0,1,1,8.75,0v.465h3.015a.977.977,0,0,1,.99.964Z" transform="translate(-7.005 -0.264)" fill="#b4c9e8"/>
      <g id="Group_1189882" data-name="Group 1189882" transform="translate(7.67 0.116)">
        <path id="Path_1273884" data-name="Path 1273884" d="M48.917,66.228H9.853A2.189,2.189,0,0,1,7.67,64.039V12.049A2.189,2.189,0,0,1,9.853,9.86H21a.655.655,0,0,1,.655.655v2.746H37.093V10.515a.655.655,0,0,1,.655-.655H48.891a2.2,2.2,0,0,1,2.189,2.189c0,6.908,0,6.4-.059,6.594L42.769,36.72l.1.419,3.185,1.455.393-.223,3.382-7.446a.655.655,0,0,1,1.252.275V64.039a2.2,2.2,0,0,1-2.17,2.189ZM9.853,11.171a.878.878,0,0,0-.885.878v51.99a.878.878,0,0,0,.885.878H48.917a.878.878,0,0,0,.878-.878V34.2c-2.478,5.414-2.268,5.1-2.556,5.244-.911.472-1.081.623-1.442.459L43.28,38.791l.465,1.934a.655.655,0,0,1-1.272.315c-1.108-4.549-1.114-4.339-.983-4.627L49.8,18.256V12.049a.878.878,0,0,0-.878-.878H38.437v2.746a.655.655,0,0,1-.655.655H21a.655.655,0,0,1-.655-.655V11.171Z" transform="translate(-7.67 -3.474)" fill="#302d3d"/>
        <path id="Path_1273885" data-name="Path 1273885" d="M48.827,64.615H13.485a.655.655,0,0,1-.655-.655V15.705a.655.655,0,0,1,.655-.655H48.827a.655.655,0,0,1,.655.655c0,12.676,0,11.962-.059,12.159L44.547,38.508l.1.419,3.185,1.455.393-.223a.655.655,0,0,1,1.252.275V63.959a.655.655,0,0,1-.655.655ZM14.141,63.3H48.172V41.674a.655.655,0,0,1-.6,0L45.058,40.58l.465,1.934a.655.655,0,0,1-1.272.315c-1.108-4.549-1.114-4.339-.983-4.627l4.9-10.73V16.361H14.141Z" transform="translate(-9.448 -5.262)" fill="#302d3d"/>
        <path id="Path_1273886" data-name="Path 1273886" d="M55.75,78.369H51.968A1.848,1.848,0,0,1,50.12,76.52V72.738a1.848,1.848,0,0,1,1.848-1.848H55.75a1.855,1.855,0,0,1,1.855,1.848V76.52a1.855,1.855,0,0,1-1.855,1.848ZM51.968,72.2a.537.537,0,0,0-.537.537V76.52a.537.537,0,0,0,.537.537H55.75a.544.544,0,0,0,.544-.538V72.738a.537.537,0,0,0-.544-.537Z" transform="translate(-22.296 -24.502)" fill="#302d3d"/>
        <path id="Path_1273887" data-name="Path 1273887" d="M55.75,63.062H51.968a1.855,1.855,0,0,1-1.848-1.848V57.425a1.855,1.855,0,0,1,1.848-1.855H55.75a1.855,1.855,0,0,1,1.855,1.855v3.782A1.855,1.855,0,0,1,55.75,63.062Zm-3.782-6.174a.544.544,0,0,0-.537.544v3.782a.537.537,0,0,0,.537.537H55.75a.544.544,0,0,0,.544-.538V57.425a.544.544,0,0,0-.544-.544Z" transform="translate(-22.296 -19.223)" fill="#302d3d"/>
        <path id="Path_1273888" data-name="Path 1273888" d="M55.75,47.745H51.968A1.855,1.855,0,0,1,50.12,45.89V42.108a1.855,1.855,0,0,1,1.848-1.848H55.75a1.855,1.855,0,0,1,1.855,1.848V45.89A1.855,1.855,0,0,1,55.75,47.745Zm-3.782-6.174a.537.537,0,0,0-.537.537V45.89a.544.544,0,0,0,.538.544H55.75a.544.544,0,0,0,.544-.544V42.108a.544.544,0,0,0-.544-.537Z" transform="translate(-22.296 -13.948)" fill="#302d3d"/>
        <path id="Path_1273889" data-name="Path 1273889" d="M55.75,32.452H51.968A1.855,1.855,0,0,1,50.12,30.6V26.816A1.848,1.848,0,0,1,51.968,25H55.75a1.855,1.855,0,0,1,1.855,1.848V30.63A1.855,1.855,0,0,1,55.75,32.452Zm-3.782-6.142a.537.537,0,0,0-.537.537V30.63a.544.544,0,0,0,.538.544H55.75a.544.544,0,0,0,.544-.544V26.816a.544.544,0,0,0-.544-.537Z" transform="translate(-22.296 -8.69)" fill="#302d3d"/>
        <path id="Path_1273890" data-name="Path 1273890" d="M63.436,38.214c-.2,0-.1,0-2.707-1.173a.655.655,0,0,1-.321-.872L70.3,14.539a.655.655,0,0,1,.872-.321L73.6,15.332a.655.655,0,0,1,.321.872l-9.864,21.63a.655.655,0,0,1-.616.38ZM61.87,36.123l1.245.564,9.34-20.417-1.239-.564Z" transform="translate(-25.82 -4.954)" fill="#302d3d"/>
        <path id="Path_1273891" data-name="Path 1273891" d="M67.14,39.928c-.2,0-.1,0-2.7-1.173a.655.655,0,0,1-.321-.872L74,16.253a.655.655,0,0,1,.872-.288l2.432,1.114a.655.655,0,0,1,.321.852l-9.891,21.63a.655.655,0,0,1-.6.367Zm-1.56-2.091,1.239.57,9.34-20.424L74.92,17.42Z" transform="translate(-27.098 -5.554)" fill="#302d3d"/>
        <path id="Path_1273892" data-name="Path 1273892" d="M60.838,54.351a.655.655,0,0,1-.655-.5c-1.108-4.549-1.114-4.339-.983-4.627.832-1.816.806-1.907,1.14-2.032a.655.655,0,0,1,.5,0l4.85,2.229a.655.655,0,0,1,.328.865c-.806,1.835-.773,1.881-1.075,2.006-.911.472-1.081.623-1.442.459l-2.491-1.114.465,1.934a.655.655,0,0,1-.642.78Zm-.229-4.365,3.185,1.455.393-.223.393-.852-3.67-1.684-.406.885Z" transform="translate(-25.405 -16.32)" fill="#302d3d"/>
        <path id="Path_1273893" data-name="Path 1273893" d="M60.963,55.731a.655.655,0,0,1-.655-.5l-.787-3.277a.655.655,0,0,1,.964-.721l3.756,1.717a.655.655,0,0,1,0,1.18c-3.212,1.645-3.054,1.6-3.277,1.6Zm.177-2.714.269,1.127,1.042-.564Z" transform="translate(-25.529 -17.699)" fill="#302d3d"/>
        <path id="Path_1273894" data-name="Path 1273894" d="M60.963,55.731a.655.655,0,0,1-.655-.5l-.787-3.277a.655.655,0,0,1,.964-.721l3.756,1.717a.655.655,0,0,1,0,1.18c-3.212,1.645-3.054,1.6-3.277,1.6Zm.177-2.714.269,1.127,1.042-.564Z" transform="translate(-25.529 -17.699)" fill="#302d3d"/>
        <path id="Path_1273895" data-name="Path 1273895" d="M80.951,16.429c-.21,0,.046.085-5.132-2.288a.655.655,0,0,1-.321-.872L76.625,10.8a.655.655,0,0,1,.872-.321L82.36,12.7a.655.655,0,0,1,.321.865l-1.134,2.478A.655.655,0,0,1,80.951,16.429ZM76.96,13.224,80.624,14.9l.59-1.311-3.67-1.671Z" transform="translate(-31.019 -3.665)" fill="#302d3d"/>
        <path id="Path_1273896" data-name="Path 1273896" d="M82.68,12.26c-.21,0,.216.17-5.132-2.281a.655.655,0,0,1-.328-.865l1.009-2.209A2.392,2.392,0,0,1,81.4,5.725l1.7.76a2.386,2.386,0,0,1,1.167,3.192l-1.009,2.2A.655.655,0,0,1,82.68,12.26Zm-3.992-3.2,3.664,1.678.734-1.632a1.088,1.088,0,0,0-.531-1.442l-1.7-.747a1.081,1.081,0,0,0-1.435.537Z" transform="translate(-31.614 -1.974)" fill="#302d3d"/>
        <path id="Path_1273897" data-name="Path 1273897" d="M44.409,11.215H27.655A.655.655,0,0,1,27,10.56V6.595a1.639,1.639,0,0,1,1.632-1.632H31a4.955,4.955,0,0,1,1.468-3.369,5.034,5.034,0,0,1,8.593,3.382h2.366a1.639,1.639,0,0,1,1.632,1.619v3.933a.655.655,0,0,1-.655.688ZM28.311,9.9H43.753V6.595a.321.321,0,0,0-.321-.321H40.417a.655.655,0,0,1-.655-.655V5.166A3.723,3.723,0,0,0,33.41,2.544a3.664,3.664,0,0,0-1.088,2.622v.465a.655.655,0,0,1-.655.655H28.645a.321.321,0,0,0-.334.308Z" transform="translate(-14.33 -0.116)" fill="#302d3d"/>
      </g>
    </g>
  </g>
</svg>
