<svg xmlns="http://www.w3.org/2000/svg" width="250.02" height="235.848" viewBox="0 0 250.02 235.848">
  <g id="Group_1190225" data-name="Group 1190225" transform="translate(-1063.635 -789)">
    <g id="Group_1190150" data-name="Group 1190150" transform="translate(103.584)">
      <rect id="BG" width="250.02" height="235.848" transform="translate(960.051 789)" fill="#f1eee2" opacity="0.998"/>
      <path id="Path_1275685" data-name="Path 1275685" d="M93.412,127.6s74.629-46.115,107.068-26.535-21.09,72.527,5.7,62.653c27.831-10.257,61.3,1.5,62.97,26.309,2.3,34.2-58.784,60.077-46.528,58.573,26.292-3.226,41.153,4.251,26.292,21.536-19.593,22.791-81.533,47.72-94.3,36.32s13.262-43.2-10.864-34.84c-56.168,19.456-100.349-15.9-71.652-46.18,11.5-12.139,48.743-36.682,24.943-39.284C57.877,181.874,32.556,162.963,93.412,127.6Z" transform="translate(903.092 709.903)" fill="#dcd5b7" opacity="0.5"/>
      <g id="Group_1190149" data-name="Group 1190149" transform="translate(867.416 634.41)">
        <circle id="Ellipse_12267" data-name="Ellipse 12267" cx="11.757" cy="11.757" r="11.757" transform="translate(175.473 194.467)" fill="#383a45"/>
        <circle id="Ellipse_12268" data-name="Ellipse 12268" cx="11.757" cy="11.757" r="11.757" transform="translate(228.767 194.467)" fill="#383a45"/>
        <path id="Path_1274342" data-name="Path 1274342" d="M275.537,468.65s8.647-49.429,8.848-59.9-127.913,7.4-127.913,7.4l9.655,52.507Z" transform="translate(-1.604 -78.212)" fill="#fffaef"/>
        <path id="Path_1274343" data-name="Path 1274343" d="M164.448,351.519s-11.757-53.555,20.9-63.352,28.261-28.712,11.756-50.172c-29.461-38.3,27.087-77.677,39.84-53.674,25.975,48.886,1.049,52.056-4.611,68.6-6.818,19.928-2.279,24.772,19.035,31.718,31.114,10.14,24.391,66.877,24.391,66.877Z" transform="translate(-3.566 -2.452)" fill="#f6bc9f"/>
        <path id="Path_1274344" data-name="Path 1274344" d="M203.413,327.654s-.291,20.852,16.3,18.53c13.833-1.936,14.193-19.265,14.193-19.265s17.13,5.474,23.539,8.921,38.341,19.786,24.063,65.4H163.251s-10.066-24.268,0-46.053C174.589,330.644,197.018,332.948,203.413,327.654Z" transform="translate(-2.368 -52.169)" fill="#fffaef"/>
        <path id="Path_1274345" data-name="Path 1274345" d="M209.467,369.347s17.9,62.376,70.643,20.934v66.395H210.853Z" transform="translate(-19.177 -66.238)" fill="#d6ece1"/>
        <path id="Path_1274346" data-name="Path 1274346" d="M200.838,241.538c1.089,4.849,1.082,11.539-2.766,11.539S186.9,245.386,186.9,241.538a6.967,6.967,0,0,1,6.967-6.967C197.719,234.571,199.995,237.783,200.838,241.538Z" transform="translate(-11.695 -21.547)" fill="#f6bc9f"/>
        <path id="Path_1274347" data-name="Path 1274347" d="M285.245,241.538c-1.089,4.849-1.082,11.539,2.766,11.539s11.168-7.691,11.168-11.539a6.967,6.967,0,0,0-6.967-6.967C288.364,234.571,286.087,237.783,285.245,241.538Z" transform="translate(-44.098 -21.547)" fill="#f6bc9f"/>
        <path id="Path_1274348" data-name="Path 1274348" d="M230.608,303.951s13.241,4.1,20.178-5.77c0,0,2.057-9.626,2.638-10.787s-.581,1.161-.581,1.161H225.557S231.305,295.252,230.608,303.951Z" transform="translate(-24.512 -38.956)" fill="#e9946f"/>
        <path id="Path_1274349" data-name="Path 1274349" d="M207.664,209.689s-6.6,32,4.137,41.584,9.817-11.323,20.9-11.749c7.547-.291,10.848,19.31,22.124,7.008,7.379-8.049-.169-39.725-.169-39.725L261,211s7.564,55.761-27.854,58.323c-36.123,2.612-35.273-53.007-32.166-59.412C200.98,209.907,205.052,206.787,207.664,209.689Z" transform="translate(-15.909 -12.341)" fill="#383a45"/>
        <circle id="Ellipse_12269" data-name="Ellipse 12269" cx="2.467" cy="2.467" r="2.467" transform="translate(200.754 211.648)" fill="#383a45"/>
        <circle id="Ellipse_12270" data-name="Ellipse 12270" cx="2.467" cy="2.467" r="2.467" transform="translate(229.075 210.556)" fill="#383a45"/>
        <path id="Path_1274350" data-name="Path 1274350" d="M247.9,248.175a.96.96,0,0,1-.2-.022c-2.065-.442-3.178-5.018-3.38-5.93l1.3-.289c.446,2.005,1.349,4.23,2.1,4.788.43-1.49-.07-7.866-.837-13.367l1.323-.185c.694,4.981,1.662,13.518.345,14.743A.965.965,0,0,1,247.9,248.175Z" transform="translate(-30.733 -21.083)" fill="#383a45"/>
        <circle id="Ellipse_12271" data-name="Ellipse 12271" cx="3.483" cy="3.483" r="3.483" transform="translate(194.949 222.277)" fill="#e9946f"/>
        <circle id="Ellipse_12272" data-name="Ellipse 12272" cx="3.483" cy="3.483" r="3.483" transform="translate(230.059 222.277)" fill="#e9946f"/>
        <path id="Path_1274351" data-name="Path 1274351" d="M196.806,251.786c-.374-5.818-1.619-6.984-2.137-7.216a1.034,1.034,0,0,0-.987.154l-.845-1.036a2.347,2.347,0,0,1,2.352-.35c1.67.723,2.636,3.458,2.951,8.362Z" transform="translate(-13.662 -24.395)" fill="#383a45"/>
        <path id="Path_1274352" data-name="Path 1274352" d="M292.7,251.786l-1.334-.086c.315-4.9,1.281-7.64,2.951-8.362a2.349,2.349,0,0,1,2.352.35l-.846,1.036a1.033,1.033,0,0,0-.986-.154C294.316,244.8,293.071,245.968,292.7,251.786Z" transform="translate(-46.333 -24.395)" fill="#383a45"/>
        <path id="Path_1274353" data-name="Path 1274353" d="M211.659,203.7s8.461-8.911,16.78-7.464,11.018,15.565,31.551,11.128c0,0-12-4.582-18.774-9.968S227.251,178.073,211.659,203.7Z" transform="translate(-19.904 -6.354)" fill="#e9946f"/>
        <path id="Path_1274354" data-name="Path 1274354" d="M209.414,197.348s9.8-16.546,18.506-13.934,22.279,22.654,33.674,16.443c0,0-.793-31.534-30.185-30.228S201.1,207.581,209.414,197.348Z" transform="translate(-17.659 0)" fill="#383a45"/>
        <path id="Path_1274355" data-name="Path 1274355" d="M237.29,354.279c-18.667,0-20.72-19.53-20.739-19.729l.666-.062c.019.2,2.062,19.5,20.577,19.118,18.527-.352,20.408-21.732,20.425-21.948l.666.052c-.017.222-1.942,22.2-21.079,22.565C237.633,354.278,237.46,354.279,237.29,354.279Z" transform="translate(-21.526 -53.741)" fill="#d6ece1"/>
        <path id="Path_1274356" data-name="Path 1274356" d="M191.856,224.08l-.023-.668a10.684,10.684,0,0,0,7.163-3.52c2.015-2.444,2.676-5.95,1.966-10.42l.66-.1c.742,4.671.03,8.358-2.116,10.956A11.165,11.165,0,0,1,191.856,224.08Z" transform="translate(-13.329 -13.19)" fill="#547984"/>
        <path id="Path_1274357" data-name="Path 1274357" d="M187.3,218.9l-.005-.668a14.524,14.524,0,0,0,5.733-1.478c3.758-1.906,5.673-5.252,5.693-9.946l.668,0C199.339,218.668,187.42,218.9,187.3,218.9Z" transform="translate(-11.824 -12.341)" fill="#547984"/>
        <path id="Path_1274358" data-name="Path 1274358" d="M292.462,222.561a2.632,2.632,0,0,1-.9-.157c-3.785-1.366-4.282-11.339-4.3-11.763l.667-.031c0,.1.493,9.95,3.861,11.164,1.178.424,2.635-.307,4.333-2.174l.495.45C295.1,221.721,293.7,222.561,292.462,222.561Z" transform="translate(-44.973 -13.602)" fill="#547984"/>
        <path id="Path_1274359" data-name="Path 1274359" d="M229.445,226.255a12.723,12.723,0,0,1-5.075,1.972c-2.866.4-11.2.1-12.022.213S219.079,220.7,229.445,226.255Z" transform="translate(-20.112 -18.13)" fill="#383a45"/>
        <path id="Path_1274360" data-name="Path 1274360" d="M258.237,220.677s7.872-6.1,11.127-4.274c3.508,1.973,3.208,4.274,3.208,4.274s-4.983-1.287-5.614-1.009C264.122,220.918,260.652,222.59,258.237,220.677Z" transform="translate(-35.349 -15.409)" fill="#383a45"/>
        <path id="Path_1274361" data-name="Path 1274361" d="M253.216,274.7s-4.167-14.589-8.885-13.624-8.475,11.333-7.018,15.915S253.436,281.693,253.216,274.7Z" transform="translate(-28.305 -30.321)" fill="#f6bc9f"/>
        <path id="Path_1274362" data-name="Path 1274362" d="M241.7,272.355l-1-.891c.163-.183,4.039-4.444,7.457-4.387a3.649,3.649,0,0,1,2.843,1.441l-1.039.841a2.337,2.337,0,0,0-1.836-.946h-.069C245.745,268.412,242.694,271.25,241.7,272.355Z" transform="translate(-29.536 -32.326)" fill="#383a45"/>
        <path id="Path_1274363" data-name="Path 1274363" d="M250.633,274.419a6.655,6.655,0,0,0-4.252-.017l-.509-1.236a7.968,7.968,0,0,1,5.18-.017Z" transform="translate(-31.249 -34.201)" fill="#383a45"/>
        <path id="Path_1274364" data-name="Path 1274364" d="M222.477,174.679s7.138-4.663,14.372.642,21.33,26.193,28.87,15.086c0,0-3.432-13.768-14.041-17.622S233.182,168.732,222.477,174.679Z" transform="translate(-23.491 -0.146)" fill="#4b6d79" opacity="0.3"/>
        <path id="Path_1274365" data-name="Path 1274365" d="M257.1,204.644c-2.547,0-5.448-3.083-9.064-6.927-3.553-3.776-7.974-8.477-13.275-11.39-13.04-7.168-24.791,13.762-24.908,13.975l-.585-.324c.12-.219,12.192-21.729,25.815-14.237,5.393,2.964,9.854,7.707,13.439,11.518,3.707,3.94,6.623,7.052,8.947,6.687,1.108-.174,2.079-1.17,2.968-3.045l.6.286c-.993,2.09-2.127,3.208-3.47,3.42A3.025,3.025,0,0,1,257.1,204.644Z" transform="translate(-19.111 -4.831)" fill="#547984"/>
        <path id="Path_1274366" data-name="Path 1274366" d="M256.643,198.423c-2.875,0-4.762-2.587-7.5-6.344a65.444,65.444,0,0,0-10.682-12.026c-4.154-3.58-8.374-4.885-12.548-3.883-10.89,2.619-18.139,20.1-18.211,20.274l-.619-.253a58.435,58.435,0,0,1,5.058-9.287c2.964-4.412,7.731-9.969,13.615-11.384,4.395-1.057,8.815.3,13.142,4.026a66.051,66.051,0,0,1,10.785,12.138c3.955,5.422,5.763,7.9,11.15,4.54l.354.567A8.84,8.84,0,0,1,256.643,198.423Z" transform="translate(-18.385 -1.851)" fill="#547984"/>
        <path id="Path_1274367" data-name="Path 1274367" d="M269.594,193.779c-.049,0-.1,0-.15,0-1.781-.092-4.919-1.878-9.763-9.875-8.25-13.621-19.915-11.6-22.17-11.061l-.156-.65c2.333-.561,14.407-2.654,22.9,11.364,4.917,8.117,7.873,9.469,9.2,9.553a1.575,1.575,0,0,0,1.33-.461l.531.406A2.171,2.171,0,0,1,269.594,193.779Z" transform="translate(-28.424 -0.714)" fill="#547984"/>
        <path id="Path_1274368" data-name="Path 1274368" d="M216.187,204.116s-5.776,4.8-5.814,14.542.547,34.627,11.466,33.033c0,0-3.65,4.409-8.572-3.295s-7.92-22.072-2.895-39.663C210.373,208.734,214.987,202.8,216.187,204.116Z" transform="translate(-18.617 -11.386)" fill="#e9946f"/>
        <path id="Path_1274369" data-name="Path 1274369" d="M284.749,331.7s-1.745,103.226-.9,112.495h34.82s11.212-66.035,7.453-81.759C320.859,340.395,284.749,331.7,284.749,331.7Z" transform="translate(-43.765 -53.754)" fill="#383a45"/>
        <path id="Path_1274370" data-name="Path 1274370" d="M193.58,332.822s6.254,102.474,5.406,111.743H164.523S148.446,378.53,152.2,362.805C157.472,340.768,193.58,332.822,193.58,332.822Z" transform="translate(0 -54.127)" fill="#383a45"/>
        <path id="Path_1274371" data-name="Path 1274371" d="M163.967,450.481l.08-1.148c.011-.145,1.219-14.694,18.4-23.992l.318.588c-14.02,7.588-17.2,18.674-17.876,22.275,5.54-6.285,22.559-17.057,23.319-17.536l.356.565c-.195.123-19.511,12.347-23.913,18.322Z" transform="translate(-4.089 -84.806)" fill="#547984"/>
        <path id="Path_1274372" data-name="Path 1274372" d="M205.046,416.554c-8.565-18.213-13.633-40.759-13.684-40.985l.652-.145c.05.225,5.1,22.7,13.637,40.846Z" transform="translate(-13.173 -68.254)" fill="#547984"/>
        <path id="Path_1274373" data-name="Path 1274373" d="M255.631,439.63s-51.3,28.132-69.985,29.509-21.059-19.685-21.059-19.685,23.238-11.63,35.423-16.93c0,0,27.453-7.83,58.028-6.792C258.037,425.733,261.862,434.442,255.631,439.63Z" transform="translate(-4.294 -84.904)" fill="#f6bc9f"/>
        <path id="Path_1274374" data-name="Path 1274374" d="M186.566,444.649s-17.1,7.681-16.185,15.312,5.8,15.665,20.451,11.578,56.088-27.622,66.654-28.015l.55,2.049s-22.8,10.858-33.135,15.518-51.776,35.151-60.316-5.706C164.586,455.387,168.263,453.8,186.566,444.649Z" transform="translate(-4.294 -90.836)" fill="#e9946f"/>
        <g id="Group_1190148" data-name="Group 1190148" transform="translate(226.059 242.889)">
          <g id="Group_1190147" data-name="Group 1190147" transform="translate(0 0)">
            <path id="Path_1274375" data-name="Path 1274375" d="M302.2,305.278s-13.125-22.827-19.183-25.341-20.041,2.7-20.041,2.7l1.843,4.673s17.87-8.79,21.086,4.7c0,0-10.168-2.432-14.565,2.452-4.583,5.091-4.282,12.981-4.282,12.981l5.4,1.1s-1.986-12.319,10.127-12.783c0,0-10.254,1.191-7.662,14.833l4.788,1.35s-1.566-13.823,6.8-13.39c0,0-8.874,2.353-4.1,13.611l4.433-.4s-3.682-8.259,1.221-9.681c0,0-.652,9.681,6.012,15.379,0,0-2.851,25.736-4.163,42.107-1.618,20.2-10.637,72.864,29.564,50.136h0S313.618,323.89,302.2,305.278Z" transform="translate(-262.98 -279.252)" fill="#f6bc9f"/>
            <path id="Path_1274376" data-name="Path 1274376" d="M266.119,288.046l-.305-.594a14.1,14.1,0,0,0,3.438-2.239A16.747,16.747,0,0,0,265,284.9l-.011-.668c3.077-.053,4.738.218,4.93.8C269.993,285.249,270.221,285.933,266.119,288.046Z" transform="translate(-263.646 -280.9)" fill="#383a45"/>
            <rect id="Rectangle_411300" data-name="Rectangle 411300" width="0.668" height="3.492" transform="translate(11.436 0.718) rotate(-5.826)" fill="#383a45"/>
            <rect id="Rectangle_411301" data-name="Rectangle 411301" width="0.669" height="3.839" transform="translate(12.923 0.709) rotate(-4.232)" fill="#383a45"/>
            <rect id="Rectangle_411302" data-name="Rectangle 411302" width="3.492" height="0.668" transform="translate(14.484 4.124) rotate(-84.167)" fill="#383a45"/>
            <path id="Path_1274377" data-name="Path 1274377" d="M273.836,318.131l-.668-.019c.053-1.773-.117-4.786-.8-5.33-.4.055-1.152,2.166-1.589,4.411l-.656-.128c.207-1.059.961-4.546,1.993-4.925a.67.67,0,0,1,.67.121C273.925,313.168,273.86,317.31,273.836,318.131Z" transform="translate(-265.349 -290.143)" fill="#383a45"/>
            <path id="Path_1274378" data-name="Path 1274378" d="M284.615,323.319l-.668-.012c.027-1.527-.24-3.877-.894-4.069a.158.158,0,0,0-.153.027c-.459.33-.725,2.077-.765,3.21l-.668-.025c.019-.511.156-3.089,1.043-3.728a.816.816,0,0,1,.732-.126C284.621,319,284.627,322.6,284.615,323.319Z" transform="translate(-269.11 -292.287)" fill="#383a45"/>
            <path id="Path_1274379" data-name="Path 1274379" d="M292.691,325.157c-.1-1.727-.041-3.825.795-4.015.465-.1,1.061.2,2.242,3.092l-.619.253c-1.023-2.507-1.458-2.68-1.505-2.692a8.632,8.632,0,0,0-.246,3.324Z" transform="translate(-272.82 -293.137)" fill="#383a45"/>
            <path id="Path_1274380" data-name="Path 1274380" d="M280.789,303.687a16.475,16.475,0,0,0-1.458-2.174l.526-.412a16.844,16.844,0,0,1,1.537,2.3Z" transform="translate(-268.402 -286.497)" fill="#383a45"/>
            <path id="Path_1274381" data-name="Path 1274381" d="M278.958,304.475a7.667,7.667,0,0,0-1.726-1.924l.442-.5c.417.367,1.789,1.616,1.937,2.281Z" transform="translate(-267.706 -286.812)" fill="#383a45"/>
            <path id="Path_1274382" data-name="Path 1274382" d="M287.837,309.708a16.543,16.543,0,0,0-2.5-.793l.155-.65a16.872,16.872,0,0,1,2.637.843Z" transform="translate(-270.395 -288.873)" fill="#383a45"/>
            <path id="Path_1274383" data-name="Path 1274383" d="M286.924,311.491a7.7,7.7,0,0,0-2.549-.43l.033-.667a7.559,7.559,0,0,1,2.936.577Z" transform="translate(-270.074 -289.579)" fill="#383a45"/>
            <path id="Path_1274384" data-name="Path 1274384" d="M295.444,313.575a14.5,14.5,0,0,0-2.317-.567l.108-.659a14.651,14.651,0,0,1,2.471.612Z" transform="translate(-272.977 -290.227)" fill="#383a45"/>
            <path id="Path_1274385" data-name="Path 1274385" d="M294.439,315.273a7.273,7.273,0,0,0-2.375-.22l-.013-.668a6.869,6.869,0,0,1,2.791.356Z" transform="translate(-272.62 -290.901)" fill="#383a45"/>
          </g>
          <path id="Path_1274386" data-name="Path 1274386" d="M305.718,347.105s-7.7,72.17,2.8,81.235,23.094,0,23.094,0l.285,3.865s-22.953,18.065-29.824-6.3C296.79,407.195,305.718,347.105,305.718,347.105Z" transform="translate(-275.388 -301.752)" fill="#e9946f"/>
        </g>
      </g>
    </g>
  </g>
</svg>
