<svg xmlns="http://www.w3.org/2000/svg" xmlns:xlink="http://www.w3.org/1999/xlink" width="118" height="118" viewBox="0 0 118 118">
  <defs>
    <filter id="Ellipse_12115" x="0" y="0" width="118" height="118" filterUnits="userSpaceOnUse">
      <feOffset dy="3" input="SourceAlpha"/>
      <feGaussianBlur stdDeviation="3" result="blur"/>
      <feFlood flood-opacity="0.161"/>
      <feComposite operator="in" in2="blur"/>
      <feComposite in="SourceGraphic"/>
    </filter>
  </defs>
  <g id="Group_1190276" data-name="Group 1190276" transform="translate(-1161.051 -3271)">
    <g id="Group_1184522" data-name="Group 1184522" transform="translate(415.27 -575)">
      <g id="Group_1181949" data-name="Group 1181949" transform="translate(-54 1303)">
        <g transform="matrix(1, 0, 0, 1, 799.78, 2543)" filter="url(#Ellipse_12115)">
          <circle id="Ellipse_12115-2" data-name="Ellipse 12115" cx="50" cy="50" r="50" transform="translate(9 6)" fill="#00ce3b"/>
        </g>
      </g>
    </g>
    <g id="Group_1190275" data-name="Group 1190275" transform="translate(1174.517 3294)">
      <g id="Group_1190273" data-name="Group 1190273" transform="translate(16.473 0.939)">
        <g id="Group_1190272" data-name="Group 1190272" transform="translate(0)">
          <g id="Group_1190262" data-name="Group 1190262" transform="translate(0 7.485)">
            <path id="Path_1275803" data-name="Path 1275803" d="M23.034,67.284v47.542a3.13,3.13,0,0,0,3.13,3.13H69.691a3.13,3.13,0,0,0,3.13-3.13V67.284Z" transform="translate(-23.034 -67.284)" fill="#f5f8f9"/>
          </g>
          <g id="Group_1190263" data-name="Group 1190263" transform="translate(0 7.485)">
            <path id="Path_1275804" data-name="Path 1275804" d="M67.813,67.284v42.534a3.13,3.13,0,0,1-3.13,3.13H23.034v1.878a3.13,3.13,0,0,0,3.13,3.13H69.691a3.13,3.13,0,0,0,3.13-3.13V67.284Z" transform="translate(-23.034 -67.284)" fill="#e8edf2"/>
          </g>
          <g id="Group_1190269" data-name="Group 1190269" transform="translate(30.584 34.474)">
            <g id="Group_1190264" data-name="Group 1190264">
              <circle id="Ellipse_12288" data-name="Ellipse 12288" cx="13.875" cy="13.875" r="13.875" fill="#0593fc"/>
            </g>
            <g id="Group_1190265" data-name="Group 1190265" transform="translate(3.266 1.178)">
              <path id="Path_1275805" data-name="Path 1275805" d="M309.612,292.26A13.877,13.877,0,0,1,293.4,313.9a13.876,13.876,0,1,0,16.211-21.638Z" transform="translate(-293.401 -292.26)" fill="#0182fc"/>
            </g>
            <g id="Group_1190266" data-name="Group 1190266" transform="translate(5.645 8.149)">
              <path id="Path_1275806" data-name="Path 1275806" d="M319.421,359.429a2.041,2.041,0,0,1-1.448-.6l-5.369-5.369a.68.68,0,0,1,0-.962l1.934-1.934a.68.68,0,0,1,.962,0l3.921,3.921,6.349-6.349a.68.68,0,0,1,.962,0l1.934,1.934a.68.68,0,0,1,0,.962l-7.8,7.8A2.043,2.043,0,0,1,319.421,359.429Z" transform="translate(-312.405 -347.937)" fill="#fff"/>
            </g>
            <g id="Group_1190268" data-name="Group 1190268" transform="translate(11.264 9.364)">
              <g id="Group_1190267" data-name="Group 1190267">
                <path id="Path_1275807" data-name="Path 1275807" d="M367.008,357.639l-9.724,9.724a2.043,2.043,0,0,0,2.845-.046l7.8-7.8a.68.68,0,0,0,0-.962Z" transform="translate(-357.284 -357.639)" fill="#f5f8f9"/>
              </g>
            </g>
          </g>
          <g id="Group_1190270" data-name="Group 1190270" transform="translate(0.017)">
            <path id="Path_1275808" data-name="Path 1275808" d="M69.812,7.5H26.3a3.13,3.13,0,0,0-3.13,3.13v4.48h49.77V10.63a3.13,3.13,0,0,0-3.13-3.13Z" transform="translate(-23.172 -7.5)" fill="#ffe177"/>
          </g>
          <g id="Group_1190271" data-name="Group 1190271" transform="translate(0.017)">
            <path id="Path_1275809" data-name="Path 1275809" d="M69.812,7.5H67.934v2.6a1.252,1.252,0,0,1-1.252,1.252H23.172V15.11h49.77V10.63a3.13,3.13,0,0,0-3.13-3.13Z" transform="translate(-23.172 -7.5)" fill="#ffd15b"/>
          </g>
        </g>
      </g>
      <g id="Group_1190274" data-name="Group 1190274" transform="translate(15.534 0)">
        <path id="Path_1275810" data-name="Path 1275810" d="M77.239,342.808a2.822,2.822,0,0,0-2.764,2.272.939.939,0,0,0,1.843.362.939.939,0,1,1,.921,1.122.939.939,0,0,0,0,1.878.939.939,0,1,1-.93,1.071.971.971,0,0,1-.009-.132.939.939,0,0,0-1.878,0,2.861,2.861,0,0,0,.027.392,2.817,2.817,0,1,0,4.887-2.27,2.815,2.815,0,0,0-2.1-4.695Z" transform="translate(-67.049 -299.889)"/>
        <path id="Path_1275811" data-name="Path 1275811" d="M80.274,116.1a.939.939,0,0,0,.939-.939v-7.512a.939.939,0,0,0-.939-.939H78.668a.939.939,0,0,0,0,1.878h.667v6.573A.939.939,0,0,0,80.274,116.1Z" transform="translate(-69.942 -93.35)"/>
        <path id="Path_1275812" data-name="Path 1275812" d="M149.063,114.038h25.263a.939.939,0,0,0,0-1.878H149.063a.939.939,0,0,0,0,1.878Z" transform="translate(-131.524 -98.118)"/>
        <path id="Path_1275813" data-name="Path 1275813" d="M149.063,163.139h25.263a.939.939,0,0,0,0-1.878H149.063a.939.939,0,1,0,0,1.878Z" transform="translate(-131.524 -141.071)"/>
        <path id="Path_1275814" data-name="Path 1275814" d="M149.063,350.773h11.166a.939.939,0,0,0,0-1.878H149.063a.939.939,0,0,0,0,1.878Z" transform="translate(-131.524 -305.214)"/>
        <path id="Path_1275815" data-name="Path 1275815" d="M149.063,399.874h9.887a.939.939,0,0,0,0-1.878h-9.887a.939.939,0,0,0,0,1.878Z" transform="translate(-131.524 -348.167)"/>
        <path id="Path_1275816" data-name="Path 1275816" d="M149.063,231.875h25.263a.939.939,0,1,0,0-1.878H149.063a.939.939,0,1,0,0,1.878Z" transform="translate(-131.524 -201.202)"/>
        <path id="Path_1275817" data-name="Path 1275817" d="M149.063,280.977h15a.939.939,0,1,0,0-1.878h-15a.939.939,0,0,0,0,1.878Z" transform="translate(-131.524 -244.156)"/>
        <path id="Path_1275818" data-name="Path 1275818" d="M73.867,228.46a.939.939,0,0,0,1.1-.74.947.947,0,0,1,1.873.135l-.021.164a4.062,4.062,0,0,1-.628,1.232c-1.166,1.666-1.861,2.576-2.235,3.065-.469.614-.7.923-.547,1.437a.972.972,0,0,0,.631.64,6.076,6.076,0,0,0,1.687.079c.564,0,1.329-.006,2.376-.019a.939.939,0,0,0-.024-1.878c-.666.008-1.37.014-1.979.016.4-.536.931-1.268,1.628-2.264a5.7,5.7,0,0,0,.929-1.926.9.9,0,0,0,.017-.093l.036-.285a.921.921,0,0,0,.008-.119,2.825,2.825,0,0,0-5.6-.546A.94.94,0,0,0,73.867,228.46Z" transform="translate(-65.901 -196.9)"/>
        <path id="Path_1275819" data-name="Path 1275819" d="M310.753,352.932a2.986,2.986,0,0,0,4.224,0l7.8-7.8a1.619,1.619,0,0,0,0-2.29l-1.934-1.934a1.619,1.619,0,0,0-2.29,0l-5.685,5.686-3.257-3.257a1.621,1.621,0,0,0-2.29,0l-1.934,1.934a1.621,1.621,0,0,0,0,2.29Zm-2.29-8.081,3.738,3.738a.939.939,0,0,0,1.328,0l6.166-6.166,1.568,1.568-7.614,7.614a1.109,1.109,0,0,1-1.568,0l-5.186-5.186Z" transform="translate(-268.681 -297.815)"/>
        <path id="Path_1275820" data-name="Path 1275820" d="M67.2,35.867V4.069A4.074,4.074,0,0,0,63.13,0H58.209a.939.939,0,0,0,0,1.878H63.13a2.194,2.194,0,0,1,2.191,2.191V7.61H17.429V4.069A2.194,2.194,0,0,1,19.62,1.878H53.827a.939.939,0,1,0,0-1.878H19.62a4.074,4.074,0,0,0-4.069,4.069l0,25.77a.939.939,0,0,0,.939.939h0a.939.939,0,0,0,.939-.939l0-20.351H65.321V35.137A14.827,14.827,0,0,0,52.352,37.21a.939.939,0,1,0,1.089,1.53A12.94,12.94,0,1,1,50.525,41.6a.939.939,0,1,0-1.51-1.117,14.8,14.8,0,0,0,.058,17.67H19.6a2.193,2.193,0,0,1-2.191-2.19l.012-21.745a.939.939,0,0,0-.938-.939h0a.939.939,0,0,0-.939.938l-.012,21.746A4.074,4.074,0,0,0,19.6,60.035H50.747A14.81,14.81,0,1,0,67.2,35.867Z" transform="translate(-15.534 0)"/>
      </g>
    </g>
  </g>
</svg>
