<svg xmlns="http://www.w3.org/2000/svg" width="315" height="272.185" viewBox="0 0 315 272.185">
  <g id="Group_1190564" data-name="Group 1190564" transform="translate(-285.051 -6894.815)">
    <rect id="Rectangle_411391" data-name="Rectangle 411391" width="315" height="204" rx="10" transform="translate(285.051 6924)" fill="#ebd4c3"/>
    <g id="Group_1190558" data-name="Group 1190558" transform="translate(216.424 6797.775)">
      <g id="Group_1190557" data-name="Group 1190557" transform="translate(87.127 97.04)">
        <g id="Group_1190464" data-name="Group 1190464" transform="translate(4.653 103.273)">
          <path id="Path_1278616" data-name="Path 1278616" d="M221.759,277.445H99.6c-10.08-24.8-22.237-72.42-11.529-82.727,11.465-11.036,29.357-24.756,37.289-30.711,2.508-1.883,4.019-2.989,4.019-2.989l36.247-7.8s.145.036.422.094c.679.159,2.152.505,4.16,1.025,1.529.393,3.371.885,5.411,1.47,12.375,3.536,32.185,10.413,35.089,18.837C213.91,183.928,219.274,246.618,221.759,277.445Z" transform="translate(-83.907 -148.068)" fill="#2699fd"/>
          <path id="Path_1278617" data-name="Path 1278617" d="M179.937,277.445H147.821a223.02,223.02,0,0,0-5.143-23.57c-.175-.656-.354-1.319-.538-1.982-9.483-34.4-25.991-72.825-32.714-87.886,2.508-1.883,4.019-2.989,4.019-2.989l36.247-7.8s1.759.39,4.583,1.119c8.616,18.081,14.488,42,18.431,64.249q.256,1.435.5,2.865C177.4,245.994,179.27,268.082,179.937,277.445Z" transform="translate(-67.972 -148.068)" fill="#fff"/>
          <g id="Group_1190453" data-name="Group 1190453" transform="translate(74.168 70.517)">
            <g id="Group_1190452" data-name="Group 1190452">
              <g id="Group_1190451" data-name="Group 1190451">
                <g id="Group_1190450" data-name="Group 1190450">
                  <g id="Group_1190449" data-name="Group 1190449">
                    <g id="Group_1190448" data-name="Group 1190448">
                      <path id="Path_1278618" data-name="Path 1278618" d="M160.63,196.324c-6.168,9.654-16.394,22.963-30.528,32.424-.175-.656-.354-1.319-.538-1.982,14.488-9.867,24.748-23.85,30.565-33.307Q160.386,194.893,160.63,196.324Z" transform="translate(-129.565 -193.458)" fill="#ebd4c3"/>
                    </g>
                  </g>
                </g>
              </g>
            </g>
          </g>
          <path id="Path_1278619" data-name="Path 1278619" d="M166.767,279.424H158.8c1.308-10.811,2.747-48.387-23.637-124.134q-.872-2.5-1.782-5.057s8.851-2.063,11.353,7.552C144.73,157.785,172.046,233.742,166.767,279.424Z" transform="translate(-53.016 -150.048)" fill="#2774d7"/>
          <g id="Group_1190458" data-name="Group 1190458" transform="translate(53.094 14.661)">
            <g id="Group_1190457" data-name="Group 1190457">
              <g id="Group_1190456" data-name="Group 1190456">
                <g id="Group_1190455" data-name="Group 1190455">
                  <g id="Group_1190454" data-name="Group 1190454">
                    <path id="Path_1278620" data-name="Path 1278620" d="M117.684,178.285a1.041,1.041,0,0,1-.169-2.074c23.039-2.628,28.676-16.338,28.73-16.477a1.042,1.042,0,0,1,1.943.754c-.237.611-6.067,15.011-30.437,17.791C117.728,178.282,117.706,178.284,117.684,178.285Z" transform="translate(-116.592 -159.073)" fill="#ebd4c3"/>
                  </g>
                </g>
              </g>
            </g>
          </g>
          <g id="Group_1190463" data-name="Group 1190463" transform="translate(62.827 28.917)">
            <g id="Group_1190462" data-name="Group 1190462">
              <g id="Group_1190461" data-name="Group 1190461">
                <g id="Group_1190460" data-name="Group 1190460">
                  <g id="Group_1190459" data-name="Group 1190459">
                    <path id="Path_1278621" data-name="Path 1278621" d="M123.676,178.416a1.042,1.042,0,0,1-.188-2.073c12.692-1.694,15.84-7.849,15.871-7.911a1.041,1.041,0,0,1,1.87.915c-.143.294-3.679,7.221-17.466,9.061C123.735,178.411,123.705,178.414,123.676,178.416Z" transform="translate(-122.583 -167.849)" fill="#ebd4c3"/>
                  </g>
                </g>
              </g>
            </g>
          </g>
        </g>
        <g id="Group_1190550" data-name="Group 1190550" transform="translate(5.162)">
          <g id="Group_1190467" data-name="Group 1190467" transform="translate(0 58.941)">
            <g id="Group_1190466" data-name="Group 1190466">
              <g id="Group_1190465" data-name="Group 1190465">
                <path id="Path_1278622" data-name="Path 1278622" d="M97.727,123.17S81.2,142.9,84.709,149.674s33.754,2.991,39.506-3.887S108.991,119.713,97.727,123.17Z" transform="translate(-84.22 -122.757)" fill="#d01c28"/>
              </g>
            </g>
          </g>
          <g id="Group_1190474" data-name="Group 1190474" transform="translate(40.188 85.858)">
            <g id="Group_1190470" data-name="Group 1190470">
              <g id="Group_1190469" data-name="Group 1190469">
                <g id="Group_1190468" data-name="Group 1190468">
                  <path id="Path_1278623" data-name="Path 1278623" d="M140.914,173.186c-12.58,4.431-27.177-3.5-27.177-3.5a81.129,81.129,0,0,0-3.008-24.659c-.963-3.465-1.769-5.705-1.769-5.705l36.7,6.8,3.475,12.666.85,3.1S151.435,169.48,140.914,173.186Z" transform="translate(-108.96 -139.327)" fill="#fda66f"/>
                </g>
              </g>
            </g>
            <g id="Group_1190473" data-name="Group 1190473">
              <g id="Group_1190472" data-name="Group 1190472">
                <g id="Group_1190471" data-name="Group 1190471">
                  <path id="Path_1278624" data-name="Path 1278624" d="M149.134,158.794c-17.675,1.849-32.735-9.025-38.928-15.578a22.408,22.408,0,0,0-1.246-3.889l36.7,6.8Z" transform="translate(-108.96 -139.327)" fill="#291c2a"/>
                </g>
              </g>
            </g>
          </g>
          <g id="Group_1190477" data-name="Group 1190477" transform="translate(83.791 29.206)">
            <g id="Group_1190476" data-name="Group 1190476">
              <g id="Group_1190475" data-name="Group 1190475">
                <path id="Path_1278625" data-name="Path 1278625" d="M135.8,113.81s.668-9.079,9.375-9.357,16.62,34.113-4.446,36.371Z" transform="translate(-135.802 -104.452)" fill="#fc804d"/>
              </g>
            </g>
          </g>
          <g id="Group_1190480" data-name="Group 1190480" transform="translate(13.506 2.26)">
            <g id="Group_1190479" data-name="Group 1190479">
              <g id="Group_1190478" data-name="Group 1190478">
                <path id="Path_1278626" data-name="Path 1278626" d="M175.644,151.808c-.047,17.2-8.4,31.145-26.514,32.3-39.566,2.51-54.91-50.927-54.91-50.927-7.714-27.6,12.031-45.508,39.483-45.313s33.016,16.6,36.936,29.405a129.6,129.6,0,0,1,4.1,20.291c.167,1.384.327,2.8.452,4.232.159,1.758.284,3.541.364,5.341C175.618,148.682,175.655,150.245,175.644,151.808Z" transform="translate(-92.535 -87.864)" fill="#fda66f"/>
              </g>
            </g>
          </g>
          <g id="Group_1190483" data-name="Group 1190483" transform="translate(16.375 34.045)">
            <g id="Group_1190482" data-name="Group 1190482">
              <g id="Group_1190481" data-name="Group 1190481">
                <path id="Path_1278627" data-name="Path 1278627" d="M94.3,124.528a15.634,15.634,0,0,1,8.8,3.973s4.521,13.764,10.4,11.52-.365-11.582,1.464-16.212c1.148-2.906,4.625-8.484,2.96-16.379C117.92,107.431,99.4,113.909,94.3,124.528Z" transform="translate(-94.301 -107.431)" fill="#291c2a"/>
              </g>
            </g>
          </g>
          <g id="Group_1190486" data-name="Group 1190486" transform="translate(84.949 27.731)">
            <g id="Group_1190485" data-name="Group 1190485">
              <g id="Group_1190484" data-name="Group 1190484">
                <path id="Path_1278628" data-name="Path 1278628" d="M136.515,103.544a16.637,16.637,0,0,0,4.61,7.3A13.748,13.748,0,0,1,145.1,116.8l.916,2.82s-.606-12.219-4.089-16.077Z" transform="translate(-136.515 -103.544)" fill="#291c2a"/>
              </g>
            </g>
          </g>
          <g id="Group_1190489" data-name="Group 1190489" transform="translate(62.373 69.338)">
            <g id="Group_1190488" data-name="Group 1190488">
              <g id="Group_1190487" data-name="Group 1190487">
                <path id="Path_1278629" data-name="Path 1278629" d="M122.617,134.722s15.414-2.206,23.59-5.565c0,0,2.872,10.239-10.348,12.389C124.925,143.327,122.617,134.722,122.617,134.722Z" transform="translate(-122.617 -129.157)" fill="#fff"/>
              </g>
            </g>
          </g>
          <g id="Group_1190492" data-name="Group 1190492" transform="translate(37.972 57.916)">
            <g id="Group_1190491" data-name="Group 1190491">
              <g id="Group_1190490" data-name="Group 1190490">
                <path id="Path_1278630" data-name="Path 1278630" d="M122.666,123.3c.258,1.246-2.9,2.956-7.058,3.821s-7.737.559-8-.686,2.9-2.956,7.058-3.822S122.406,122.059,122.666,123.3Z" transform="translate(-107.596 -122.126)" fill="#fc804d"/>
              </g>
            </g>
          </g>
          <g id="Group_1190495" data-name="Group 1190495" transform="translate(85.423 51.958)">
            <g id="Group_1190494" data-name="Group 1190494">
              <g id="Group_1190493" data-name="Group 1190493">
                <path id="Path_1278631" data-name="Path 1278631" d="M147.541,122.69a25.715,25.715,0,0,1-2.721.726c-4.157.863-7.74.559-8-.689s2.9-2.953,7.058-3.821a22.94,22.94,0,0,1,3.21-.448C147.257,119.842,147.416,121.254,147.541,122.69Z" transform="translate(-136.807 -118.458)" fill="#fc804d"/>
              </g>
            </g>
          </g>
          <g id="Group_1190498" data-name="Group 1190498" transform="translate(52.119 48.182)">
            <g id="Group_1190497" data-name="Group 1190497">
              <g id="Group_1190496" data-name="Group 1190496">
                <path id="Path_1278632" data-name="Path 1278632" d="M120.865,119.74c.465,2.232-.145,4.245-1.361,4.5s-2.578-1.35-3.043-3.58.145-4.245,1.361-4.5S120.4,117.51,120.865,119.74Z" transform="translate(-116.305 -116.134)" fill="#291c2a"/>
              </g>
            </g>
          </g>
          <g id="Group_1190501" data-name="Group 1190501" transform="translate(79.999 43.852)">
            <g id="Group_1190500" data-name="Group 1190500">
              <g id="Group_1190499" data-name="Group 1190499">
                <path id="Path_1278633" data-name="Path 1278633" d="M138.028,117.074c.465,2.23-.145,4.243-1.361,4.5s-2.578-1.35-3.043-3.58.145-4.243,1.361-4.5S137.565,114.844,138.028,117.074Z" transform="translate(-133.468 -113.468)" fill="#291c2a"/>
              </g>
            </g>
          </g>
          <g id="Group_1190505" data-name="Group 1190505" transform="translate(42.891 37.33)">
            <g id="Group_1190504" data-name="Group 1190504">
              <g id="Group_1190503" data-name="Group 1190503">
                <g id="Group_1190502" data-name="Group 1190502">
                  <path id="Path_1278634" data-name="Path 1278634" d="M112.728,116.888a2.105,2.105,0,0,1-1.584-3.491,12.288,12.288,0,0,1,6.179-3.489,17.122,17.122,0,0,1,3.038-.452,2.649,2.649,0,0,1,2.4,3.955l-.232.413a.465.465,0,0,0,.086.045c-.015,0-1.339-.569-4.326.135a8.257,8.257,0,0,0-3.975,2.162A2.1,2.1,0,0,1,112.728,116.888Z" transform="translate(-110.624 -109.453)" fill="#291c2a"/>
                </g>
              </g>
            </g>
          </g>
          <g id="Group_1190509" data-name="Group 1190509" transform="translate(74.839 32.284)">
            <g id="Group_1190508" data-name="Group 1190508">
              <g id="Group_1190507" data-name="Group 1190507">
                <g id="Group_1190506" data-name="Group 1190506">
                  <path id="Path_1278635" data-name="Path 1278635" d="M132.4,113.308a2.1,2.1,0,0,1-1.548-3.523,11.5,11.5,0,0,1,5.828-3.09,15.57,15.57,0,0,1,2.937-.348,2.419,2.419,0,0,1,2.1,3.665l-.422.711a.665.665,0,0,0,.094.052c-.011-.006-1.171-.518-3.842.039a7.6,7.6,0,0,0-3.616,1.845A2.116,2.116,0,0,1,132.4,113.308Z" transform="translate(-130.291 -106.347)" fill="#291c2a"/>
                </g>
              </g>
            </g>
          </g>
          <g id="Group_1190526" data-name="Group 1190526" transform="translate(19.965 32.341)">
            <g id="Group_1190512" data-name="Group 1190512" transform="translate(19.495 8.871)">
              <g id="Group_1190511" data-name="Group 1190511">
                <g id="Group_1190510" data-name="Group 1190510">
                  <path id="Path_1278636" data-name="Path 1278636" d="M123.437,141.75a14.985,14.985,0,1,1,1.506-.075Q124.188,141.751,123.437,141.75Zm.052-28.332a13.378,13.378,0,1,0,13.288,12.056h0a13.382,13.382,0,0,0-13.288-12.056Z" transform="translate(-108.512 -111.843)" fill="#fff"/>
                </g>
              </g>
            </g>
            <g id="Group_1190515" data-name="Group 1190515" transform="translate(52.126 2.801)">
              <g id="Group_1190514" data-name="Group 1190514">
                <g id="Group_1190513" data-name="Group 1190513">
                  <path id="Path_1278637" data-name="Path 1278637" d="M142.709,136.377A14.135,14.135,0,1,1,156.8,120.845h0a14.151,14.151,0,0,1-12.669,15.461Q143.418,136.377,142.709,136.377Zm.036-26.7A12.561,12.561,0,1,0,155.233,121h0A12.579,12.579,0,0,0,142.744,109.68Z" transform="translate(-128.599 -108.106)" fill="#fff"/>
                </g>
              </g>
            </g>
            <g id="Group_1190519" data-name="Group 1190519" transform="translate(72.234)">
              <g id="Group_1190518" data-name="Group 1190518">
                <g id="Group_1190517" data-name="Group 1190517">
                  <g id="Group_1190516" data-name="Group 1190516">
                    <path id="Path_1278638" data-name="Path 1278638" d="M146.426,117.306a.873.873,0,0,1-.3.083,1.058,1.058,0,0,1-1.074-.638,39.693,39.693,0,0,0-3.5-6.14c-.179-1.49-.374-2.9-.569-4.228a41.822,41.822,0,0,1,6.01,9.547A1.047,1.047,0,0,1,146.426,117.306Z" transform="translate(-140.978 -106.382)" fill="#fff"/>
                  </g>
                </g>
              </g>
            </g>
            <g id="Group_1190522" data-name="Group 1190522" transform="translate(46.757 16.692)">
              <g id="Group_1190521" data-name="Group 1190521">
                <g id="Group_1190520" data-name="Group 1190520">
                  <path id="Path_1278639" data-name="Path 1278639" d="M126.343,120.112a1.048,1.048,0,0,1-.786-1.741,5.751,5.751,0,0,1,6.249-1.311,1.051,1.051,0,0,1-.711,1.977,3.682,3.682,0,0,0-3.973.734A1.055,1.055,0,0,1,126.343,120.112Z" transform="translate(-125.295 -116.658)" fill="#fff"/>
                </g>
              </g>
            </g>
            <g id="Group_1190525" data-name="Group 1190525" transform="translate(0 17.741)">
              <g id="Group_1190524" data-name="Group 1190524">
                <g id="Group_1190523" data-name="Group 1190523">
                  <path id="Path_1278640" data-name="Path 1278640" d="M97.562,121.3a1.051,1.051,0,0,1-.487-1.982c8.476-4.42,19.66-.231,20.131-.05a1.05,1.05,0,0,1-.749,1.962c-.109-.041-10.781-4.029-18.411-.05A1.046,1.046,0,0,1,97.562,121.3Z" transform="translate(-96.511 -117.303)" fill="#fff"/>
                </g>
              </g>
            </g>
          </g>
          <g id="Group_1190529" data-name="Group 1190529" transform="translate(69.931 51.818)">
            <g id="Group_1190528" data-name="Group 1190528">
              <g id="Group_1190527" data-name="Group 1190527">
                <path id="Path_1278641" data-name="Path 1278641" d="M129.112,133.445a1.312,1.312,0,0,1-.309-2.588,28.2,28.2,0,0,0,2.739-.807,85.124,85.124,0,0,0-4.134-9.777,1.313,1.313,0,0,1,2.347-1.176,77.8,77.8,0,0,1,4.656,11.4,1.314,1.314,0,0,1-.72,1.533,25.681,25.681,0,0,1-4.267,1.381A1.288,1.288,0,0,1,129.112,133.445Z" transform="translate(-127.27 -118.372)" fill="#fc804d"/>
              </g>
            </g>
          </g>
          <g id="Group_1190539" data-name="Group 1190539" transform="translate(10.14 51.302)">
            <g id="Group_1190532" data-name="Group 1190532">
              <g id="Group_1190531" data-name="Group 1190531">
                <g id="Group_1190530" data-name="Group 1190530">
                  <path id="Path_1278642" data-name="Path 1278642" d="M105.5,121.868s-5.867-6.961-13.082-2.076,6.563,37.375,24.943,26.842Z" transform="translate(-90.463 -118.054)" fill="#fda66f"/>
                </g>
              </g>
            </g>
            <g id="Group_1190535" data-name="Group 1190535" transform="translate(4.189 5.703)">
              <g id="Group_1190534" data-name="Group 1190534">
                <g id="Group_1190533" data-name="Group 1190533">
                  <path id="Path_1278643" data-name="Path 1278643" d="M105.11,137.135a1.314,1.314,0,0,1-1.288-1.067A15.788,15.788,0,0,0,93.96,124.13a1.313,1.313,0,0,1,.788-2.5A18.256,18.256,0,0,1,106.4,135.578a1.315,1.315,0,0,1-1.044,1.535A1.422,1.422,0,0,1,105.11,137.135Z" transform="translate(-93.041 -121.565)" fill="#fc804d"/>
                </g>
              </g>
            </g>
            <g id="Group_1190538" data-name="Group 1190538" transform="translate(6.515 12.379)">
              <g id="Group_1190537" data-name="Group 1190537">
                <g id="Group_1190536" data-name="Group 1190536">
                  <path id="Path_1278644" data-name="Path 1278644" d="M95.787,129.785a1.313,1.313,0,0,1-.692-2.429c.411-.255,4.1-2.456,7.209-1.4a1.313,1.313,0,0,1-.85,2.484c-1.647-.564-4.211.668-4.977,1.144A1.311,1.311,0,0,1,95.787,129.785Z" transform="translate(-94.473 -125.674)" fill="#fc804d"/>
                </g>
              </g>
            </g>
          </g>
          <g id="Group_1190549" data-name="Group 1190549" transform="translate(12.947)">
            <g id="Group_1190542" data-name="Group 1190542">
              <g id="Group_1190541" data-name="Group 1190541">
                <g id="Group_1190540" data-name="Group 1190540">
                  <path id="Path_1278645" data-name="Path 1278645" d="M95.619,137.615s30.591-28.112,74.829-22.23c0,0-2.893-25.564-30.929-28.546S98.865,99.751,94.885,109.818C91.569,118.206,90.77,129.256,95.619,137.615Z" transform="translate(-92.19 -86.473)" fill="#ff3f54"/>
                </g>
              </g>
            </g>
            <g id="Group_1190545" data-name="Group 1190545" transform="translate(37.543 21.687)">
              <g id="Group_1190544" data-name="Group 1190544">
                <g id="Group_1190543" data-name="Group 1190543">
                  <path id="Path_1278646" data-name="Path 1278646" d="M115.339,104.464a5.631,5.631,0,0,0,2.779,5.406,95.739,95.739,0,0,1,23.093-3.593,7.583,7.583,0,0,0-1.672-6.2S125.948,98.236,115.339,104.464Z" transform="translate(-115.302 -99.823)" fill="#d01c28"/>
                </g>
              </g>
            </g>
            <g id="Group_1190548" data-name="Group 1190548" transform="translate(37.462 12.842)">
              <g id="Group_1190547" data-name="Group 1190547">
                <g id="Group_1190546" data-name="Group 1190546">
                  <path id="Path_1278647" data-name="Path 1278647" d="M115.371,107.864s-1.975-11.4,10.206-13.332c9.7-1.537,13.994,8.946,13.994,8.946C139.57,102.745,121.334,104.136,115.371,107.864Z" transform="translate(-115.252 -94.378)" fill="#291c2a"/>
                </g>
              </g>
            </g>
          </g>
        </g>
        <g id="Group_1190552" data-name="Group 1190552" transform="translate(126.937 125.921)">
          <path id="Path_1278648" data-name="Path 1278648" d="M208.9,240.686c-11.72-3.481-28.452-17.274-33.808-21.87-1.1-.944-1.722-1.5-1.722-1.5l13.242-28.934s1.14,1.09,3.041,2.875c5.89,5.531,19.063,17.755,28.075,24.932C230.788,226.594,223.022,244.876,208.9,240.686Z" transform="translate(-150.329 -148.758)" fill="#fda66f"/>
          <path id="Path_1278649" data-name="Path 1278649" d="M212.43,197.989v31.184a45.423,45.423,0,0,1-6.218,3.908c-9.324,4.9-11.285-24.79-11.285-24.79Z" transform="translate(-136.867 -142.76)" fill="#fda66f"/>
          <path id="Path_1278650" data-name="Path 1278650" d="M192.523,193.581l-15.552,26.875c-1.1-.944-3.6-3.138-3.6-3.138l13.242-28.934S190.621,191.794,192.523,193.581Z" transform="translate(-150.329 -148.758)" fill="#291c2a"/>
          <path id="Path_1278651" data-name="Path 1278651" d="M199.454,197.708,179.32,238.426l-6.04-5.1-2.019-1.714-3.572-3.015s-13.364-39.257-6.585-64.608Z" transform="translate(-159.185 -163.99)" fill="#2699fd"/>
          <path id="Path_1278652" data-name="Path 1278652" d="M168.112,223.341a8.648,8.648,0,0,0,5.634,3.738c7.8-12.415,15.994-26.529,22.994-39.639a12.29,12.29,0,0,0-5.063-4.25C183.372,196.481,174.87,210.856,168.112,223.341Z" transform="translate(-153.611 -152.001)" fill="#2774d7"/>
          <g id="Group_1190551" data-name="Group 1190551" transform="translate(6.852 22.853)">
            <path id="Path_1278653" data-name="Path 1278653" d="M170.646,224.542l-2.019-1.714c-.864-8.2-2.739-25.346-5.216-43.73a.92.92,0,0,1,1.824-.244C167.922,198.833,169.9,217.349,170.646,224.542Z" transform="translate(-163.403 -178.058)" fill="#2774d7"/>
          </g>
        </g>
        <path id="Path_1278654" data-name="Path 1278654" d="M153.05,281.19h-7.326s-8.4-61.985-37.737-115.682c0,0-2.109-9.682,6.421-12.885,0,0,.887,6.36,3,10.122C117.407,162.745,145.724,209.432,153.05,281.19Z" transform="translate(-64.362 -45.167)" fill="#2774d7"/>
        <g id="Group_1190554" data-name="Group 1190554" transform="translate(14.158 215.029)">
          <path id="Path_1278655" data-name="Path 1278655" d="M113.845,273.5c-8.159-4.8-16.273-22.1-21.823-36.343-.812-2.089-1.572-4.115-2.264-6.018l32.565-12.294c1.051,2.584,2.173,5.339,3.324,8.168,1.311,3.228,2.661,6.551,3.985,9.828q.724,1.781,1.431,3.532c1.2,2.974,2.357,5.856,3.434,8.54C141.92,267.44,128.371,282.038,113.845,273.5Z" transform="translate(-89.758 -218.845)" fill="#fda66f"/>
          <path id="Path_1278656" data-name="Path 1278656" d="M125.646,227.013,92.022,237.157c-.812-2.089-1.572-4.115-2.264-6.018l32.565-12.294C123.374,221.429,124.5,224.184,125.646,227.013Z" transform="translate(-89.758 -218.845)" fill="#291c2a"/>
          <path id="Path_1278657" data-name="Path 1278657" d="M100.911,255.638s19.376-19.022,41.32-25.12c35.131-9.764,51.262-10.179,58.111-5.76s3.991,7-6.186,10.887c-36.9,14.1-60.135,37.9-76.579,38.34S100.911,255.638,100.911,255.638Z" transform="translate(-82.794 -216.837)" fill="#fda66f"/>
          <path id="Path_1278658" data-name="Path 1278658" d="M118.152,233.454a22,22,0,0,0-7.718,8.356c.08-.275,2.344-7.822,6.287-11.888Q117.444,231.7,118.152,233.454Z" transform="translate(-76.847 -211.928)" fill="#291c2a"/>
          <g id="Group_1190553" data-name="Group 1190553" transform="translate(93.844 3.432)">
            <path id="Path_1278659" data-name="Path 1278659" d="M190.58,231.577H163.132c.44-.335.88-.655,1.316-.967a22.513,22.513,0,0,1,17.914-3.353C186.194,228.13,189.875,229.987,190.58,231.577Z" transform="translate(-137.786 -217.389)" fill="#fc804d"/>
            <path id="Path_1278660" data-name="Path 1278660" d="M166.618,222.82s3.821-2.247,11.616.086c5.6,1.678,16.121,6.394,20.445,7.9s1.667,4.885-6.512,3.631C182.952,233.028,166.618,222.82,166.618,222.82Z" transform="translate(-135.609 -220.403)" fill="#fc804d"/>
            <path id="Path_1278661" data-name="Path 1278661" d="M148.28,223.487s6.33-2.874,23.936-2.5c18.276.393,12.917,3.449,28.107,8.557,13.1,4.407,10.227,6.918,0,5.6s-7.588-3.564-15.273-2.43-17.911,10.43-31.01,6.728C147.825,237.688,146.446,228.871,148.28,223.487Z" transform="translate(-147.529 -220.958)" fill="#fda66f"/>
          </g>
        </g>
        <g id="Group_1190556" data-name="Group 1190556" transform="translate(0 145.858)">
          <path id="Path_1278662" data-name="Path 1278662" d="M118.876,185.149c-9.427-13.681-30.562-10.557-35.388,5.34-2.492,8.2-3.289,16.347-1.405,27.6,4.982,29.756,11.775,44.821,11.775,44.821l39.667-16.231s-2.451-43.414-14.293-61Q119.054,185.407,118.876,185.149Z" transform="translate(-81.042 -176.114)" fill="#2699fd"/>
          <path id="Path_1278663" data-name="Path 1278663" d="M86.695,232.661a8.83,8.83,0,0,0,2.42,6.36q20.6-7.69,40.892-16.923a11.977,11.977,0,0,0-1.738-6.236C113.6,221.376,99.645,226.847,86.695,232.661Z" transform="translate(-77.524 -151.537)" fill="#2774d7"/>
          <g id="Group_1190555" data-name="Group 1190555" transform="translate(25.323)">
            <path id="Path_1278664" data-name="Path 1278664" d="M122.467,235.48a.921.921,0,0,1-.911-.811C114.824,177.8,97.778,178.1,97.6,178.1a.918.918,0,0,1-.1-1.834c.767-.047,18.949-.37,25.882,58.187a.917.917,0,0,1-.8,1.02C122.54,235.477,122.5,235.48,122.467,235.48Z" transform="translate(-96.631 -176.263)" fill="#2774d7"/>
          </g>
        </g>
      </g>
    </g>
    <g id="Group_1190563" data-name="Group 1190563" transform="translate(151.752 6861.304)">
      <g id="Group_1190561" data-name="Group 1190561" transform="translate(315.721 102.359)">
        <path id="Path_1278665" data-name="Path 1278665" d="M422.769,162.323c-4.031,34.414-26.139,40.736-29.844,49.914-1.98,4.97-4.6,17.6-4.6,17.6l-35.957-.006s-2.6-12.63-4.6-17.6c-3.679-9.179-25.809-15.509-29.806-49.924-2.642-22.613,14.365-58.314,52.414-58.308S425.4,139.71,422.769,162.323Z" transform="translate(-317.695 -103.998)" fill="#ffc727"/>
        <g id="Group_1190559" data-name="Group 1190559" transform="translate(32.706 67.444)">
          <rect id="Rectangle_411449" data-name="Rectangle 411449" width="0.919" height="58.183" transform="translate(0 3.623) rotate(-10.557)" fill="#fff"/>
          <rect id="Rectangle_411450" data-name="Rectangle 411450" width="58.183" height="0.919" transform="matrix(0.184, -0.983, 0.983, 0.184, 28.333, 60.654)" fill="#fff"/>
          <path id="Path_1278666" data-name="Path 1278666" d="M373.338,199.711h0c-3.252,0-6.231-3.094-8.3-7.015a4.292,4.292,0,0,1-3.107,1.835h0c-5.2,0-7.322-10.923-7.409-11.388l.451-.085c.021.11,2.134,11.014,6.958,11.014h0a3.993,3.993,0,0,0,2.879-1.819,24.272,24.272,0,0,1-2.693-10.206c0-3.01,1.061-4.669,2.986-4.669h0a3.033,3.033,0,0,1,2.766,1.574c1.583,2.742.4,8.463-1.688,12.087a12.5,12.5,0,0,1-.809,1.235c2,3.875,4.884,6.977,7.969,6.977h0c2.316,0,4.63-1.8,6.516-5.064.18-.312.355-.632.521-.96a10.047,10.047,0,0,1-1.348-1.845c-2.194-3.8-2.652-9.428-1-12.286a3.067,3.067,0,0,1,2.71-1.714h0a2.325,2.325,0,0,1,2.07,1.281c1.548,2.682.619,9.382-1.873,14.475a5.454,5.454,0,0,0,3.888,1.678c4.142,0,7.233-10.949,7.265-11.059l.443.123c-.13.465-3.219,11.4-7.707,11.4h0a5.864,5.864,0,0,1-4.106-1.707q-.223.434-.462.848C378.859,196.833,376.526,199.711,373.338,199.711Zm7.4-21.87a2.6,2.6,0,0,0-2.312,1.484c-1.551,2.687-1.084,8.214,1,11.827a9.647,9.647,0,0,0,1.17,1.632c2.383-4.949,3.284-11.345,1.813-13.892a1.866,1.866,0,0,0-1.672-1.051Zm-15.636,0c-2.2,0-2.528,2.637-2.528,4.209a23.768,23.768,0,0,0,2.564,9.767q.327-.459.642-1.005c2.028-3.513,3.192-9.024,1.688-11.628A2.563,2.563,0,0,0,365.1,177.839Z" transform="translate(-353.38 -177.379)" fill="#fff"/>
        </g>
        <g id="Group_1190560" data-name="Group 1190560" transform="translate(30.472 124.295)">
          <rect id="Rectangle_411451" data-name="Rectangle 411451" width="44.364" height="8.67" transform="translate(0.003)" fill="#263238"/>
          <rect id="Rectangle_411452" data-name="Rectangle 411452" width="44.364" height="8.67" transform="translate(0.002 10.072)" fill="#263238"/>
          <rect id="Rectangle_411453" data-name="Rectangle 411453" width="44.364" height="8.67" transform="translate(0 20.145)" fill="#263238"/>
        </g>
        <path id="Path_1278667" data-name="Path 1278667" d="M327.087,161.329a32.328,32.328,0,0,1,.494-8.872,56.628,56.628,0,0,1,2.256-8.648,54.844,54.844,0,0,1,8.481-15.839,39.856,39.856,0,0,1,13.926-11.549,32.514,32.514,0,0,1,17.478-3.288,57.734,57.734,0,0,0-8.434,2.157,42.363,42.363,0,0,0-7.671,3.65,46.265,46.265,0,0,0-12.4,11.293,72.256,72.256,0,0,0-8.722,14.632c-1.17,2.618-2.254,5.292-3.172,8.034A50.821,50.821,0,0,0,327.087,161.329Z" transform="translate(-318.444 -104.727)" fill="#fff" opacity="0.5"/>
      </g>
      <g id="Group_1190562" data-name="Group 1190562" transform="translate(293.299 83.739)">
        <path id="Path_1278668" data-name="Path 1278668" d="M375.321,97.17a43.759,43.759,0,0,1-.46-6.716,43.287,43.287,0,0,1,.46-6.715,43.174,43.174,0,0,1,.46,6.715A43.759,43.759,0,0,1,375.321,97.17Z" transform="translate(-299.898 -83.739)" fill="#263238"/>
        <path id="Path_1278669" data-name="Path 1278669" d="M341.245,106.02a43.575,43.575,0,0,1-3.755-5.586,43.059,43.059,0,0,1-2.96-6.045,43.1,43.1,0,0,1,3.755,5.586A43.772,43.772,0,0,1,341.245,106.02Z" transform="translate(-296.635 -84.601)" fill="#263238"/>
        <path id="Path_1278670" data-name="Path 1278670" d="M316.124,130.743a49.3,49.3,0,0,1-11.632-6.715,43.168,43.168,0,0,1,6.046,2.959A43.771,43.771,0,0,1,316.124,130.743Z" transform="translate(-294.205 -86.999)" fill="#263238"/>
        <path id="Path_1278671" data-name="Path 1278671" d="M306.731,164.674a43.642,43.642,0,0,1-6.716.46,43.186,43.186,0,0,1-6.716-.46,43.186,43.186,0,0,1,6.716-.459A43.642,43.642,0,0,1,306.731,164.674Z" transform="translate(-293.299 -90.25)" fill="#263238"/>
        <path id="Path_1278672" data-name="Path 1278672" d="M315.581,198.24A43.774,43.774,0,0,1,309.995,202a43.274,43.274,0,0,1-6.046,2.96,43.171,43.171,0,0,1,5.586-3.756A43.726,43.726,0,0,1,315.581,198.24Z" transform="translate(-294.161 -93.002)" fill="#263238"/>
        <path id="Path_1278673" data-name="Path 1278673" d="M432.489,199.18a43.828,43.828,0,0,1,6.045,2.96,43.166,43.166,0,0,1,5.586,3.755,49.314,49.314,0,0,1-11.631-6.716Z" transform="translate(-304.56 -93.079)" fill="#263238"/>
        <path id="Path_1278674" data-name="Path 1278674" d="M441.724,165.76a43.746,43.746,0,0,1,6.715-.459,43.188,43.188,0,0,1,6.716.459,43.186,43.186,0,0,1-6.716.46A43.63,43.63,0,0,1,441.724,165.76Z" transform="translate(-305.307 -90.338)" fill="#263238"/>
        <path id="Path_1278675" data-name="Path 1278675" d="M433.032,131.684a49.314,49.314,0,0,1,11.631-6.716,43.169,43.169,0,0,1-5.586,3.755A43.721,43.721,0,0,1,433.032,131.684Z" transform="translate(-304.604 -87.075)" fill="#263238"/>
        <path id="Path_1278676" data-name="Path 1278676" d="M408.741,106.563a43.63,43.63,0,0,1,2.96-6.046,43.163,43.163,0,0,1,3.755-5.586,49.345,49.345,0,0,1-6.716,11.632Z" transform="translate(-302.639 -84.644)" fill="#263238"/>
      </g>
    </g>
  </g>
</svg>
