<svg xmlns="http://www.w3.org/2000/svg" width="315" height="254.809" viewBox="0 0 315 254.809">
  <g id="Group_1191172" data-name="Group 1191172" transform="translate(-915.051 -14531)">
    <rect id="Rectangle_411422" data-name="Rectangle 411422" width="315" height="229" rx="10" transform="translate(915.051 14548)" fill="#12263f"/>
    <g id="Group_1191104" data-name="Group 1191104" transform="translate(935.051 14531)">
      <g id="Group_1190909" data-name="Group 1190909" transform="translate(71.509 8.007)">
        <path id="Path_1278824" data-name="Path 1278824" d="M185.967,305.272s22.493,14.184,22.781,51.911c.209,27.493-12.864,31.014.617,48.55s26.966,17.736,33.264,37.209c8.612,26.631-12.393,45.417-33.8,56.879-30.505,16.333-47.443-45.9-79.544-39.642-30.7,5.984-34.752-10.5-33.956-24.412,1-17.538,25.273-15.723,20.49-36.654-8.363-36.594-4.53-54.666,2.584-75.521C123.683,308.11,170.686,301.988,185.967,305.272Z" transform="translate(-95.24 -304.412)" fill="#291c2a"/>
      </g>
      <g id="Group_1190915" data-name="Group 1190915" transform="translate(44.426 171.653)">
        <g id="Group_1190914" data-name="Group 1190914">
          <g id="Group_1190913" data-name="Group 1190913">
            <g id="Group_1190912" data-name="Group 1190912">
              <g id="Group_1190911" data-name="Group 1190911">
                <g id="Group_1190910" data-name="Group 1190910">
                  <path id="Path_1278825" data-name="Path 1278825" d="M200.735,469.582c-.011.028-.029.059-.047.1-.275.548-.54,1.086-.8,1.63l-.067.178a22.163,22.163,0,0,0-1.385,3.181H172.16c1.13-3.122,1.936-5.493,2.674-7.412.5-1.411,1.05-2.9,1.627-4.442,6.643-17.819,17.451-43.549,21.813-53.841,1.2-2.837,1.913-4.5,1.913-4.5,14.02.482,22.629,12.6,22.629,12.6s-1.282,3.961-3.38,10.049c-4.121,11.989-11.739,28.178-18.671,42.381A.613.613,0,0,0,200.735,469.582Z" transform="translate(-172.16 -404.477)" fill="#fda66f"/>
                </g>
              </g>
            </g>
          </g>
        </g>
      </g>
      <g id="Group_1190920" data-name="Group 1190920" transform="translate(70.54 171.655)">
        <g id="Group_1190919" data-name="Group 1190919" transform="translate(0)">
          <g id="Group_1190918" data-name="Group 1190918">
            <g id="Group_1190917" data-name="Group 1190917">
              <g id="Group_1190916" data-name="Group 1190916">
                <path id="Path_1278826" data-name="Path 1278826" d="M172.162,408.979a95.238,95.238,0,0,0,21.164,18.15c2.1-6.089,3.375-10.046,3.375-10.046s-8.607-12.122-22.627-12.6C174.074,404.478,173.361,406.143,172.162,408.979Z" transform="translate(-172.162 -404.478)" fill="#291c2a"/>
              </g>
            </g>
          </g>
        </g>
      </g>
      <g id="Group_1190925" data-name="Group 1190925" transform="translate(91.598 0)">
        <g id="Group_1190924" data-name="Group 1190924">
          <g id="Group_1190923" data-name="Group 1190923">
            <g id="Group_1190922" data-name="Group 1190922">
              <g id="Group_1190921" data-name="Group 1190921">
                <path id="Path_1278827" data-name="Path 1278827" d="M147.464,383.157c-13.374,2.479-22.462-6.2-25.566-20.3-1.33-6.048-.708-16.611-.568-20.228.592-15.3,7.569-42.115,40.6-43.089,0,0,22.245-1.1,34.106,13.054,14.189,16.933,10.893,28.366,11.93,39.573a31.4,31.4,0,0,1-2.345,15.463,30.163,30.163,0,0,1-5.668,8.826C188.267,390.533,167.693,386.493,147.464,383.157Z" transform="translate(-121.062 -299.516)" fill="#291c2a"/>
              </g>
            </g>
          </g>
        </g>
      </g>
      <g id="Group_1190930" data-name="Group 1190930" transform="translate(69.581 133.75)">
        <g id="Group_1190929" data-name="Group 1190929">
          <g id="Group_1190928" data-name="Group 1190928">
            <g id="Group_1190927" data-name="Group 1190927">
              <g id="Group_1190926" data-name="Group 1190926">
                <path id="Path_1278828" data-name="Path 1278828" d="M167.8,418.536A87.774,87.774,0,0,0,183.785,431q.878.562,1.807,1.107a105.044,105.044,0,0,0,11.773,6.092l3.063-42.623s-2.1-9.194-13.917-14.275C186.511,381.3,175.37,402.732,167.8,418.536Z" transform="translate(-167.805 -381.3)" fill="#ff3f54"/>
              </g>
            </g>
          </g>
        </g>
      </g>
      <g id="Group_1190936" data-name="Group 1190936" transform="translate(85.115 147.249)">
        <g id="Group_1190935" data-name="Group 1190935" transform="translate(0)">
          <g id="Group_1190934" data-name="Group 1190934">
            <g id="Group_1190933" data-name="Group 1190933">
              <g id="Group_1190932" data-name="Group 1190932">
                <g id="Group_1190931" data-name="Group 1190931">
                  <path id="Path_1278829" data-name="Path 1278829" d="M177.148,390.5a60.949,60.949,0,0,1-.191,21.362,41.072,41.072,0,0,0-.316,13.9q.878.562,1.807,1.107a39.057,39.057,0,0,1,.046-14.717,61.486,61.486,0,0,0,.186-21.972.783.783,0,0,0-1.532.324Z" transform="translate(-176.195 -389.554)" fill="#d01c28"/>
                </g>
              </g>
            </g>
          </g>
        </g>
      </g>
      <g id="Group_1190938" data-name="Group 1190938" transform="translate(86.109 109.289)">
        <g id="Group_1190937" data-name="Group 1190937">
          <path id="Path_1278830" data-name="Path 1278830" d="M127.006,469.363c1.449,6.476-.142,18.442-2.3,29.542h80.452c-.172-3-.314-6.112-.414-9.276-.365-11.791,1.738-28.162,4.494-42.972.1-.554.211-1.1.314-1.65,1.879-9.861,4.03-18.922,5.878-25.3,4.713-16.249,6.151-30.626-6.923-37.055-10.161-5-22.168-10.539-27.018-12.758-1.388-.641-2.193-1.006-2.193-1.006s-27.09-5.56-34.181-.237q-.721.542-1.557,1.063c-7.59,4.819-21.453,8.995-28.5,21.092-6.7,11.5,4.7,7.714-.723,36.973C110.592,448,123.832,455.184,127.006,469.363Z" transform="translate(-112.877 -366.343)" fill="#ff3f54"/>
        </g>
      </g>
      <g id="Group_1190939" data-name="Group 1190939" transform="translate(105.239 227.044)">
        <path id="Path_1278831" data-name="Path 1278831" d="M165.5,444.213a32.958,32.958,0,0,0,11.431-1.559.791.791,0,0,0-.494-1.5c-13.629,4.476-27.324-2.641-27.46-2.713a.791.791,0,1,0-.741,1.4A43.4,43.4,0,0,0,165.5,444.213Z" transform="translate(-147.813 -438.347)" fill="#d01c28"/>
      </g>
      <g id="Group_1190940" data-name="Group 1190940" transform="translate(100.583 147.839)">
        <path id="Path_1278832" data-name="Path 1278832" d="M163.074,401.963a38.546,38.546,0,0,0,5.06-.178,57.187,57.187,0,0,0,15.958-4.123.791.791,0,1,0-.644-1.446c-.283.128-28.348,12.377-37.972-5.879a.791.791,0,1,0-1.4.739C147.7,397.956,154.218,401.665,163.074,401.963Z" transform="translate(-143.985 -389.915)" fill="#d01c28"/>
      </g>
      <g id="Group_1190946" data-name="Group 1190946" transform="translate(104.565 202.928)">
        <g id="Group_1190945" data-name="Group 1190945" transform="translate(0)">
          <g id="Group_1190944" data-name="Group 1190944">
            <g id="Group_1190943" data-name="Group 1190943">
              <g id="Group_1190942" data-name="Group 1190942">
                <g id="Group_1190941" data-name="Group 1190941">
                  <path id="Path_1278833" data-name="Path 1278833" d="M136.314,445.229c28.086.944,52.913-20.027,53.178-20.254a.782.782,0,0,0-1.017-1.187c-.278.239-28.268,23.864-58.047,19.335a.782.782,0,0,0-.234,1.545A52.427,52.427,0,0,0,136.314,445.229Z" transform="translate(-129.529 -423.6)" fill="#d01c28"/>
                </g>
              </g>
            </g>
          </g>
        </g>
      </g>
      <g id="Group_1190972" data-name="Group 1190972" transform="translate(116.312 109.289)">
        <g id="Group_1190947" data-name="Group 1190947" transform="translate(0)">
          <path id="Path_1278834" data-name="Path 1278834" d="M135.693,375.652q0,1.158.082,2.3a47.561,47.561,0,0,0,1.084,7.268c.119.53.244,1.047.375,1.56l0,.016c.2.783.412,1.552.635,2.3.358,1.194.736,2.327,1.122,3.4.185.509.365,1.007.551,1.485a59.514,59.514,0,0,0,3.416,7.439,38.772,38.772,0,0,1,5.655-7.5c.388-.43.79-.87,1.2-1.31q.707-.758,1.457-1.539.834-.873,1.717-1.763.765-.77,1.557-1.557.653-.65,1.323-1.3c1.086-1.053,2.188-2.11,3.3-3.155.525-.5,1.056-1,1.586-1.49,5.173-4.821,10.228-9.242,13.343-11.916-1.39-.638-2.193-1-2.193-1s-27.094-5.559-34.181-.239q-.724.542-1.557,1.063A32.45,32.45,0,0,0,135.693,375.652Z" transform="translate(-135.692 -366.343)" fill="#fda66f"/>
        </g>
        <g id="Group_1190953" data-name="Group 1190953" transform="translate(0.001 9.308)">
          <g id="Group_1190952" data-name="Group 1190952">
            <g id="Group_1190951" data-name="Group 1190951">
              <g id="Group_1190950" data-name="Group 1190950">
                <g id="Group_1190949" data-name="Group 1190949">
                  <g id="Group_1190948" data-name="Group 1190948">
                    <path id="Path_1278835" data-name="Path 1278835" d="M146.84,372.035q0,1.158.082,2.3c.667.63,1.364,1.231,2.083,1.8a37.39,37.39,0,0,0,5.008,3.331c.72.407,1.451.782,2.178,1.133a53.809,53.809,0,0,0,9.5,3.536q.653-.65,1.323-1.3a58.226,58.226,0,0,1-8.043-2.721c-.857-.368-1.719-.764-2.574-1.2A34.033,34.033,0,0,1,146.84,372.035Z" transform="translate(-146.84 -372.035)" fill="#ff3f54"/>
                  </g>
                </g>
              </g>
            </g>
          </g>
        </g>
        <g id="Group_1190959" data-name="Group 1190959" transform="translate(1.547 20.454)">
          <g id="Group_1190958" data-name="Group 1190958">
            <g id="Group_1190957" data-name="Group 1190957">
              <g id="Group_1190956" data-name="Group 1190956">
                <g id="Group_1190955" data-name="Group 1190955">
                  <g id="Group_1190954" data-name="Group 1190954">
                    <path id="Path_1278836" data-name="Path 1278836" d="M150.542,378.85c.2.783.412,1.552.635,2.3a40.922,40.922,0,0,0,4.159,2.245q1.121.54,2.242.994c1.477.618,2.942,1.138,4.344,1.585.388-.43.79-.87,1.2-1.31-.9-.271-1.823-.576-2.764-.919-.87-.314-1.756-.661-2.646-1.042A42.163,42.163,0,0,1,150.542,378.85Z" transform="translate(-150.542 -378.85)" fill="#ff3f54"/>
                  </g>
                </g>
              </g>
            </g>
          </g>
        </g>
        <g id="Group_1190965" data-name="Group 1190965" transform="translate(3.303 22.964)">
          <g id="Group_1190964" data-name="Group 1190964">
            <g id="Group_1190963" data-name="Group 1190963">
              <g id="Group_1190962" data-name="Group 1190962">
                <g id="Group_1190961" data-name="Group 1190961">
                  <g id="Group_1190960" data-name="Group 1190960">
                    <path id="Path_1278837" data-name="Path 1278837" d="M148.6,383.569c.185.509.365,1.007.551,1.485a32.97,32.97,0,0,1,4.728-1.642c.927-.253,1.853-.463,2.779-.644,1.426-.275,2.839-.479,4.221-.62q.834-.873,1.717-1.763a47.709,47.709,0,0,0-8.584,1.341q-1.192.3-2.375.692c-.754.249-1.5.518-2.239.816Q149,383.393,148.6,383.569Z" transform="translate(-148.601 -380.385)" fill="#ff3f54"/>
                  </g>
                </g>
              </g>
            </g>
          </g>
        </g>
        <g id="Group_1190971" data-name="Group 1190971" transform="translate(1.167 15.241)">
          <g id="Group_1190970" data-name="Group 1190970">
            <g id="Group_1190969" data-name="Group 1190969">
              <g id="Group_1190968" data-name="Group 1190968">
                <g id="Group_1190967" data-name="Group 1190967">
                  <g id="Group_1190966" data-name="Group 1190966">
                    <path id="Path_1278838" data-name="Path 1278838" d="M143.851,379.3c.119.53.244,1.047.375,1.56a34.76,34.76,0,0,1,7.811-2.566c.935-.2,1.866-.358,2.783-.486a57,57,0,0,1,11.345-.433c.525-.5,1.056-1,1.586-1.49a57.123,57.123,0,0,0-15.505.726c-.793.159-1.593.34-2.388.549a37.032,37.032,0,0,0-4.5,1.478C144.852,378.846,144.351,379.063,143.851,379.3Z" transform="translate(-143.851 -375.663)" fill="#ff3f54"/>
                  </g>
                </g>
              </g>
            </g>
          </g>
        </g>
      </g>
      <g id="Group_1190978" data-name="Group 1190978" transform="translate(160.946 156.536)">
        <g id="Group_1190977" data-name="Group 1190977" transform="translate(0)">
          <g id="Group_1190976" data-name="Group 1190976">
            <g id="Group_1190975" data-name="Group 1190975">
              <g id="Group_1190974" data-name="Group 1190974">
                <g id="Group_1190973" data-name="Group 1190973">
                  <path id="Path_1278839" data-name="Path 1278839" d="M118.566,396.252l10.061,31.98a.782.782,0,0,0,.654.543c.7.087,1.691.2,2.972.245a32.937,32.937,0,0,0,7.8-.718c.1-.553.209-1.107.316-1.655a30.391,30.391,0,0,1-10.406.635l-9.909-31.5a.782.782,0,1,0-1.491.471Z" transform="translate(-118.531 -395.233)" fill="#d01c28"/>
                </g>
              </g>
            </g>
          </g>
        </g>
      </g>
      <g id="Group_1190984" data-name="Group 1190984" transform="translate(156.694 159.551)">
        <g id="Group_1190983" data-name="Group 1190983" transform="translate(0)">
          <g id="Group_1190982" data-name="Group 1190982">
            <g id="Group_1190981" data-name="Group 1190981">
              <g id="Group_1190980" data-name="Group 1190980">
                <g id="Group_1190979" data-name="Group 1190979">
                  <path id="Path_1278840" data-name="Path 1278840" d="M137.455,408.039a.78.78,0,0,0,.617-1.292l-8.157-9.4a.781.781,0,1,0-1.179,1.024l8.156,9.4A.781.781,0,0,0,137.455,408.039Z" transform="translate(-128.543 -397.077)" fill="#d01c28"/>
                </g>
              </g>
            </g>
          </g>
        </g>
      </g>
      <g id="Group_1191072" data-name="Group 1191072" transform="translate(89.827 5.46)">
        <g id="Group_1190995" data-name="Group 1190995" transform="translate(28.366 77.887)">
          <g id="Group_1190989" data-name="Group 1190989">
            <g id="Group_1190988" data-name="Group 1190988">
              <g id="Group_1190987" data-name="Group 1190987">
                <g id="Group_1190986" data-name="Group 1190986">
                  <g id="Group_1190985" data-name="Group 1190985">
                    <path id="Path_1278841" data-name="Path 1278841" d="M137.034,377.523s-.137,7.16,10.054,8.893c12.19,2.082,24.279-7.448,24.279-7.448a75.28,75.28,0,0,1-1.114-23c.337-3.318.721-5.488.721-5.488l0,0-32.456,11.963-.793,8.112-.4,4Z" transform="translate(-137.034 -350.48)" fill="#fda66f"/>
                  </g>
                </g>
              </g>
            </g>
          </g>
          <g id="Group_1190994" data-name="Group 1190994" transform="translate(0.687 0.005)">
            <g id="Group_1190993" data-name="Group 1190993">
              <g id="Group_1190992" data-name="Group 1190992">
                <g id="Group_1190991" data-name="Group 1190991">
                  <g id="Group_1190990" data-name="Group 1190990">
                    <path id="Path_1278842" data-name="Path 1278842" d="M137.277,370.557c16.9-.432,28.338-9.74,32.723-16.334a23.529,23.529,0,0,1,.527-3.74L138.07,362.446Z" transform="translate(-137.277 -350.483)" fill="#291c2a"/>
                  </g>
                </g>
              </g>
            </g>
          </g>
        </g>
        <g id="Group_1191000" data-name="Group 1191000" transform="translate(2.839 40.35)">
          <g id="Group_1190999" data-name="Group 1190999">
            <g id="Group_1190998" data-name="Group 1190998">
              <g id="Group_1190997" data-name="Group 1190997">
                <g id="Group_1190996" data-name="Group 1190996">
                  <path id="Path_1278843" data-name="Path 1278843" d="M178.589,333.35s-1.648-6.64-8.133-5.739-7.976,27.381,7.915,26.377Z" transform="translate(-165.845 -327.528)" fill="#fc804d"/>
                </g>
              </g>
            </g>
          </g>
        </g>
        <g id="Group_1191002" data-name="Group 1191002" transform="translate(0 59.663)">
          <g id="Group_1191001" data-name="Group 1191001">
            <path id="Path_1278844" data-name="Path 1278844" d="M172.957,358.172a9.42,9.42,0,1,0-9.1-9.732A9.431,9.431,0,0,0,172.957,358.172Zm.559-16.645a7.233,7.233,0,1,1-7.472,6.986A7.244,7.244,0,0,1,173.517,341.527Z" transform="translate(-163.853 -339.337)" fill="#fff"/>
          </g>
        </g>
        <g id="Group_1191007" data-name="Group 1191007" transform="translate(6.139 3.846)">
          <g id="Group_1191006" data-name="Group 1191006">
            <g id="Group_1191005" data-name="Group 1191005">
              <g id="Group_1191004" data-name="Group 1191004">
                <g id="Group_1191003" data-name="Group 1191003">
                  <path id="Path_1278845" data-name="Path 1278845" d="M127.092,356.577c0,.136.01.268.015.406.057,1.222.128,2.464.232,3.727.007.067.01.141.016.209.131,1.63.294,3.281.5,4.936.182,1.423.335,2.865.646,4.283,3.68,16.827,14.768,24.1,29.4,22.693,26.917-2.594,36.926-28.718,40.416-43.569a82.511,82.511,0,0,0,1.645-8.9c.775-19.841-20.7-36.188-39.122-35.1-25.818,1.524-30.775,16.75-32.652,28.75-.211,1.312-.379,2.584-.533,3.794A119.948,119.948,0,0,0,127.092,356.577Z" transform="translate(-126.968 -305.207)" fill="#fda66f"/>
                </g>
              </g>
            </g>
          </g>
        </g>
        <g id="Group_1191008" data-name="Group 1191008" transform="translate(23.974 81.216)">
          <path id="Path_1278846" data-name="Path 1278846" d="M163.042,353.1a.949.949,0,0,1-.227,1.851,15.342,15.342,0,0,1-6.21-.608.949.949,0,0,1,.7-1.765,14.034,14.034,0,0,0,5.389.479A.917.917,0,0,1,163.042,353.1Z" transform="translate(-156.007 -352.516)" fill="#fc804d"/>
        </g>
        <circle id="Ellipse_12292" data-name="Ellipse 12292" cx="5.471" cy="5.471" r="5.471" transform="translate(22.894 69.083)" fill="#fff"/>
        <g id="Group_1191009" data-name="Group 1191009" transform="translate(7.3)">
          <path id="Path_1278847" data-name="Path 1278847" d="M197.8,345.464s-5.371-1.1-7.855,2.317-.85,9.037-4.73,10.5-3.564-12.568-2.342-18.089-2.342-10.745-2.342-10.745.52,8.952.569,12.874c0,0-14.043-2.751-19.33-4.324l-.795-9.845s-1.092,7.986-2.793,9.752c0,0-10.03.3-15.281-1.861l.45-9.852-2.6,9.4s-8.018,1.89-14.185-.08c0,0-2.487-23.193,24.137-30.772S205.6,312.872,197.8,345.464Z" transform="translate(-126.511 -302.855)" fill="#291c2a"/>
        </g>
        <g id="Group_1191016" data-name="Group 1191016" transform="translate(38.947 36.774)">
          <g id="Group_1191015" data-name="Group 1191015" transform="translate(0)">
            <g id="Group_1191014" data-name="Group 1191014">
              <g id="Group_1191013" data-name="Group 1191013">
                <g id="Group_1191012" data-name="Group 1191012">
                  <g id="Group_1191011" data-name="Group 1191011">
                    <g id="Group_1191010" data-name="Group 1191010">
                      <path id="Path_1278848" data-name="Path 1278848" d="M144.444,328.1a1.412,1.412,0,0,1,.487-2.572c3-.592,9.256-.057,11.479,6.195a1.413,1.413,0,0,1-2.662.945c-1.954-5.5-8.018-4.417-8.275-4.368A1.417,1.417,0,0,1,144.444,328.1Z" transform="translate(-143.794 -325.341)" fill="#291c2a"/>
                    </g>
                  </g>
                </g>
              </g>
            </g>
          </g>
        </g>
        <g id="Group_1191023" data-name="Group 1191023" transform="translate(9.277 36.27)">
          <g id="Group_1191022" data-name="Group 1191022">
            <g id="Group_1191021" data-name="Group 1191021">
              <g id="Group_1191020" data-name="Group 1191020">
                <g id="Group_1191019" data-name="Group 1191019">
                  <g id="Group_1191018" data-name="Group 1191018">
                    <g id="Group_1191017" data-name="Group 1191017">
                      <path id="Path_1278849" data-name="Path 1278849" d="M163.312,332.261a1.412,1.412,0,0,1-1.583-2.085c1.57-2.623,6.162-6.908,12.292-4.367a1.412,1.412,0,1,1-1.083,2.608c-5.394-2.239-8.653,2.991-8.789,3.214A1.424,1.424,0,0,1,163.312,332.261Z" transform="translate(-161.529 -325.033)" fill="#291c2a"/>
                    </g>
                  </g>
                </g>
              </g>
            </g>
          </g>
        </g>
        <g id="Group_1191028" data-name="Group 1191028" transform="translate(5.785 31.801)">
          <g id="Group_1191027" data-name="Group 1191027">
            <g id="Group_1191026" data-name="Group 1191026">
              <g id="Group_1191025" data-name="Group 1191025">
                <g id="Group_1191024" data-name="Group 1191024">
                  <path id="Path_1278850" data-name="Path 1278850" d="M174.369,322.3a15.421,15.421,0,0,1-3.066,7.392,12.734,12.734,0,0,0-2.7,6.064l-.4,2.72s-1.362-11.255,1.217-15.327Z" transform="translate(-167.849 -322.3)" fill="#291c2a"/>
                </g>
              </g>
            </g>
          </g>
        </g>
        <g id="Group_1191033" data-name="Group 1191033" transform="translate(44.388 54.443)">
          <g id="Group_1191032" data-name="Group 1191032" transform="translate(0)">
            <g id="Group_1191031" data-name="Group 1191031">
              <g id="Group_1191030" data-name="Group 1191030">
                <g id="Group_1191029" data-name="Group 1191029">
                  <path id="Path_1278851" data-name="Path 1278851" d="M139.521,338.041c-.043,1.177,3.112,2.244,7.047,2.383s7.155-.7,7.2-1.879-3.114-2.247-7.047-2.384S139.562,336.862,139.521,338.041Z" transform="translate(-139.521 -336.145)" fill="#fc804d"/>
                </g>
              </g>
            </g>
          </g>
        </g>
        <g id="Group_1191038" data-name="Group 1191038" transform="translate(6.262 55.149)">
          <g id="Group_1191037" data-name="Group 1191037">
            <g id="Group_1191036" data-name="Group 1191036">
              <g id="Group_1191035" data-name="Group 1191035">
                <g id="Group_1191034" data-name="Group 1191034">
                  <path id="Path_1278852" data-name="Path 1278852" d="M165.381,336.643c.007.137.011.268.016.406.057,1.222.128,2.465.231,3.727.594.049,1.218.08,1.866.092,4.332.067,7.9-.832,7.964-2.016s-3.392-2.193-7.722-2.27C166.917,336.567,166.126,336.59,165.381,336.643Z" transform="translate(-165.381 -336.577)" fill="#fc804d"/>
                </g>
              </g>
            </g>
          </g>
        </g>
        <g id="Group_1191043" data-name="Group 1191043" transform="translate(41.877 45.199)">
          <g id="Group_1191042" data-name="Group 1191042" transform="translate(0)">
            <g id="Group_1191041" data-name="Group 1191041">
              <g id="Group_1191040" data-name="Group 1191040">
                <g id="Group_1191039" data-name="Group 1191039">
                  <path id="Path_1278853" data-name="Path 1278853" d="M147.217,334.242c-.074,2.11.8,3.853,1.949,3.894s2.144-1.637,2.219-3.747-.8-3.855-1.949-3.9S147.292,332.13,147.217,334.242Z" transform="translate(-147.212 -330.493)" fill="#291c2a"/>
                </g>
              </g>
            </g>
          </g>
        </g>
        <g id="Group_1191048" data-name="Group 1191048" transform="translate(16.428 44.493)">
          <g id="Group_1191047" data-name="Group 1191047" transform="translate(0)">
            <g id="Group_1191046" data-name="Group 1191046">
              <g id="Group_1191045" data-name="Group 1191045">
                <g id="Group_1191044" data-name="Group 1191044">
                  <path id="Path_1278854" data-name="Path 1278854" d="M162.779,333.81c-.075,2.11.8,3.853,1.948,3.894s2.146-1.637,2.219-3.747-.8-3.855-1.948-3.9S162.854,331.7,162.779,333.81Z" transform="translate(-162.774 -330.061)" fill="#291c2a"/>
                </g>
              </g>
            </g>
          </g>
        </g>
        <g id="Group_1191053" data-name="Group 1191053" transform="translate(24.758 50.964)">
          <g id="Group_1191052" data-name="Group 1191052" transform="translate(0)">
            <g id="Group_1191051" data-name="Group 1191051">
              <g id="Group_1191050" data-name="Group 1191050">
                <g id="Group_1191049" data-name="Group 1191049">
                  <path id="Path_1278855" data-name="Path 1278855" d="M161.413,348.071a1.3,1.3,0,0,0,.131-2.594c-1.058-.074-1.922-.19-2.541-.294a79.736,79.736,0,0,1,2.229-9.489,1.3,1.3,0,1,0-2.486-.754,72.446,72.446,0,0,0-2.469,11.157,1.3,1.3,0,0,0,.958,1.375,23.907,23.907,0,0,0,4.131.6Z" transform="translate(-156.27 -334.017)" fill="#fc804d"/>
                </g>
              </g>
            </g>
          </g>
        </g>
        <g id="Group_1191071" data-name="Group 1191071" transform="translate(64.682 42.623)">
          <g id="Group_1191058" data-name="Group 1191058" transform="translate(0.228)">
            <g id="Group_1191057" data-name="Group 1191057">
              <g id="Group_1191056" data-name="Group 1191056">
                <g id="Group_1191055" data-name="Group 1191055">
                  <g id="Group_1191054" data-name="Group 1191054">
                    <path id="Path_1278856" data-name="Path 1278856" d="M129.924,333.455s4.021-6.852,10.947-3.716-.129,33.12-17.5,26.771Z" transform="translate(-123.375 -328.917)" fill="#fda66f"/>
                  </g>
                </g>
              </g>
            </g>
          </g>
          <g id="Group_1191060" data-name="Group 1191060" transform="translate(0 21.313)">
            <g id="Group_1191059" data-name="Group 1191059">
              <path id="Path_1278857" data-name="Path 1278857" d="M124.8,348.321a9.27,9.27,0,0,0-.491,2.69,9.42,9.42,0,1,0,14.949-7.287,9.309,9.309,0,0,0-4.8-1.774l-.074,2.185a7.139,7.139,0,0,1,3.4,1.225,7.227,7.227,0,1,1-11.291,5.726,6.976,6.976,0,0,1,.424-2.2Z" transform="translate(-124.302 -341.95)" fill="#fff"/>
            </g>
          </g>
          <g id="Group_1191065" data-name="Group 1191065" transform="translate(6.807 4.587)">
            <g id="Group_1191064" data-name="Group 1191064">
              <g id="Group_1191063" data-name="Group 1191063">
                <g id="Group_1191062" data-name="Group 1191062">
                  <g id="Group_1191061" data-name="Group 1191061">
                    <path id="Path_1278858" data-name="Path 1278858" d="M126.837,347.042l.02,0a1.3,1.3,0,0,0,1.323-1.276,13.618,13.618,0,0,1,6.638-11.592,1.3,1.3,0,0,0-1.187-2.311,16.091,16.091,0,0,0-8.049,13.855A1.3,1.3,0,0,0,126.837,347.042Z" transform="translate(-125.581 -331.722)" fill="#fc804d"/>
                  </g>
                </g>
              </g>
            </g>
          </g>
          <g id="Group_1191070" data-name="Group 1191070" transform="translate(7.925 11.29)">
            <g id="Group_1191069" data-name="Group 1191069">
              <g id="Group_1191068" data-name="Group 1191068">
                <g id="Group_1191067" data-name="Group 1191067">
                  <g id="Group_1191066" data-name="Group 1191066">
                    <path id="Path_1278859" data-name="Path 1278859" d="M132.752,339.079a1.3,1.3,0,0,0,.531-2.5c-.4-.162-3.963-1.532-6.538-.129a1.3,1.3,0,0,0,1.243,2.281c1.282-.7,3.608-.033,4.321.255A1.3,1.3,0,0,0,132.752,339.079Z" transform="translate(-126.068 -335.821)" fill="#fc804d"/>
                  </g>
                </g>
              </g>
            </g>
          </g>
        </g>
      </g>
      <g id="Group_1191089" data-name="Group 1191089" transform="translate(164.94 133.406)">
        <g id="Group_1191078" data-name="Group 1191078" transform="translate(7.518 5.011)">
          <g id="Group_1191077" data-name="Group 1191077">
            <g id="Group_1191076" data-name="Group 1191076">
              <g id="Group_1191075" data-name="Group 1191075">
                <g id="Group_1191074" data-name="Group 1191074">
                  <g id="Group_1191073" data-name="Group 1191073">
                    <path id="Path_1278860" data-name="Path 1278860" d="M115.261,487.588C110.6,477.45,104.183,456.147,99.623,438.4c-.5-1.946-.976-3.827-1.421-5.624-2.553-10.246-4.188-17.71-4.188-17.71l18.513-30.912s6.681,14.706,13.809,34.42q.78,2.151,1.567,4.383c3.948,11.242,6.653,23.314,9.8,35.486,3.465,13.407,4.731,21.262,6.736,29.146Z" transform="translate(-94.014 -384.154)" fill="#fda66f"/>
                  </g>
                </g>
              </g>
            </g>
          </g>
        </g>
        <g id="Group_1191083" data-name="Group 1191083" transform="translate(11.706 39.431)">
          <g id="Group_1191082" data-name="Group 1191082">
            <g id="Group_1191081" data-name="Group 1191081">
              <g id="Group_1191080" data-name="Group 1191080">
                <g id="Group_1191079" data-name="Group 1191079">
                  <path id="Path_1278861" data-name="Path 1278861" d="M104.125,419.4c.445,1.8.917,3.678,1.421,5.624,9.309-.7,24.2-11.057,28.279-15.443q-.785-2.23-1.567-4.383C121.256,413.972,108.092,418.25,104.125,419.4Z" transform="translate(-104.125 -405.201)" fill="#291c2a"/>
                </g>
              </g>
            </g>
          </g>
        </g>
        <g id="Group_1191088" data-name="Group 1191088" transform="translate(0)">
          <g id="Group_1191087" data-name="Group 1191087">
            <g id="Group_1191086" data-name="Group 1191086">
              <g id="Group_1191085" data-name="Group 1191085">
                <g id="Group_1191084" data-name="Group 1191084">
                  <path id="Path_1278862" data-name="Path 1278862" d="M127.53,381.09c8.028,13.1,15.814,26.162,19,38.561,0,0-11.883,15.932-36.523,16.617l-7.441-24.119S114.149,383.172,127.53,381.09Z" transform="translate(-102.561 -381.09)" fill="#ff3f54"/>
                </g>
              </g>
            </g>
          </g>
        </g>
      </g>
      <g id="Group_1191096" data-name="Group 1191096" transform="translate(0 227.809)">
        <g id="Group_1191095" data-name="Group 1191095">
          <g id="Group_1191094" data-name="Group 1191094">
            <g id="Group_1191093" data-name="Group 1191093">
              <g id="Group_1191092" data-name="Group 1191092">
                <g id="Group_1191091" data-name="Group 1191091">
                  <g id="Group_1191090" data-name="Group 1191090">
                    <path id="Path_1278863" data-name="Path 1278863" d="M203.849,457.141c.945,7.251,5.057,6.167,7.1-2.638.013.335.433,7.7,1.8,8.658,3.326,2.324,5.76-6.74,6.965-11.832-.685,4.03-.672,16.594,3.119,14.179,2.685-1.706,4.406-12.292,5.088-15.129-.659,2.958-1.987,14.478,2.276,14.218,2.788-.173,4.875-10.18,4.875-10.18l.052-.208.339-1.357h11.8A7.663,7.663,0,0,0,245.892,450c-2.29-2.5-5.312-2.26-7.22-1.917-.36.065-.685.129-.955.186-.424.087-.672.155-.672.155s-.029-.25-.1-.675c-.051-.309-.121-.708-.213-1.163-.549-2.749-1.917-7.621-4.649-7.763-3.76-.2-4.779,3.8-4.81,3.907-.064-.195-1.6-4.618-4.887-3.639s-2.919,5.513-2.9,5.716c-.121-.164-3.786-5.3-6.2-3.846a6.726,6.726,0,0,0-2.828,4.568s-3.565-4.537-5.534-.708C203.385,447.8,203.4,453.689,203.849,457.141Z" transform="translate(-203.584 -438.815)" fill="#fda66f"/>
                  </g>
                </g>
              </g>
            </g>
          </g>
        </g>
        <path id="Path_1278864" data-name="Path 1278864" d="M208.845,449.381H210.3l1.7-4.77c-.36.065-.685.129-.955.186-.424.087-.672.155-.672.155s-.029-.25-.1-.675Z" transform="translate(-176.915 -435.344)" fill="#fc804d"/>
      </g>
      <g id="Group_1191103" data-name="Group 1191103" transform="translate(223.713 227.809)">
        <g id="Group_1191102" data-name="Group 1191102" transform="translate(0)">
          <g id="Group_1191101" data-name="Group 1191101">
            <g id="Group_1191100" data-name="Group 1191100">
              <g id="Group_1191099" data-name="Group 1191099">
                <g id="Group_1191098" data-name="Group 1191098">
                  <g id="Group_1191097" data-name="Group 1191097">
                    <path id="Path_1278865" data-name="Path 1278865" d="M110.218,457.141c-.945,7.251-5.058,6.167-7.1-2.638-.013.335-.435,7.7-1.805,8.658-3.326,2.324-5.758-6.74-6.965-11.832.685,4.03.672,16.594-3.117,14.179-2.685-1.706-4.407-12.292-5.088-15.129.659,2.958,1.985,14.478-2.278,14.218-2.788-.173-4.873-10.18-4.873-10.18l-.052-.208-.339-1.357H66.79A7.713,7.713,0,0,1,68.173,450c2.29-2.5,5.313-2.26,7.222-1.917.36.065.685.129.953.186.425.087.672.155.672.155s.031-.25.1-.675c.052-.309.121-.708.213-1.163.551-2.749,1.917-7.621,4.649-7.763,3.76-.2,4.78,3.8,4.81,3.907.065-.195,1.6-4.618,4.888-3.639s2.919,5.513,2.9,5.716c.121-.164,3.786-5.3,6.2-3.846a6.726,6.726,0,0,1,2.828,4.568s3.565-4.537,5.534-.708C110.68,447.8,110.667,453.689,110.218,457.141Z" transform="translate(-66.79 -438.815)" fill="#fda66f"/>
                  </g>
                </g>
              </g>
            </g>
          </g>
        </g>
        <path id="Path_1278866" data-name="Path 1278866" d="M89.47,449.381H88.013l-1.7-4.77c.36.065.685.129.953.186.425.087.672.155.672.155s.031-.25.1-.675Z" transform="translate(-77.709 -435.344)" fill="#fc804d"/>
      </g>
    </g>
    <g id="Group_1191131" data-name="Group 1191131" transform="translate(924.051 14607.267)">
      <g id="Group_1191105" data-name="Group 1191105" transform="translate(0 0)">
        <rect id="Rectangle_411563" data-name="Rectangle 411563" width="83.757" height="42.703" transform="translate(0 0)" fill="#1f4168"/>
      </g>
      <g id="Group_1191119" data-name="Group 1191119" transform="translate(45.626 8.489)">
        <g id="Group_1191106" data-name="Group 1191106" transform="translate(0 0)">
          <rect id="Rectangle_411564" data-name="Rectangle 411564" width="6.368" height="2.91" fill="#f0f2f5"/>
        </g>
        <g id="Group_1191107" data-name="Group 1191107" transform="translate(7.68 0)">
          <rect id="Rectangle_411565" data-name="Rectangle 411565" width="2.642" height="2.91" fill="#f9a21b"/>
        </g>
        <g id="Group_1191108" data-name="Group 1191108" transform="translate(11.633 0)">
          <rect id="Rectangle_411566" data-name="Rectangle 411566" width="2.642" height="2.91" fill="#f0f2f5"/>
        </g>
        <g id="Group_1191109" data-name="Group 1191109" transform="translate(3.52 4.563)">
          <rect id="Rectangle_411567" data-name="Rectangle 411567" width="3.52" height="2.91" transform="translate(0 0)" fill="#f9a21b"/>
        </g>
        <g id="Group_1191110" data-name="Group 1191110" transform="translate(8.351 4.563)">
          <rect id="Rectangle_411568" data-name="Rectangle 411568" width="10.034" height="2.91" transform="translate(0 0)" fill="#f0f2f5"/>
        </g>
        <g id="Group_1191111" data-name="Group 1191111" transform="translate(19.697 4.563)">
          <rect id="Rectangle_411569" data-name="Rectangle 411569" width="6.827" height="2.91" transform="translate(0 0)" fill="#f9a21b"/>
        </g>
        <g id="Group_1191112" data-name="Group 1191112" transform="translate(27.836 4.563)">
          <rect id="Rectangle_411570" data-name="Rectangle 411570" width="2.796" height="2.91" transform="translate(0 0)" fill="#f0f2f5"/>
        </g>
        <g id="Group_1191113" data-name="Group 1191113" transform="translate(0 9.126)">
          <rect id="Rectangle_411571" data-name="Rectangle 411571" width="11.124" height="2.91" transform="translate(0 0)" fill="#f0f2f5"/>
        </g>
        <g id="Group_1191114" data-name="Group 1191114" transform="translate(12.435 9.126)">
          <rect id="Rectangle_411572" data-name="Rectangle 411572" width="7.713" height="2.91" transform="translate(0 0)" fill="#f9a21b"/>
        </g>
        <g id="Group_1191115" data-name="Group 1191115" transform="translate(21.46 9.126)">
          <rect id="Rectangle_411573" data-name="Rectangle 411573" width="5.421" height="2.91" transform="translate(0 0)" fill="#f0f2f5"/>
        </g>
        <g id="Group_1191116" data-name="Group 1191116" transform="translate(28.192 9.126)">
          <rect id="Rectangle_411574" data-name="Rectangle 411574" width="2.415" height="2.91" transform="translate(0 0)" fill="#f0f2f5"/>
        </g>
        <g id="Group_1191117" data-name="Group 1191117" transform="translate(0 13.689)">
          <rect id="Rectangle_411575" data-name="Rectangle 411575" width="8.357" height="2.91" transform="translate(0 0)" fill="#f0f2f5"/>
        </g>
        <g id="Group_1191118" data-name="Group 1191118" transform="translate(9.668 13.689)">
          <rect id="Rectangle_411576" data-name="Rectangle 411576" width="6.628" height="2.91" transform="translate(0 0)" fill="#f9a21b"/>
        </g>
      </g>
      <g id="Group_1191121" data-name="Group 1191121" transform="translate(8.619 8.489)">
        <g id="Group_1191120" data-name="Group 1191120">
          <path id="Path_1278867" data-name="Path 1278867" d="M1966.347,1078.874v-4.345h-4.45l1.217-5.771h-4.623l-1.217,5.771h-6.327l1.217-5.771h-4.589l-1.217,5.771H1940.2v4.345h5.214l-1.147,5.354h-6.188v4.346h5.249l-1.251,5.91h4.589l1.252-5.91h6.327l-1.252,5.91h4.624l1.251-5.91h5.354v-4.346h-4.415l1.147-5.354Zm-11.159,5.354h-6.327l1.147-5.354h6.327Z" transform="translate(-1938.084 -1068.758)" fill="#fff"/>
        </g>
      </g>
      <g id="Group_1191130" data-name="Group 1191130" transform="translate(45.65 26.741)">
        <g id="Group_1191122" data-name="Group 1191122" transform="translate(27.088)">
          <rect id="Rectangle_411577" data-name="Rectangle 411577" width="3.52" height="2.91" transform="translate(0)" fill="#f9a21b"/>
        </g>
        <g id="Group_1191123" data-name="Group 1191123" transform="translate(15.742)">
          <rect id="Rectangle_411578" data-name="Rectangle 411578" width="10.034" height="2.91" transform="translate(0)" fill="#f0f2f5"/>
        </g>
        <g id="Group_1191124" data-name="Group 1191124" transform="translate(7.603)">
          <rect id="Rectangle_411579" data-name="Rectangle 411579" width="6.827" height="2.91" fill="#f9a21b"/>
        </g>
        <g id="Group_1191125" data-name="Group 1191125" transform="translate(3.496)">
          <rect id="Rectangle_411580" data-name="Rectangle 411580" width="2.796" height="2.91" transform="translate(0)" fill="#f0f2f5"/>
        </g>
        <g id="Group_1191126" data-name="Group 1191126" transform="translate(19.484 4.563)">
          <rect id="Rectangle_411581" data-name="Rectangle 411581" width="11.124" height="2.91" transform="translate(0)" fill="#f0f2f5"/>
        </g>
        <g id="Group_1191127" data-name="Group 1191127" transform="translate(10.459 4.563)">
          <rect id="Rectangle_411582" data-name="Rectangle 411582" width="7.713" height="2.91" transform="translate(0)" fill="#f9a21b"/>
        </g>
        <g id="Group_1191128" data-name="Group 1191128" transform="translate(3.727 4.563)">
          <rect id="Rectangle_411583" data-name="Rectangle 411583" width="5.421" height="2.91" transform="translate(0)" fill="#f0f2f5"/>
        </g>
        <g id="Group_1191129" data-name="Group 1191129" transform="translate(0 4.563)">
          <rect id="Rectangle_411584" data-name="Rectangle 411584" width="2.415" height="2.91" fill="#f0f2f5"/>
        </g>
      </g>
    </g>
    <g id="Group_1191171" data-name="Group 1191171" transform="translate(1026.051 14639.533)">
      <g id="Group_1191170" data-name="Group 1191170" transform="translate(0 0)">
        <g id="Group_1191163" data-name="Group 1191163" transform="translate(0 35.682)">
          <g id="Group_1191132" data-name="Group 1191132">
            <path id="Path_1278868" data-name="Path 1278868" d="M1153.46,509.51H960.222v36.921H1153.46Zm-192.99.248h192.742v36.425H960.47Z" transform="translate(-960.222 -509.51)" fill="#1f4168"/>
          </g>
          <g id="Group_1191133" data-name="Group 1191133" transform="translate(17.865 4.294)">
            <rect id="Rectangle_411585" data-name="Rectangle 411585" width="8.141" height="3.18" transform="translate(0 0)" fill="#1f4168"/>
          </g>
          <g id="Group_1191134" data-name="Group 1191134" transform="translate(6.049 4.294)">
            <rect id="Rectangle_411586" data-name="Rectangle 411586" width="3.18" height="3.18" transform="translate(0 0)" fill="#1f4168"/>
          </g>
          <g id="Group_1191135" data-name="Group 1191135" transform="translate(6.049 9.281)">
            <rect id="Rectangle_411587" data-name="Rectangle 411587" width="3.18" height="3.18" transform="translate(0 0)" fill="#1f4168"/>
          </g>
          <g id="Group_1191136" data-name="Group 1191136" transform="translate(6.049 14.268)">
            <rect id="Rectangle_411588" data-name="Rectangle 411588" width="3.18" height="3.18" transform="translate(0 0)" fill="#1f4168"/>
          </g>
          <g id="Group_1191137" data-name="Group 1191137" transform="translate(6.049 19.254)">
            <rect id="Rectangle_411589" data-name="Rectangle 411589" width="3.18" height="3.18" transform="translate(0 0)" fill="#1f4168"/>
          </g>
          <g id="Group_1191138" data-name="Group 1191138" transform="translate(17.865 9.281)">
            <rect id="Rectangle_411590" data-name="Rectangle 411590" width="8.141" height="3.18" transform="translate(0 0)" fill="#f0f2f5"/>
          </g>
          <g id="Group_1191139" data-name="Group 1191139" transform="translate(17.865 14.268)">
            <rect id="Rectangle_411591" data-name="Rectangle 411591" width="8.141" height="3.18" transform="translate(0 0)" fill="#1f4168"/>
          </g>
          <g id="Group_1191140" data-name="Group 1191140" transform="translate(17.865 19.254)">
            <rect id="Rectangle_411592" data-name="Rectangle 411592" width="8.141" height="3.18" transform="translate(0 0)" fill="#f0f2f5"/>
          </g>
          <g id="Group_1191149" data-name="Group 1191149" transform="translate(6.049 30.275)">
            <g id="Group_1191141" data-name="Group 1191141" transform="translate(0 0)">
              <rect id="Rectangle_411593" data-name="Rectangle 411593" width="1.388" height="2.056" fill="#f9a21b"/>
            </g>
            <g id="Group_1191142" data-name="Group 1191142" transform="translate(2.963 0)">
              <rect id="Rectangle_411594" data-name="Rectangle 411594" width="1.388" height="2.056" fill="#f9a21b"/>
            </g>
            <g id="Group_1191143" data-name="Group 1191143" transform="translate(5.925 0)">
              <rect id="Rectangle_411595" data-name="Rectangle 411595" width="1.388" height="2.056" fill="#f9a21b"/>
            </g>
            <g id="Group_1191144" data-name="Group 1191144" transform="translate(8.888 0)">
              <rect id="Rectangle_411596" data-name="Rectangle 411596" width="1.388" height="2.056" fill="#f9a21b"/>
            </g>
            <g id="Group_1191145" data-name="Group 1191145" transform="translate(11.85 0)">
              <rect id="Rectangle_411597" data-name="Rectangle 411597" width="1.388" height="2.056" fill="#f9a21b"/>
            </g>
            <g id="Group_1191146" data-name="Group 1191146" transform="translate(14.813 0)">
              <rect id="Rectangle_411598" data-name="Rectangle 411598" width="1.388" height="2.056" fill="#f0f2f5"/>
            </g>
            <g id="Group_1191147" data-name="Group 1191147" transform="translate(17.776 0)">
              <rect id="Rectangle_411599" data-name="Rectangle 411599" width="1.388" height="2.056" fill="#f0f2f5"/>
            </g>
            <g id="Group_1191148" data-name="Group 1191148" transform="translate(20.738 0)">
              <rect id="Rectangle_411600" data-name="Rectangle 411600" width="1.388" height="2.056" fill="#f0f2f5"/>
            </g>
          </g>
          <g id="Group_1191150" data-name="Group 1191150" transform="translate(31.117 4.294)">
            <rect id="Rectangle_411601" data-name="Rectangle 411601" width="16.057" height="3.18" transform="translate(0 0)" fill="#1f4168"/>
          </g>
          <g id="Group_1191151" data-name="Group 1191151" transform="translate(50.481 4.294)">
            <rect id="Rectangle_411602" data-name="Rectangle 411602" width="6.661" height="3.18" transform="translate(0 0)" fill="#f0f2f5"/>
          </g>
          <g id="Group_1191152" data-name="Group 1191152" transform="translate(60.448 4.294)">
            <rect id="Rectangle_411603" data-name="Rectangle 411603" width="6.661" height="3.18" transform="translate(0 0)" fill="#1f4168"/>
          </g>
          <g id="Group_1191153" data-name="Group 1191153" transform="translate(31.117 9.281)">
            <rect id="Rectangle_411604" data-name="Rectangle 411604" width="8.874" height="3.18" transform="translate(0 0)" fill="#f9a21b"/>
          </g>
          <g id="Group_1191154" data-name="Group 1191154" transform="translate(43.298 9.281)">
            <rect id="Rectangle_411605" data-name="Rectangle 411605" width="25.3" height="3.18" transform="translate(0 0)" fill="#1f4168"/>
          </g>
          <g id="Group_1191155" data-name="Group 1191155" transform="translate(71.904 9.281)">
            <rect id="Rectangle_411606" data-name="Rectangle 411606" width="17.214" height="3.18" transform="translate(0 0)" fill="#f0f2f5"/>
          </g>
          <g id="Group_1191156" data-name="Group 1191156" transform="translate(92.425 9.281)">
            <rect id="Rectangle_411607" data-name="Rectangle 411607" width="7.049" height="3.18" transform="translate(0 0)" fill="#1f4168"/>
          </g>
          <g id="Group_1191157" data-name="Group 1191157" transform="translate(31.117 14.268)">
            <rect id="Rectangle_411608" data-name="Rectangle 411608" width="28.046" height="3.18" transform="translate(0 0)" fill="#1f4168"/>
          </g>
          <g id="Group_1191158" data-name="Group 1191158" transform="translate(62.47 14.268)">
            <rect id="Rectangle_411609" data-name="Rectangle 411609" width="19.447" height="3.18" transform="translate(0 0)" fill="#f9a21b"/>
          </g>
          <g id="Group_1191159" data-name="Group 1191159" transform="translate(85.223 14.268)">
            <rect id="Rectangle_411610" data-name="Rectangle 411610" width="13.668" height="3.18" transform="translate(0 0)" fill="#1f4168"/>
          </g>
          <g id="Group_1191160" data-name="Group 1191160" transform="translate(102.198 14.268)">
            <rect id="Rectangle_411611" data-name="Rectangle 411611" width="6.09" height="3.18" transform="translate(0 0)" fill="#1f4168"/>
          </g>
          <g id="Group_1191161" data-name="Group 1191161" transform="translate(31.117 19.254)">
            <rect id="Rectangle_411612" data-name="Rectangle 411612" width="21.069" height="3.18" transform="translate(0 0)" fill="#1f4168"/>
          </g>
          <g id="Group_1191162" data-name="Group 1191162" transform="translate(55.493 19.254)">
            <rect id="Rectangle_411613" data-name="Rectangle 411613" width="16.711" height="3.18" transform="translate(0 0)" fill="#f0f2f5"/>
          </g>
        </g>
        <g id="Group_1191169" data-name="Group 1191169" transform="translate(124.997 0)">
          <g id="Group_1191164" data-name="Group 1191164" transform="translate(0)">
            <rect id="Rectangle_411614" data-name="Rectangle 411614" width="52.951" height="57.284" fill="#1f4168"/>
          </g>
          <g id="Group_1191168" data-name="Group 1191168" transform="translate(14.797 7.128)">
            <g id="Group_1191165" data-name="Group 1191165" transform="translate(0 10.401)">
              <rect id="Rectangle_411615" data-name="Rectangle 411615" width="23.357" height="23.357" transform="translate(0 0)" fill="#fff"/>
            </g>
            <g id="Group_1191166" data-name="Group 1191166" transform="translate(6.071)">
              <path id="Path_1278869" data-name="Path 1278869" d="M1087.664,414.11a4.794,4.794,0,0,0-4.793,4.794V423.7h9.587V418.9a4.794,4.794,0,0,0-4.794-4.794m0-.813a5.614,5.614,0,0,1,5.607,5.607v5.607h-11.214V418.9a5.613,5.613,0,0,1,5.607-5.607Z" transform="translate(-1082.057 -413.297)" fill="#fff"/>
            </g>
            <g id="Group_1191167" data-name="Group 1191167" transform="translate(8.437 15.98)">
              <path id="Path_1278870" data-name="Path 1278870" d="M1096.511,470.384a3.241,3.241,0,1,0-5.271,2.512,2.5,2.5,0,0,1,1,1.936v.238a2.372,2.372,0,0,1-.433,1.459,1.858,1.858,0,0,0-.316,1.633,1.847,1.847,0,1,0,3.238-1.628,2.437,2.437,0,0,1-.537-1.5v-.129a2.448,2.448,0,0,1,1.025-1.949A3.207,3.207,0,0,0,1096.511,470.384Z" transform="translate(-1090.029 -467.143)" fill="#1f4168"/>
            </g>
          </g>
        </g>
      </g>
    </g>
  </g>
</svg>
