<svg xmlns="http://www.w3.org/2000/svg" xmlns:xlink="http://www.w3.org/1999/xlink" width="118" height="118" viewBox="0 0 118 118">
  <defs>
    <filter id="Ellipse_12115" x="0" y="0" width="118" height="118" filterUnits="userSpaceOnUse">
      <feOffset dy="3" input="SourceAlpha"/>
      <feGaussianBlur stdDeviation="3" result="blur"/>
      <feFlood flood-opacity="0.161"/>
      <feComposite operator="in" in2="blur"/>
      <feComposite in="SourceGraphic"/>
    </filter>
  </defs>
  <g id="Group_1189944" data-name="Group 1189944" transform="translate(-745.781 -3846)">
    <g id="Group_1181949" data-name="Group 1181949" transform="translate(-54 1303)">
      <g transform="matrix(1, 0, 0, 1, 799.78, 2543)" filter="url(#Ellipse_12115)">
        <g id="Ellipse_12115-2" data-name="Ellipse 12115" transform="translate(9 6)" fill="#f6bc1c" stroke="#ab8212" stroke-width="1.5">
          <circle cx="50" cy="50" r="50" stroke="none"/>
          <circle cx="50" cy="50" r="49.25" fill="none"/>
        </g>
      </g>
    </g>
    <g id="Group_1189948" data-name="Group 1189948" transform="translate(768.283 3804.723)">
      <g id="Group_1189950" data-name="Group 1189950" transform="translate(2.089 73.14)">
        <g id="Group_1189948-2" data-name="Group 1189948" transform="translate(0 7.781)">
          <path id="Path_1274080" data-name="Path 1274080" d="M91.319,306.91l-2.35-2.511,4.749-4.749,2.518,2.343Z" transform="translate(-77.999 -277.306)" fill="#8d9ca8" fill-rule="evenodd"/>
          <circle id="Ellipse_12259" data-name="Ellipse 12259" cx="14.395" cy="14.395" r="14.395" transform="translate(11.703)" fill="#64b5f6"/>
          <path id="Path_1274081" data-name="Path 1274081" d="M131.9,163.648a10.708,10.708,0,1,0,10.708,10.708A10.708,10.708,0,0,0,131.9,163.648Z" transform="translate(-105.803 -159.961)" fill="#e6f8ff" fill-rule="evenodd"/>
          <path id="Path_1274082" data-name="Path 1274082" d="M20.583,323.212l3.126,3.126a.831.831,0,0,1,0,1.173l-9.522,9.522a3.04,3.04,0,0,1-4.3-4.3l9.522-9.522A.831.831,0,0,1,20.583,323.212Z" transform="translate(-9.001 -297.427)" fill="#c97629" fill-rule="evenodd"/>
          <path id="Path_1274083" data-name="Path 1274083" d="M75.453,327.512l-2.182,2.182-4.3-4.3,2.182-2.182a.831.831,0,0,1,1.173,0l3.126,3.126A.831.831,0,0,1,75.453,327.512Z" transform="translate(-60.745 -297.427)" fill="#da8c36" fill-rule="evenodd"/>
        </g>
        <g id="Group_1189949" data-name="Group 1189949" transform="translate(22.467)">
          <path id="Path_1274084" data-name="Path 1274084" d="M173.605,305.221h5.615a.825.825,0,0,1,.823.823v11a.825.825,0,0,1-.823.823h-5.615a.825.825,0,0,1-.823-.823v-11A.825.825,0,0,1,173.605,305.221Z" transform="translate(-172.782 -274.332)" fill="#fc685b" fill-rule="evenodd"/>
          <path id="Path_1274085" data-name="Path 1274085" d="M266.034,203.048h5.615a.825.825,0,0,1,.823.823v25.018a.825.825,0,0,1-.823.823h-5.615a.825.825,0,0,1-.823-.823V203.871A.825.825,0,0,1,266.034,203.048Z" transform="translate(-252.532 -186.175)" fill="#72d561" fill-rule="evenodd"/>
          <path id="Path_1274086" data-name="Path 1274086" d="M358.463,246.988h5.615a.825.825,0,0,1,.823.823V266.8a.825.825,0,0,1-.823.823h-5.615a.825.825,0,0,1-.823-.823v-18.99A.825.825,0,0,1,358.463,246.988Z" transform="translate(-332.281 -224.087)" fill="#ffda2d" fill-rule="evenodd"/>
          <path id="Path_1274087" data-name="Path 1274087" d="M450.892,161.649h5.615a.825.825,0,0,1,.823.823v30.7a.825.825,0,0,1-.823.823h-5.615a.825.825,0,0,1-.823-.823v-30.7A.825.825,0,0,1,450.892,161.649Z" transform="translate(-412.031 -150.455)" fill="#64b5f6" fill-rule="evenodd"/>
          <path id="Path_1274088" data-name="Path 1274088" d="M460.932,85.011a2.481,2.481,0,1,0-2.481-2.481A2.485,2.485,0,0,0,460.932,85.011Z" transform="translate(-419.263 -80.05)" fill="#64b5f6" fill-rule="evenodd"/>
          <path id="Path_1274089" data-name="Path 1274089" d="M368.5,170.349a2.481,2.481,0,1,0-2.481-2.481A2.485,2.485,0,0,0,368.5,170.349Z" transform="translate(-339.513 -153.681)" fill="#ffda2d" fill-rule="evenodd"/>
          <path id="Path_1274090" data-name="Path 1274090" d="M276.073,108.41a2.481,2.481,0,1,0-2.481-2.481A2.485,2.485,0,0,0,276.073,108.41Z" transform="translate(-259.763 -100.239)" fill="#72d561" fill-rule="evenodd"/>
          <path id="Path_1274091" data-name="Path 1274091" d="M183.644,228.583a2.481,2.481,0,1,0-2.481-2.481A2.485,2.485,0,0,0,183.644,228.583Z" transform="translate(-180.013 -203.927)" fill="#ffda2d" fill-rule="evenodd"/>
        </g>
      </g>
      <path id="Path_1274092" data-name="Path 1274092" d="M68.76,115.578H63.694V85.43H68.76Zm1.1-32.343H62.6a1.1,1.1,0,0,0-1.1,1.1v32.343a1.1,1.1,0,0,0,1.1,1.1h7.261a1.1,1.1,0,0,0,1.1-1.1V84.332A1.1,1.1,0,0,0,69.858,83.235ZM43.4,115.578H38.335V91.109H43.4Zm-10.485-7.829v-1.617a11.878,11.878,0,0,0,3.223-2.1v1.938a13.145,13.145,0,0,1-3.223,1.776Zm-2.2,7.829H25.655V105.125h5.066ZM14.891,95.314a13.3,13.3,0,0,0,8.57,12.431v-1.613a11.8,11.8,0,1,1,11.021-20.8l.925-1.2A13.317,13.317,0,0,0,14.891,95.314Zm1.559,12.617-.879-.879,1.231-1.231q.422.457.878.88Zm-1.835,3.7-2.746-2.746,1.217-1.216,2.746,2.746ZM6.5,119.75l6.564-6.564-2.746-2.746L3.753,117A1.942,1.942,0,0,0,6.5,119.75Zm34.368-42.3a1.383,1.383,0,1,1-1.383,1.383A1.385,1.385,0,0,1,40.867,77.445Zm14.064,9.88a1.384,1.384,0,1,1-1.385-1.383A1.386,1.386,0,0,1,54.931,87.326Zm11.3-13.09a1.383,1.383,0,1,1-1.383,1.383A1.385,1.385,0,0,1,66.227,74.235ZM29.572,95.314a1.384,1.384,0,1,1-1.383-1.383A1.386,1.386,0,0,1,29.572,95.314Zm3.3,8.394a1.1,1.1,0,0,0-1.049-.778H24.558a1.1,1.1,0,0,0-1.049.779,9.608,9.608,0,1,1,9.627-16.628L29.4,91.946a3.587,3.587,0,1,0,1.738,1.339l3.744-4.867a9.577,9.577,0,0,1,1.268,1.506c0,.029,0,.058,0,.088v10.7a9.7,9.7,0,0,1-3.271,3ZM39.85,88.913H38.107a11.816,11.816,0,0,0-1.885-2.244l.923-1.2A13.256,13.256,0,0,1,39.85,88.913Zm4.649,0H42.3a15.436,15.436,0,0,0-3.819-5.179L39.662,82.2a3.57,3.57,0,0,0,3.423-.562l7.024,4.707a3.579,3.579,0,1,0,6.685-.519l7.678-7.089a3.577,3.577,0,1,0-1.49-1.612L55.3,84.21a3.567,3.567,0,0,0-3.973.309l-7.023-4.707a3.578,3.578,0,1,0-7.019-.984,3.555,3.555,0,0,0,.634,2.029L36.74,82.4a15.491,15.491,0,0,0-21.313,21.7L14.02,105.5l-.157-.158a1.1,1.1,0,0,0-1.553,0L2.2,115.451A4.137,4.137,0,0,0,8.051,121.3L18.16,111.194a1.1,1.1,0,0,0,0-1.552L18,109.483l1.4-1.4a15.391,15.391,0,0,0,4.055,1.99v6.606a1.1,1.1,0,0,0,1.1,1.1h7.261a1.1,1.1,0,0,0,1.1-1.1v-6.6a15.275,15.275,0,0,0,3.223-1.458v8.061a1.1,1.1,0,0,0,1.1,1.1H44.5a1.1,1.1,0,0,0,1.1-1.1V90.011a1.1,1.1,0,0,0-1.1-1.1ZM56.08,115.578H51.015V97.136H56.08Zm1.1-20.636a1.1,1.1,0,0,1,1.1,1.1v20.636a1.1,1.1,0,0,1-1.1,1.1H49.917a1.1,1.1,0,0,1-1.1-1.1V96.039a1.1,1.1,0,0,1,1.1-1.1Z" fill-rule="evenodd"/>
    </g>
  </g>
</svg>
