<svg xmlns="http://www.w3.org/2000/svg" xmlns:xlink="http://www.w3.org/1999/xlink" width="118" height="118" viewBox="0 0 118 118">
  <defs>
    <filter id="Ellipse_12115" x="0" y="0" width="118" height="118" filterUnits="userSpaceOnUse">
      <feOffset dy="3" input="SourceAlpha"/>
      <feGaussianBlur stdDeviation="3" result="blur"/>
      <feFlood flood-opacity="0.161"/>
      <feComposite operator="in" in2="blur"/>
      <feComposite in="SourceGraphic"/>
    </filter>
  </defs>
  <g id="Group_1189945" data-name="Group 1189945" transform="translate(-745.781 -3846)">
    <g id="Group_1181949" data-name="Group 1181949" transform="translate(-54 1303)">
      <g transform="matrix(1, 0, 0, 1, 799.78, 2543)" filter="url(#Ellipse_12115)">
        <g id="Ellipse_12115-2" data-name="Ellipse 12115" transform="translate(9 6)" fill="#f6bc1c" stroke="#ab8212" stroke-width="1.5">
          <circle cx="50" cy="50" r="50" stroke="none"/>
          <circle cx="50" cy="50" r="49.25" fill="none"/>
        </g>
      </g>
    </g>
    <g id="Group_1189951" data-name="Group 1189951" transform="translate(762.654 3865.81)">
      <g id="Group_1189958" data-name="Group 1189958" transform="translate(11.635 16.394)">
        <g id="Group_1189952" data-name="Group 1189952" transform="translate(32.957)">
          <g id="Group_1189951-2" data-name="Group 1189951">
            <path id="Path_1274093" data-name="Path 1274093" d="M282.231,99.927h19.655a1.879,1.879,0,0,1,1.875,1.875v33.28a1.879,1.879,0,0,1-1.875,1.875H277.711a1.878,1.878,0,0,1-1.875-1.875v-28.76Z" transform="translate(-275.836 -99.927)" fill="#f9f3f1" fill-rule="evenodd"/>
            <path id="Path_1274094" data-name="Path 1274094" d="M275.836,106.322h4.52a1.879,1.879,0,0,0,1.875-1.875v-4.52Z" transform="translate(-275.836 -99.927)" fill="#efe2dd" fill-rule="evenodd"/>
          </g>
        </g>
        <g id="Group_1189954" data-name="Group 1189954">
          <g id="Group_1189953" data-name="Group 1189953">
            <path id="Path_1274095" data-name="Path 1274095" d="M22.394,99.927H42.048a1.879,1.879,0,0,1,1.875,1.875v33.28a1.879,1.879,0,0,1-1.875,1.875H17.874A1.878,1.878,0,0,1,16,135.081v-28.76Z" transform="translate(-15.999 -99.927)" fill="#f9f3f1" fill-rule="evenodd"/>
            <path id="Path_1274096" data-name="Path 1274096" d="M16,106.322h4.52a1.879,1.879,0,0,0,1.875-1.875v-4.52Z" transform="translate(-15.999 -99.927)" fill="#efe2dd" fill-rule="evenodd"/>
          </g>
        </g>
        <g id="Group_1189957" data-name="Group 1189957" transform="translate(5.522 34.42)">
          <g id="Group_1189955" data-name="Group 1189955">
            <circle id="Ellipse_12260" data-name="Ellipse 12260" cx="8.44" cy="8.44" r="8.44" fill="#a6e7f0"/>
            <path id="Path_1274097" data-name="Path 1274097" d="M81.8,414.491a1.264,1.264,0,1,1,2.081-1.437l1.359,1.963,5.2-3.837a1.264,1.264,0,1,1,1.506,2.031L85.7,417.825l-.035.025a1.264,1.264,0,0,1-1.759-.322Z" transform="translate(-78.782 -405.905)" fill="#f4f8f9" fill-rule="evenodd"/>
          </g>
          <g id="Group_1189956" data-name="Group 1189956" transform="translate(32.957)">
            <circle id="Ellipse_12261" data-name="Ellipse 12261" cx="8.44" cy="8.44" r="8.44" fill="#f79595"/>
            <path id="Path_1274098" data-name="Path 1274098" d="M358.176,403.948a1.268,1.268,0,0,1,1.794,1.794l-2.181,2.181,2.181,2.181a1.268,1.268,0,0,1-1.794,1.794l-2.181-2.181-2.181,2.181a1.268,1.268,0,0,1-1.794-1.794l2.181-2.181-2.181-2.181a1.268,1.268,0,1,1,1.794-1.794l2.181,2.181Z" transform="translate(-347.555 -399.483)" fill="#f4f8f9" fill-rule="evenodd"/>
          </g>
        </g>
      </g>
      <path id="Path_1274099" data-name="Path 1274099" d="M52.285,41.768a.205.205,0,0,0-.2-.2H49.766a.206.206,0,0,0-.2.2v2.315a.206.206,0,0,0,.2.2h2.316a.205.205,0,0,0,.2-.2Zm1.268,0v2.315a1.472,1.472,0,0,1-1.472,1.471H49.766a1.473,1.473,0,0,1-1.472-1.471V41.768A1.473,1.473,0,0,1,49.766,40.3h2.316A1.472,1.472,0,0,1,53.553,41.768Zm-1.268-8.225a.205.205,0,0,0-.2-.2H49.766a.206.206,0,0,0-.2.2v2.315a.206.206,0,0,0,.2.2h2.316a.205.205,0,0,0,.2-.2Zm1.268,0v2.315a1.473,1.473,0,0,1-1.472,1.471H49.766a1.473,1.473,0,0,1-1.472-1.471V33.543a1.473,1.473,0,0,1,1.472-1.471h2.316A1.473,1.473,0,0,1,53.553,33.543ZM62.081,55.52a.635.635,0,0,0-.9,0L59,57.7a.632.632,0,0,1-.9,0l-2.18-2.18a.634.634,0,1,0-.9.9l2.18,2.18a.632.632,0,0,1,0,.9l-2.18,2.182a.634.634,0,1,0,.9.9l2.182-2.18a.632.632,0,0,1,.9,0l2.182,2.18a.634.634,0,1,0,.9-.9L59.9,59.494a.636.636,0,0,1,0-.9l2.182-2.18a.634.634,0,0,0,0-.9Zm.9,1.794-1.732,1.733,1.732,1.733a1.9,1.9,0,1,1-2.69,2.69l-1.732-1.733-1.733,1.733a1.9,1.9,0,1,1-2.69-2.69l1.732-1.733-1.732-1.733a1.9,1.9,0,1,1,2.69-2.69l1.733,1.733,1.732-1.733h0a1.9,1.9,0,1,1,2.69,2.692ZM35.222,24.672H23.96a.634.634,0,0,0,0,1.268H35.222a.634.634,0,1,0,0-1.268Zm17.063.646a.205.205,0,0,0-.2-.2H49.766a.206.206,0,0,0-.2.2v2.315a.206.206,0,0,0,.2.2h2.316a.205.205,0,0,0,.2-.2Zm1.268,0v2.315A1.472,1.472,0,0,1,52.082,29.1H49.766a1.473,1.473,0,0,1-1.472-1.471V25.318a1.473,1.473,0,0,1,1.472-1.471h2.316A1.472,1.472,0,0,1,53.553,25.318ZM38.925,18.06V51.341a1.242,1.242,0,0,1-1.24,1.24H31.957a9.055,9.055,0,0,0-12.719,0H13.51a1.243,1.243,0,0,1-1.241-1.24V23.215h3.886a2.512,2.512,0,0,0,2.509-2.509V16.819h19.02a1.242,1.242,0,0,1,1.24,1.241ZM25.6,51.241A7.805,7.805,0,1,0,33.4,59.046,7.814,7.814,0,0,0,25.6,51.241ZM13.166,21.946h2.989a1.243,1.243,0,0,0,1.241-1.24V17.716ZM40.194,18.06V51.341a2.511,2.511,0,0,1-2.509,2.509H33.03a9.074,9.074,0,1,1-14.865,0H13.51A2.511,2.511,0,0,1,11,51.341V22.58a.63.63,0,0,1,.186-.448l6.394-6.395a.633.633,0,0,1,.449-.186H37.685A2.512,2.512,0,0,1,40.194,18.06ZM56.916,36.5h5.631a.634.634,0,1,0,0-1.268H56.916a.634.634,0,0,0,0,1.268ZM68.179,24.672H56.916a.634.634,0,0,0,0,1.268H68.179a.634.634,0,0,0,0-1.268ZM56.916,28.278h5.631a.634.634,0,1,0,0-1.268H56.916a.634.634,0,0,0,0,1.268ZM71.883,18.06V51.341a1.243,1.243,0,0,1-1.241,1.24H64.914a9.055,9.055,0,0,0-12.719,0H46.467a1.243,1.243,0,0,1-1.241-1.24V23.215h3.886a2.512,2.512,0,0,0,2.51-2.509V16.819h19.02A1.243,1.243,0,0,1,71.883,18.06ZM58.555,51.241a7.805,7.805,0,1,1-7.806,7.806,7.815,7.815,0,0,1,7.806-7.806ZM46.123,21.946h2.988a1.242,1.242,0,0,0,1.241-1.24V17.716ZM73.151,18.06V51.341a2.511,2.511,0,0,1-2.509,2.509H65.987a9.074,9.074,0,1,1-14.865,0H46.467a2.511,2.511,0,0,1-2.509-2.509V22.58a.631.631,0,0,1,.185-.448l6.4-6.395a.633.633,0,0,1,.449-.186H70.642a2.512,2.512,0,0,1,2.509,2.509ZM68.179,41.123H56.916a.634.634,0,0,0,0,1.268H68.179a.634.634,0,0,0,0-1.268Zm0-8.225H56.916a.634.634,0,0,0,0,1.269H68.179a.634.634,0,0,0,0-1.269ZM62.547,43.46H56.916a.634.634,0,0,0,0,1.268h5.631a.634.634,0,1,0,0-1.268ZM23.96,28.278h5.631a.634.634,0,1,0,0-1.268H23.96a.634.634,0,0,0,0,1.268Zm0,8.225h5.631a.634.634,0,1,0,0-1.268H23.96a.634.634,0,0,0,0,1.268ZM19.328,25.318a.206.206,0,0,0-.2-.2H16.81a.206.206,0,0,0-.2.2v2.315a.206.206,0,0,0,.2.2h2.314a.206.206,0,0,0,.2-.2V25.318Zm1.268,0a1.472,1.472,0,0,0-1.472-1.471H16.81a1.472,1.472,0,0,0-1.472,1.471v2.315A1.472,1.472,0,0,0,16.81,29.1h2.314A1.472,1.472,0,0,0,20.6,27.632V25.318ZM19.328,41.768a.206.206,0,0,0-.2-.2H16.81a.206.206,0,0,0-.2.2v2.315a.206.206,0,0,0,.2.2h2.314a.206.206,0,0,0,.2-.2V41.768Zm1.268,0A1.472,1.472,0,0,0,19.124,40.3H16.81a1.472,1.472,0,0,0-1.472,1.471v2.315a1.472,1.472,0,0,0,1.472,1.471h2.314A1.472,1.472,0,0,0,20.6,44.083V41.768ZM35.222,32.9H23.96a.634.634,0,0,0,0,1.269H35.222a.634.634,0,1,0,0-1.269Zm-15.895.646a.206.206,0,0,0-.2-.2H16.81a.206.206,0,0,0-.2.2v2.315a.206.206,0,0,0,.2.2h2.314a.206.206,0,0,0,.2-.2V33.543Zm1.268,0a1.473,1.473,0,0,0-1.472-1.471H16.81a1.473,1.473,0,0,0-1.472,1.471v2.315a1.473,1.473,0,0,0,1.472,1.471h2.314A1.473,1.473,0,0,0,20.6,35.858V33.543Zm9.478,22.979a.629.629,0,0,1-.131.88L23.7,62.01a.661.661,0,0,1-.5.12.611.611,0,0,1-.4-.262l-2.1-3.036a.63.63,0,1,1,1.038-.715L23.1,60.08a.634.634,0,0,0,.9.15l5.2-3.838a.628.628,0,0,1,.881.131Zm1.019-.756a1.9,1.9,0,0,1-.394,2.656l-6.249,4.614a1.928,1.928,0,0,1-1.465.344,1.875,1.875,0,0,1-1.226-.792l-2.1-3.035a0,0,0,0,1,0,0,1.9,1.9,0,0,1,3.126-2.157l.987,1.426,4.671-3.449a1.9,1.9,0,0,1,2.655.394Zm-3.684-41.5a.632.632,0,0,0,.9,0l2.543-2.542a.634.634,0,1,0-.9-.9l-1.46,1.46V5.529H60.181v6.76l-1.46-1.46a.634.634,0,1,0-.9.9l2.542,2.542a.632.632,0,0,0,.9,0L63.8,11.726a.634.634,0,1,0-.9-.9l-1.458,1.46V4.895a.633.633,0,0,0-.634-.635H27.858a.634.634,0,0,0-.635.635v7.394l-1.46-1.46a.634.634,0,1,0-.9.9ZM29.591,43.46H23.96a.634.634,0,0,0,0,1.268h5.631a.634.634,0,1,0,0-1.268Zm6.266-1.7a.635.635,0,0,0-.635-.634H23.96a.634.634,0,0,0,0,1.268H35.222A.635.635,0,0,0,35.857,41.757Z" fill-rule="evenodd"/>
    </g>
  </g>
</svg>
