<svg xmlns="http://www.w3.org/2000/svg" width="78" height="115" viewBox="0 0 78 115">
  <g id="Group_1191355" data-name="Group 1191355" transform="translate(-207.051 -1281)">
    <rect id="Rectangle_411221" data-name="Rectangle 411221" width="78" height="115" rx="7" transform="translate(207.051 1281)" fill="#00ce3b"/>
    <g id="Group_1189877" data-name="Group 1189877" transform="translate(202.051 1295)">
      <path id="Path_1273789" data-name="Path 1273789" d="M80,25.849A1.849,1.849,0,0,1,81.849,24H125.3a1.849,1.849,0,0,1,1.849,1.849V56.358a1.849,1.849,0,0,1-1.849,1.849H80Z" transform="translate(-56.604 -7.075)" fill="#548aff"/>
      <path id="Path_1273790" data-name="Path 1273790" d="M317.868,364.019,323.415,352H309.547L304,364.019Z" transform="translate(-254.717 -297.17)" fill="#8be0e8"/>
      <path id="Path_1273791" data-name="Path 1273791" d="M240,456h21.264v1.849a1.849,1.849,0,0,1-1.849,1.849H241.849A1.849,1.849,0,0,1,240,457.849Z" transform="translate(-198.113 -389.151)" fill="#548aff"/>
      <path id="Path_1273792" data-name="Path 1273792" d="M64,280h6.36v8.321H64Z" transform="translate(-42.453 -233.491)" fill="#ffceb6"/>
      <path id="Path_1273793" data-name="Path 1273793" d="M100.623,240v7.284a1.961,1.961,0,0,1-3.348,1.387L96,247.4V240Z" transform="translate(-70.755 -198.113)" fill="#ffceb6"/>
      <path id="Path_1273794" data-name="Path 1273794" d="M42.774,226.17l-2.155-3.591A4.344,4.344,0,0,1,40,220.344h0A4.344,4.344,0,0,1,44.344,216h6.75a1.849,1.849,0,1,1,0,3.7H48.321l-1.849,2.774v3.7Z" transform="translate(-21.226 -176.887)" fill="#c47220"/>
      <path id="Path_1273795" data-name="Path 1273795" d="M52.66,351.717h-7.6a3.7,3.7,0,0,1-2.749-1.224l-3.521-3.912v7.91H24V341.547A5.547,5.547,0,0,1,29.547,336h6.178a6.472,6.472,0,0,1,5.009,2.374l6.379,7.8H52.66Z" transform="translate(-7.075 -283.019)" fill="#ffb401"/>
      <path id="Path_1273796" data-name="Path 1273796" d="M272,422.472v-5.547h1.849l3.7-.925,4.12,2.472a1.035,1.035,0,0,1-.736,1.9l-3.384-.677-3.205,2.4a1.849,1.849,0,0,1-1.109.37Z" transform="translate(-226.415 -353.774)" fill="#ffceb6"/>
      <path id="Path_1273797" data-name="Path 1273797" d="M344.321,459.7h-6.472A1.849,1.849,0,0,1,336,457.849V456h10.17v1.849A1.849,1.849,0,0,1,344.321,459.7Z" transform="translate(-283.019 -389.151)" fill="#4367e0"/>
      <path id="Path_1273798" data-name="Path 1273798" d="M192,248h5.547v4.623H192Z" transform="translate(-155.66 -205.189)" fill="#ffa100"/>
      <path id="Path_1273799" data-name="Path 1273799" d="M240,216h5.547v8.321H240Z" transform="translate(-198.113 -176.887)" fill="#ffb401"/>
      <path id="Path_1273800" data-name="Path 1273800" d="M288,176h5.547v12.943H288Z" transform="translate(-240.566 -141.509)" fill="#ffc431"/>
      <path id="Path_1273801" data-name="Path 1273801" d="M336,136h5.547v17.566H336Z" transform="translate(-283.019 -106.132)" fill="#ffcc4d"/>
      <path id="Path_1273802" data-name="Path 1273802" d="M384,104h5.547v21.264H384Z" transform="translate(-325.472 -77.83)" fill="#ffd873"/>
      <g id="Group_1189876" data-name="Group 1189876" transform="translate(35.627 20.762)">
        <circle id="Ellipse_12248" data-name="Ellipse 12248" cx="2.027" cy="2.027" r="2.027" transform="translate(0 12.163)" fill="#c5dafa"/>
        <circle id="Ellipse_12249" data-name="Ellipse 12249" cx="1.351" cy="1.351" r="1.351" transform="translate(9.46 6.757)" fill="#c5dafa"/>
        <circle id="Ellipse_12250" data-name="Ellipse 12250" cx="2.027" cy="2.027" r="2.027" transform="translate(17.569 0)" fill="#c5dafa"/>
      </g>
      <path id="Path_1273803" data-name="Path 1273803" d="M68.7,223.717H54.83a.925.925,0,0,0-.839.537L50.8,231.168l-3.48.87H40.476l-6.1-7.457a7.365,7.365,0,0,0-5.543-2.708v-.158a2.89,2.89,0,0,0,1.961-2.733v-5.594A2.773,2.773,0,0,0,29.868,208h-6.75a5.269,5.269,0,0,0-4.518,7.979l2.023,3.371v2.788A6.482,6.482,0,0,0,16,228.34v12.943h1.849V228.34a4.628,4.628,0,0,1,4.623-4.623H28.65a5.527,5.527,0,0,1,4.293,2.035l6.379,7.8a.925.925,0,0,0,.716.339H44.66v3.7H37.987a2.778,2.778,0,0,1-2.062-.918l-7.219-8.021-1.374,1.237,3.461,3.845v7.555h1.849v-5.5l1.909,2.121a4.63,4.63,0,0,0,3.436,1.53h3.135a2.778,2.778,0,0,0,2.615,1.849H61.3a2.777,2.777,0,0,0,2.774-2.774v-1.646l5.462-11.835a.925.925,0,0,0-.839-1.312Zm-40.791-3.7a1.03,1.03,0,0,1-.733-.3l-1-1v-3.035l1.419-2.129h1.354v5.435a1.038,1.038,0,0,1-1.037,1.037Zm-8.209-6.75a3.423,3.423,0,0,1,3.419-3.419h6.75a.925.925,0,1,1,0,1.849H27.094a.924.924,0,0,0-.769.412l-1.849,2.774a.924.924,0,0,0-.155.513v2.774h-2.25l-1.885-3.142a3.42,3.42,0,0,1-.487-1.759Zm2.774,6.75h2.391l1,1a2.873,2.873,0,0,0,1.116.694v.151h-4.51Zm24.038,13.868h.925a.923.923,0,0,0,.224-.028l3.326-.832,3.792,2.275a.111.111,0,0,1-.079.2l-3.384-.677a.925.925,0,0,0-.736.167l-3.205,2.4a.93.93,0,0,1-.555.185h-.308Zm1.972,4.992,1.726-1.294h1.849v.925a2.76,2.76,0,0,0,.159.925h-5.4A2.792,2.792,0,0,0,48.482,238.879Zm13.745-.37a.926.926,0,0,1-.925.925H54.83a.926.926,0,0,1-.925-.925v-.925h8.321Zm.333-2.774H56.647a1.937,1.937,0,0,0-.919-2.019l-3.186-1.911,2.88-6.239H67.253Z" transform="translate(0 -169.811)"/>
      <path id="Path_1273804" data-name="Path 1273804" d="M118.226,16H74.774A2.777,2.777,0,0,0,72,18.774V36.34h1.849V18.774a.926.926,0,0,1,.925-.925h43.453a.926.926,0,0,1,.925.925V49.283a.926.926,0,0,1-.925.925H82.17v1.849h36.057A2.777,2.777,0,0,0,121,49.283V18.774A2.777,2.777,0,0,0,118.226,16Z" transform="translate(-49.528)"/>
      <ellipse id="Ellipse_12251" data-name="Ellipse 12251" cx="1.351" cy="0.676" rx="1.351" ry="0.676" transform="translate(24.816 19.411)"/>
      <ellipse id="Ellipse_12252" data-name="Ellipse 12252" cx="1.351" cy="0.676" rx="1.351" ry="0.676" transform="translate(27.519 19.411)"/>
      <ellipse id="Ellipse_12253" data-name="Ellipse 12253" cx="1.351" cy="0.676" rx="1.351" ry="0.676" transform="translate(30.222 19.411)"/>
      <path id="Path_1273805" data-name="Path 1273805" d="M198.509,96h-5.547a.925.925,0,0,0-.925.925V99.7h-4.623a.925.925,0,0,0-.925.925v3.7h-4.623a.925.925,0,0,0-.925.925v3.7h-4.623a.925.925,0,0,0-.925.925v2.774h-4.623a.925.925,0,0,0-.925.925v3.7H168v1.849h33.283v-1.849h-1.849V96.925A.925.925,0,0,0,198.509,96ZM171.7,114.491h3.7v2.774h-3.7Zm5.547-3.7h3.7v6.472h-3.7Zm5.547-4.623h3.7v11.094h-3.7Zm5.547-4.623h3.7v15.717h-3.7Zm9.245,15.717h-3.7V97.849h3.7Z" transform="translate(-134.434 -70.755)"/>
      <path id="Path_1273806" data-name="Path 1273806" d="M144,64.636h3.857a2.773,2.773,0,0,0,5.268-1.731l4.808-3.543a2.773,2.773,0,0,0,4.34-3.2l4.209-3.1a2.771,2.771,0,0,0,4.17-1.37h5.706V49.843h-5.706a2.773,2.773,0,0,0-5.268,1.731l-4.365,3.217a2.772,2.772,0,0,0-4.026,2.967l-4.965,3.659a2.771,2.771,0,0,0-4.17,1.37H144Zm24.038-14.792a.925.925,0,1,1-.925.925A.925.925,0,0,1,168.038,49.843Zm-8.321,6.472a.925.925,0,1,1-.925.925A.925.925,0,0,1,159.717,56.315Zm-9.245,6.472a.925.925,0,1,1-.925.925.925.925,0,0,1,.925-.925Z" transform="translate(-113.208 -28.296)"/>
      <path id="Path_1273807" data-name="Path 1273807" d="M440,64h1.849v1.849H440Z" transform="translate(-375 -42.453)"/>
      <path id="Path_1273808" data-name="Path 1273808" d="M112,176h1.849v1.849H112Z" transform="translate(-84.906 -141.509)"/>
    </g>
  </g>
</svg>
