<svg xmlns="http://www.w3.org/2000/svg" xmlns:xlink="http://www.w3.org/1999/xlink" width="118" height="118" viewBox="0 0 118 118">
  <defs>
    <filter id="Ellipse_12115" x="0" y="0" width="118" height="118" filterUnits="userSpaceOnUse">
      <feOffset dy="3" input="SourceAlpha"/>
      <feGaussianBlur stdDeviation="3" result="blur"/>
      <feFlood flood-opacity="0.161"/>
      <feComposite operator="in" in2="blur"/>
      <feComposite in="SourceGraphic"/>
    </filter>
  </defs>
  <g id="Group_1189979" data-name="Group 1189979" transform="translate(-321.051 -9604)">
    <g id="Group_1184522" data-name="Group 1184522" transform="translate(-424.73 5758)">
      <g id="Group_1181949" data-name="Group 1181949" transform="translate(-54 1303)">
        <g transform="matrix(1, 0, 0, 1, 799.78, 2543)" filter="url(#Ellipse_12115)">
          <circle id="Ellipse_12115-2" data-name="Ellipse 12115" cx="50" cy="50" r="50" transform="translate(9 6)" fill="#00ce3b"/>
        </g>
      </g>
    </g>
    <g id="Group_1189978" data-name="Group 1189978" transform="translate(325.209 9632)">
      <path id="Path_1274100" data-name="Path 1274100" d="M73.36,7.5H40.342V61.039h41.94V16.422Z" transform="translate(-6.176 -6.176)" fill="#e4e4e4"/>
      <path id="Path_1274101" data-name="Path 1274101" d="M74.741,11.961h-34.4V7.5H73.36Z" transform="translate(-6.176 -6.176)" fill="#007934"/>
      <path id="Path_1274102" data-name="Path 1274102" d="M227.321,16.422h8.922L227.321,7.5Z" transform="translate(-160.136 -6.176)" fill="#d1d3d3"/>
      <g id="Group_1189977" data-name="Group 1189977" transform="translate(45.021 15.512)">
        <rect id="Rectangle_411269" data-name="Rectangle 411269" width="5.876" height="2.723" transform="translate(7.177)" fill="#007934"/>
        <rect id="Rectangle_411270" data-name="Rectangle 411270" width="5.876" height="2.723" transform="translate(14.355)" fill="#007934"/>
        <rect id="Rectangle_411271" data-name="Rectangle 411271" width="5.876" height="2.723" transform="translate(7.177 3.941)" fill="#007934"/>
        <rect id="Rectangle_411272" data-name="Rectangle 411272" width="5.876" height="2.723" transform="translate(14.355 3.941)" fill="#007934"/>
        <rect id="Rectangle_411273" data-name="Rectangle 411273" width="5.876" height="2.723" transform="translate(7.177 7.882)" fill="#007934"/>
        <rect id="Rectangle_411274" data-name="Rectangle 411274" width="5.876" height="2.723" transform="translate(14.355 7.882)" fill="#007934"/>
        <rect id="Rectangle_411275" data-name="Rectangle 411275" width="5.876" height="2.723" transform="translate(0 7.882)" fill="#007934"/>
        <rect id="Rectangle_411276" data-name="Rectangle 411276" width="5.876" height="2.723" transform="translate(7.177 11.823)" fill="#007934"/>
        <rect id="Rectangle_411277" data-name="Rectangle 411277" width="5.876" height="2.723" transform="translate(14.355 11.823)" fill="#007934"/>
        <rect id="Rectangle_411278" data-name="Rectangle 411278" width="5.876" height="2.723" transform="translate(0 11.823)" fill="#007934"/>
        <g id="Group_1189976" data-name="Group 1189976" transform="translate(0.081 0.653)">
          <path id="Path_1274103" data-name="Path 1274103" d="M107.975,97.212H106.2L105.1,95.439,104,97.212h-1.734l1.882-2.9-1.769-2.77h1.7l1.024,1.754.986-1.754h1.75l-1.8,2.891Z" transform="translate(-102.268 -91.54)" fill="#007934"/>
        </g>
      </g>
      <path id="Path_1274104" data-name="Path 1274104" d="M77.043,9.31,68.121.388A1.324,1.324,0,0,0,67.185,0H34.166a1.324,1.324,0,0,0-1.324,1.324V54.864a1.324,1.324,0,0,0,1.324,1.324h41.94a1.324,1.324,0,0,0,1.324-1.324V10.246A1.323,1.323,0,0,0,77.043,9.31ZM68.509,4.522l4.4,4.4h-4.4v-4.4ZM35.491,2.649H65.86V4.461H35.491Zm39.291,50.89H35.491V7.11H65.86v3.137a1.324,1.324,0,0,0,1.324,1.324h7.6V53.539ZM48.652,41.584a3.168,3.168,0,0,1,.975.146,7.619,7.619,0,0,1,.908.359l.678-1.743a5.826,5.826,0,0,0-2.539-.577,4.161,4.161,0,0,0-2.116.519,3.428,3.428,0,0,0-1.379,1.482A4.96,4.96,0,0,0,44.7,44a4.438,4.438,0,0,0,.989,3.111,3.671,3.671,0,0,0,2.844,1.076,5.679,5.679,0,0,0,2.32-.454V45.865a10.5,10.5,0,0,1-1.026.364,3.687,3.687,0,0,1-1.054.151q-1.8,0-1.8-2.365a3.127,3.127,0,0,1,.443-1.785A1.413,1.413,0,0,1,48.652,41.584Zm5.868.107a1.034,1.034,0,0,1,.628-.151,4.913,4.913,0,0,1,1.984.527l.678-1.71a6.353,6.353,0,0,0-2.595-.589,3.631,3.631,0,0,0-2.264.633,2.1,2.1,0,0,0-.824,1.765,2.606,2.606,0,0,0,.193,1.048,2.169,2.169,0,0,0,.594.785,5.22,5.22,0,0,0,1.2.706q.885.4,1.09.527a1.078,1.078,0,0,1,.3.255.483.483,0,0,1,.093.294.525.525,0,0,1-.23.44,1.219,1.219,0,0,1-.723.171,4.906,4.906,0,0,1-1.255-.182,6.589,6.589,0,0,1-1.317-.507v1.973a5.1,5.1,0,0,0,1.155.4,6.914,6.914,0,0,0,1.373.115,4.137,4.137,0,0,0,1.71-.328,2.532,2.532,0,0,0,1.115-.919,2.415,2.415,0,0,0,.387-1.354,2.221,2.221,0,0,0-.412-1.376,3.744,3.744,0,0,0-1.471-1.023,9.475,9.475,0,0,1-1.354-.7.542.542,0,0,1-.249-.431A.457.457,0,0,1,54.52,41.69Zm8.02,2.371q-.09.336-.207.925t-.157.981a12.693,12.693,0,0,0-.381-1.928L60.68,39.885H58.191l2.673,8.194h2.606l2.684-8.194H63.678Z" transform="translate(0 0)" fill="#333e48"/>
    </g>
  </g>
</svg>
