<svg xmlns="http://www.w3.org/2000/svg" xmlns:xlink="http://www.w3.org/1999/xlink" width="118" height="118" viewBox="0 0 118 118">
  <defs>
    <filter id="Ellipse_12115" x="0" y="0" width="118" height="118" filterUnits="userSpaceOnUse">
      <feOffset dy="3" input="SourceAlpha"/>
      <feGaussianBlur stdDeviation="3" result="blur"/>
      <feFlood flood-opacity="0.161"/>
      <feComposite operator="in" in2="blur"/>
      <feComposite in="SourceGraphic"/>
    </filter>
  </defs>
  <g id="Group_1189983" data-name="Group 1189983" transform="translate(-742.051 -9604)">
    <g id="Group_1184522" data-name="Group 1184522" transform="translate(-3.73 5758)">
      <g id="Group_1181949" data-name="Group 1181949" transform="translate(-54 1303)">
        <g transform="matrix(1, 0, 0, 1, 799.78, 2543)" filter="url(#Ellipse_12115)">
          <circle id="Ellipse_12115-2" data-name="Ellipse 12115" cx="50" cy="50" r="50" transform="translate(9 6)" fill="#00ce3b"/>
        </g>
      </g>
    </g>
    <g id="Group_1189982" data-name="Group 1189982" transform="translate(766.805 9608.993)">
      <g id="Group_1189980" data-name="Group 1189980" transform="translate(0.975 21.438)">
        <path id="Path_1274105" data-name="Path 1274105" d="M197.314,87.1H161.267l-7.336-7.336V30.043a2.075,2.075,0,0,1,2.075-2.075h41.308a2.075,2.075,0,0,1,2.075,2.075V85.029A2.074,2.074,0,0,1,197.314,87.1Z" transform="translate(-134.946 -27.968)" fill="#dff6fd"/>
        <path id="Path_1274106" data-name="Path 1274106" d="M468.829,30.041V85.028a2.075,2.075,0,0,1-2.075,2.075h-3.242a2.075,2.075,0,0,0,2.075-2.075V30.041a2.075,2.075,0,0,0-2.075-2.075h3.242A2.075,2.075,0,0,1,468.829,30.041Z" transform="translate(-404.387 -27.966)" fill="#d8ecfe"/>
        <path id="Path_1274107" data-name="Path 1274107" d="M153.931,427.468h6.8a.538.538,0,0,1,.538.538v6.8Z" transform="translate(-134.946 -375.668)" fill="#d8ecfe"/>
        <path id="Path_1274108" data-name="Path 1274108" d="M164.167,78.4h-31.4a1.815,1.815,0,0,1-1.815-1.815V64.426a1.815,1.815,0,0,1,1.815-1.815h31.4a1.815,1.815,0,0,1,1.815,1.815V76.589A1.815,1.815,0,0,1,164.167,78.4Z" transform="translate(-114.951 -58.119)" fill="#fe5694"/>
        <path id="Path_1274109" data-name="Path 1274109" d="M367.14,64.423V76.587a1.815,1.815,0,0,1-1.815,1.815h-3.242a1.815,1.815,0,0,0,1.815-1.815V64.423a1.815,1.815,0,0,0-1.815-1.815h3.242A1.815,1.815,0,0,1,367.14,64.423Z" transform="translate(-316.108 -58.116)" fill="#fd3581"/>
        <path id="Path_1274110" data-name="Path 1274110" d="M33.7,333.015v5.594c0,2.518-5.861,4.559-13.091,4.559s-13.089-2.041-13.089-4.559v-5.594Z" transform="translate(-7.514 -293.462)" fill="#3692bc"/>
        <path id="Path_1274111" data-name="Path 1274111" d="M172.845,333.015v5.594c0,1.525-2.148,2.875-5.45,3.7,1.4-.725,2.208-1.6,2.208-2.535v-6.761Z" transform="translate(-146.664 -293.462)" fill="#0681af"/>
        <path id="Path_1274112" data-name="Path 1274112" d="M33.7,291.015v5.594c0,2.518-5.861,4.559-13.091,4.559s-13.089-2.041-13.089-4.559v-5.594Z" transform="translate(-7.514 -256.908)" fill="#8abbd5"/>
        <path id="Path_1274113" data-name="Path 1274113" d="M187.667,291.015v5.594c0,1.15-1.223,2.2-3.242,3v-8.6Z" transform="translate(-161.486 -256.908)" fill="#6cabca"/>
        <path id="Path_1274114" data-name="Path 1274114" d="M33.7,250.149H7.515V255.6c0,2.517,5.861,4.558,13.089,4.558S33.7,258.112,33.7,255.6Z" transform="translate(-7.514 -221.34)" fill="#3692bc"/>
        <path id="Path_1274115" data-name="Path 1274115" d="M187.667,250.145v5.447c0,1.149-1.223,2.2-3.242,3v-8.449Z" transform="translate(-161.486 -221.337)" fill="#0681af"/>
        <ellipse id="Ellipse_12262" data-name="Ellipse 12262" cx="13.09" cy="4.559" rx="13.09" ry="4.559" transform="translate(0 24.25)" fill="#8abbd5"/>
        <path id="Path_1274116" data-name="Path 1274116" d="M187.668,230c0,1.15-1.223,2.2-3.242,3h0a11.221,11.221,0,0,0,0-6C186.445,227.8,187.668,228.847,187.668,230Z" transform="translate(-161.487 -201.189)" fill="#6cabca"/>
      </g>
      <g id="Group_1189981" data-name="Group 1189981" transform="translate(0.001 20.466)">
        <path id="Path_1274117" data-name="Path 1274117" d="M63.342,20.466H22.035a3.05,3.05,0,0,0-3.047,3.047v1.445H18.8a2.791,2.791,0,0,0-2.788,2.788V39.908A2.791,2.791,0,0,0,18.8,42.7h.192v2.343C12.847,43.973-.161,45.373,0,50.245v16.34c-.165,4.875,12.843,6.274,18.985,5.209v1.444c0,.006,0,.012,0,.019a.971.971,0,0,0,.283.669l7.336,7.336a.971.971,0,0,0,.675.284h36.06A3.05,3.05,0,0,0,66.389,78.5V23.513a3.05,3.05,0,0,0-3.047-3.047ZM17.953,39.908V27.746A.844.844,0,0,1,18.8,26.9h31.4a.844.844,0,0,1,.843.843V39.908a.844.844,0,0,1-.843.843H18.8a.844.844,0,0,1-.843-.843Zm-3.888,6.753c7.395,0,12.114,2.123,12.117,3.585h0v0c0,1.462-4.723,3.584-12.117,3.584S1.947,51.709,1.947,50.247s4.721-3.586,12.118-3.586Zm12.117,9.033c-.684,2.685-8.654,3.659-12.117,3.585-3.467.073-11.43-.9-12.118-3.585V53.2C7.133,56.63,21,56.63,26.182,53.2ZM1.947,58.645c5.491,3.38,18.3,3.569,24.235-.011V61.14c-.684,2.685-8.654,3.659-12.117,3.585-3.467.073-11.43-.9-12.118-3.585Zm0,7.94V64.091c5.491,3.38,18.3,3.569,24.235-.011v2.506c0,1.462-4.72,3.586-12.117,3.586S1.947,68.048,1.947,66.585ZM26.323,78.227l-4.016-4.016h4.016Zm38.121.273a1.1,1.1,0,0,1-1.1,1.1H28.268V73.776a1.512,1.512,0,0,0-1.51-1.51H20.933v-.8c4.109-.839,7.195-2.482,7.195-4.881V50.253c0-2.4-3.083-4.046-7.195-4.886V42.7H50.191a2.791,2.791,0,0,0,2.788-2.788V27.746a2.791,2.791,0,0,0-2.788-2.788H20.932V23.513a1.1,1.1,0,0,1,1.1-1.1H63.342a1.1,1.1,0,0,1,1.1,1.1Z" transform="translate(-0.001 -20.466)"/>
        <path id="Path_1274118" data-name="Path 1274118" d="M330.266,94.387h-.006c-.513,0-1.159.005-1.678.006V87.78a.972.972,0,0,0-1.945,0v7.579a.972.972,0,0,0,.808.958c.5.045,1.761.011,2.826.014a.972.972,0,0,0-.005-1.945Z" transform="translate(-284.285 -78.212)"/>
        <path id="Path_1274119" data-name="Path 1274119" d="M174.53,90.674c-.928-.342-1.791-.715-2.061-.833-.352-.315-.188-.878.412-1.057a2.5,2.5,0,0,1,2.065.478.972.972,0,0,0,1.246-1.493,4.445,4.445,0,0,0-3.872-.847,2.558,2.558,0,0,0-.864,4.584.971.971,0,0,0,.135.073c.044.02,1.089.485,2.266.919.327.121,1.076.46.979,1.006-.364,1.291-2.5.918-3.224.038a.972.972,0,1,0-1.441,1.306,4.589,4.589,0,0,0,3.364,1.444C176.859,96.287,178.354,92.081,174.53,90.674Z" transform="translate(-147.887 -78.166)"/>
        <path id="Path_1274120" data-name="Path 1274120" d="M246.681,94.1a4.764,4.764,0,1,0-1.362,1.388l.489.489a.972.972,0,0,0,1.375-1.375Zm-4.008.248a2.82,2.82,0,1,1,2.578-1.678l-.495-.495a.972.972,0,1,0-1.375,1.375l.517.517A2.8,2.8,0,0,1,242.673,94.344Z" transform="translate(-207.06 -78.163)"/>
        <path id="Path_1274121" data-name="Path 1274121" d="M337.262,232.347a.974.974,0,0,0,1.263-.544l3.464-8.71a.972.972,0,1,0-1.807-.719l-3.464,8.71A.972.972,0,0,0,337.262,232.347Z" transform="translate(-292.998 -195.66)"/>
        <path id="Path_1274122" data-name="Path 1274122" d="M395.852,234.672a.972.972,0,0,0,1.329-.354l2.326-4.016a.973.973,0,0,0-.009-.99l-2.326-3.859a.972.972,0,0,0-1.666,1l2.029,3.366-2.038,3.519A.973.973,0,0,0,395.852,234.672Z" transform="translate(-344.103 -198.465)"/>
        <path id="Path_1274123" data-name="Path 1274123" d="M289.165,234.318a.972.972,0,0,0,1.683-.975l-2.038-3.519,2.029-3.366a.972.972,0,0,0-1.666-1l-2.326,3.859a.972.972,0,0,0-.009.99Z" transform="translate(-249.533 -198.465)"/>
        <path id="Path_1274124" data-name="Path 1274124" d="M273.79,321.937H246.747a.972.972,0,0,0,0,1.945H273.79A.972.972,0,0,0,273.79,321.937Z" transform="translate(-213.913 -282.848)"/>
        <path id="Path_1274125" data-name="Path 1274125" d="M273.79,354.937H246.747a.972.972,0,0,0,0,1.945H273.79A.972.972,0,0,0,273.79,354.937Z" transform="translate(-213.913 -311.569)"/>
        <path id="Path_1274126" data-name="Path 1274126" d="M273.79,387.937H246.747a.972.972,0,0,0,0,1.945H273.79A.972.972,0,0,0,273.79,387.937Z" transform="translate(-213.913 -340.29)"/>
        <path id="Path_1274127" data-name="Path 1274127" d="M273.79,420.937H246.747a.972.972,0,0,0,0,1.945H273.79A.972.972,0,0,0,273.79,420.937Z" transform="translate(-213.913 -369.011)"/>
      </g>
    </g>
  </g>
</svg>
