<svg xmlns="http://www.w3.org/2000/svg" width="505" height="386" viewBox="0 0 505 386">
  <g id="Group_1189990" data-name="Group 1189990" transform="translate(-264.051 -12588)">
    <g id="Group_1189989" data-name="Group 1189989" transform="translate(264.051 12588)">
      <path id="Rectangle_389225" data-name="Rectangle 389225" d="M9,0H496a9,9,0,0,1,9,9V55a0,0,0,0,1,0,0H0a0,0,0,0,1,0,0V9A9,9,0,0,1,9,0Z" fill="#3a1d71"/>
      <path id="Rectangle_389226" data-name="Rectangle 389226" d="M0,0H505a0,0,0,0,1,0,0V322a9,9,0,0,1-9,9H9a9,9,0,0,1-9-9V0A0,0,0,0,1,0,0Z" transform="translate(0 55)" fill="#110628"/>
      <circle id="Ellipse_11380" data-name="Ellipse 11380" cx="8" cy="8" r="8" transform="translate(32 19)" fill="#fb130d"/>
      <circle id="Ellipse_11381" data-name="Ellipse 11381" cx="8" cy="8" r="8" transform="translate(67 19)" fill="#fecd02"/>
      <circle id="Ellipse_11382" data-name="Ellipse 11382" cx="8" cy="8" r="8" transform="translate(108 19)" fill="#43dfaa"/>
    </g>
    <text id="_nombre_:_María_García_edad_:_28_activo_:_true_hobbies_:_lectura_natación_fotografía_direccion_:_calle_:_Av._Principal_123_ciudad_:_Madrid_codigo_postal_:_28001_telefono_:_null_" data-name="{
  “nombre”: “María García”,
  “edad”: 28,
  “activo”: true,
  “hobbies”: [“lectura”, “natación”, “fotografía”],
  “direccion”: {
    “calle”: “Av. Principal 123”,
    “ciudad”: “Madrid”,
    “codigo_postal”: “28001”
  },
  “telefono”: null
}" transform="translate(290.051 12664)" fill="#fff" font-size="16" font-family="Roboto-BoldItalic, Roboto" font-weight="700" font-style="italic"><tspan x="0" y="15">{</tspan><tspan x="0" y="38" xml:space="preserve">  “nombre”: “María García”,</tspan><tspan x="0" y="61" xml:space="preserve">  “edad”: 28,</tspan><tspan x="0" y="84" xml:space="preserve">  “activo”: true,</tspan><tspan x="0" y="107" xml:space="preserve">  “hobbies”: [“lectura”, “natación”, “fotografía”],</tspan><tspan x="0" y="130" xml:space="preserve">  “direccion”: {</tspan><tspan x="0" y="153" xml:space="preserve">    “calle”: “Av. Principal 123”,</tspan><tspan x="0" y="176" xml:space="preserve">    “ciudad”: “Madrid”,</tspan><tspan x="0" y="199" xml:space="preserve">    “codigo_postal”: “28001”</tspan><tspan x="0" y="222" xml:space="preserve">  },</tspan><tspan x="0" y="245" xml:space="preserve">  “telefono”: null</tspan><tspan x="0" y="268">}</tspan></text>
  </g>
</svg>
