<svg xmlns="http://www.w3.org/2000/svg" xmlns:xlink="http://www.w3.org/1999/xlink" width="118" height="118" viewBox="0 0 118 118">
  <defs>
    <filter id="Ellipse_12115" x="0" y="0" width="118" height="118" filterUnits="userSpaceOnUse">
      <feOffset dy="3" input="SourceAlpha"/>
      <feGaussianBlur stdDeviation="3" result="blur"/>
      <feFlood flood-opacity="0.161"/>
      <feComposite operator="in" in2="blur"/>
      <feComposite in="SourceGraphic"/>
    </filter>
  </defs>
  <g id="Group_1189986" data-name="Group 1189986" transform="translate(-1161.051 -9604)">
    <g id="Group_1184522" data-name="Group 1184522" transform="translate(415.27 5758)">
      <g id="Group_1181949" data-name="Group 1181949" transform="translate(-54 1303)">
        <g transform="matrix(1, 0, 0, 1, 799.78, 2543)" filter="url(#Ellipse_12115)">
          <circle id="Ellipse_12115-2" data-name="Ellipse 12115" cx="50" cy="50" r="50" transform="translate(9 6)" fill="#00ce3b"/>
        </g>
      </g>
    </g>
    <g id="Group_1189985" data-name="Group 1189985" transform="translate(1193.051 9633)">
      <rect id="Rectangle_411279" data-name="Rectangle 411279" width="50" height="40" rx="2" transform="translate(2 2.055)" fill="#e2e7f6"/>
      <path id="Path_1274128" data-name="Path 1274128" d="M3.679,2A1.679,1.679,0,0,0,2,3.679v36.1H47.338A1.679,1.679,0,0,0,49.018,38.1V2Z" transform="translate(-0.16 -0.16)" fill="#f7fafd"/>
      <path id="Path_1274129" data-name="Path 1274129" d="M50.7,2H3.679A1.679,1.679,0,0,0,2,3.679V8.717H52.376V3.679A1.679,1.679,0,0,0,50.7,2Z" transform="translate(-0.16 -0.16)" fill="#5e87ca"/>
      <path id="Path_1274130" data-name="Path 1274130" d="M26,18H52.867V32.273H26Z" transform="translate(-4.01 -2.727)" fill="#f0ae42"/>
      <path id="Path_1274131" data-name="Path 1274131" d="M49.018,2H3.679A1.679,1.679,0,0,0,2,3.679V8.717H49.018Z" transform="translate(-0.16 -0.16)" fill="#78a0d4"/>
      <path id="Path_1274132" data-name="Path 1274132" d="M50.7,48.717H3.679A1.679,1.679,0,0,1,2,47.038V42H52.376v5.038A1.679,1.679,0,0,1,50.7,48.717Z" transform="translate(-0.16 -6.576)" fill="#5e87ca"/>
      <path id="Path_1274133" data-name="Path 1274133" d="M2,42v4.2H47.338a1.679,1.679,0,0,0,1.679-1.679V42Z" transform="translate(-0.16 -6.576)" fill="#78a0d4"/>
      <path id="Path_1274134" data-name="Path 1274134" d="M5,45h6.717v1.679H5Z" transform="translate(-0.642 -7.058)" fill="#f7fafd"/>
      <path id="Path_1274135" data-name="Path 1274135" d="M15,45h1.679v1.679H15Z" transform="translate(-2.246 -7.058)" fill="#f7fafd"/>
      <path id="Path_1274136" data-name="Path 1274136" d="M40.829,58H17.717a1.679,1.679,0,0,0-1.5.929L15,61.358H43.546l-1.215-2.43A1.679,1.679,0,0,0,40.829,58Z" transform="translate(-2.246 -9.143)" fill="#3b5892"/>
      <path id="Path_1274137" data-name="Path 1274137" d="M37.434,56.717,35.754,50H25.679L24,56.717Z" transform="translate(-3.689 -7.86)" fill="#c8cded"/>
      <path id="Path_1274138" data-name="Path 1274138" d="M40.348,58.84V58H17.877a1.679,1.679,0,0,0-1.5.929L16,59.679H39.509A.84.84,0,0,0,40.348,58.84Z" transform="translate(-2.406 -9.143)" fill="#4c6cb5"/>
      <g id="Group_1189984" data-name="Group 1189984" transform="translate(21.99 4.358)">
        <path id="Path_1274139" data-name="Path 1274139" d="M30,5h3.358V6.679H30Z" transform="translate(-26.642 -5)" fill="#f7fafd"/>
        <path id="Path_1274140" data-name="Path 1274140" d="M36,5h1.679V6.679H36Z" transform="translate(-27.604 -5)" fill="#f7fafd"/>
        <path id="Path_1274141" data-name="Path 1274141" d="M26,5h1.679V6.679H26Z" transform="translate(-26 -5)" fill="#f7fafd"/>
        <path id="Path_1274142" data-name="Path 1274142" d="M40.633,26.482l-1.444-4.334A1.679,1.679,0,0,0,37.593,21h-.468a1.679,1.679,0,0,0-1.6,1.148l-1.445,4.334a1.679,1.679,0,0,0-.084.531V29.4h1.679V27.717h3.358V29.4h1.679V27.013A1.679,1.679,0,0,0,40.633,26.482Zm-3.04-3.8,1.12,3.358H36l1.12-3.358Z" transform="translate(-27.283 -7.566)" fill="#f7fafd"/>
        <path id="Path_1274143" data-name="Path 1274143" d="M44.679,29.4H43V21.84a.84.84,0,0,1,.84-.84h2.939a2.939,2.939,0,0,1,0,5.877h-2.1Zm0-4.2h2.1a1.259,1.259,0,0,0,0-2.519h-2.1Z" transform="translate(-28.727 -7.566)" fill="#f7fafd"/>
        <path id="Path_1274144" data-name="Path 1274144" d="M52,21h1.679v8.4H52Z" transform="translate(-30.17 -7.566)" fill="#f7fafd"/>
      </g>
      <path id="Path_1274145" data-name="Path 1274145" d="M26.15,25.754V22.4H24.3a8.348,8.348,0,0,0-1.225-2.949l1.309-1.309-2.375-2.375L20.7,17.073a8.348,8.348,0,0,0-2.949-1.226V14H14.4v1.847a8.348,8.348,0,0,0-2.949,1.225l-1.309-1.309L7.763,18.138l1.31,1.309A8.348,8.348,0,0,0,7.847,22.4H6v3.358H7.847A8.348,8.348,0,0,0,9.073,28.7l-1.31,1.309,2.375,2.375,1.309-1.309A8.348,8.348,0,0,0,14.4,32.3V34.15h3.358V32.3A8.348,8.348,0,0,0,20.7,31.078l1.309,1.309,2.375-2.375L23.077,28.7A8.348,8.348,0,0,0,24.3,25.754Z" transform="translate(-0.802 -2.085)" fill="#b5b5b5"/>
      <circle id="Ellipse_12263" data-name="Ellipse 12263" cx="5" cy="5" r="5" transform="translate(10 17.055)" fill="#f2f2f2"/>
      <path id="Path_1274146" data-name="Path 1274146" d="M17.754,15.847V14H14.4v1.847a8.348,8.348,0,0,0-2.949,1.225l-1.309-1.309L7.763,18.138l1.31,1.309A8.348,8.348,0,0,0,7.847,22.4H6v3.358H7.847A8.348,8.348,0,0,0,9.073,28.7L7.8,29.978a11.146,11.146,0,0,0,13.1-13.1l-.2.2a8.348,8.348,0,0,0-2.949-1.23Z" transform="translate(-0.802 -2.085)" fill="#ccc"/>
      <path id="Path_1274147" data-name="Path 1274147" d="M21.65,23.017a5.038,5.038,0,1,0-5.709,6.934A11.167,11.167,0,0,0,21.65,23.017Z" transform="translate(-1.764 -3.047)" fill="#f7fafd"/>
      <path id="Path_1274148" data-name="Path 1274148" d="M35.679,27.717h3.358V29.4h1.679V27.013a1.679,1.679,0,0,0-.084-.531l-1.444-4.334A1.679,1.679,0,0,0,37.593,21h-.468a1.679,1.679,0,0,0-1.6,1.148l-1.445,4.334a1.679,1.679,0,0,0-.084.531V29.4h1.679Zm1.913-5.038,1.12,3.358H36l1.12-3.358Z" transform="translate(-5.293 -3.208)"/>
      <path id="Path_1274149" data-name="Path 1274149" d="M44.679,26.877h2.1a2.939,2.939,0,0,0,0-5.877H43.84a.84.84,0,0,0-.84.84V29.4h1.679Zm0-4.2h2.1a1.259,1.259,0,0,1,0,2.519h-2.1Z" transform="translate(-6.737 -3.208)"/>
      <path id="Path_1274150" data-name="Path 1274150" d="M52,21h1.679v8.4H52Z" transform="translate(-8.18 -3.208)"/>
      <path id="Path_1274151" data-name="Path 1274151" d="M50.536,1H3.519A2.519,2.519,0,0,0,1,3.519V40.461A2.519,2.519,0,0,0,3.519,42.98h17.4l-1.259,5.038H15.471a2.505,2.505,0,0,0-2.253,1.392L12,51.84a.84.84,0,0,0,.751,1.215H41.3a.84.84,0,0,0,.756-1.215L40.841,49.41a2.505,2.505,0,0,0-2.257-1.392H34.4L33.141,42.98h17.4a2.519,2.519,0,0,0,2.519-2.519V3.519A2.519,2.519,0,0,0,50.536,1ZM3.519,2.679H50.536a.84.84,0,0,1,.84.84v4.2H2.679v-4.2A.84.84,0,0,1,3.519,2.679ZM51.376,9.4V34.584H2.679V9.4ZM39.334,50.161l.608,1.215H14.113l.608-1.215a.835.835,0,0,1,.751-.464H38.584a.835.835,0,0,1,.751.464Zm-6.666-2.144H21.386l1.259-5.038h8.764ZM50.536,41.3H3.519a.84.84,0,0,1-.84-.84v-4.2h48.7v4.2A.84.84,0,0,1,50.536,41.3Z"/>
      <path id="Path_1274152" data-name="Path 1274152" d="M30,5h3.358V6.679H30Z" transform="translate(-4.652 -0.642)"/>
      <path id="Path_1274153" data-name="Path 1274153" d="M36,5h1.679V6.679H36Z" transform="translate(-5.614 -0.642)"/>
      <path id="Path_1274154" data-name="Path 1274154" d="M26,5h1.679V6.679H26Z" transform="translate(-4.01 -0.642)"/>
      <path id="Path_1274155" data-name="Path 1274155" d="M5,45h6.717v1.679H5Z" transform="translate(-0.642 -7.058)"/>
      <path id="Path_1274156" data-name="Path 1274156" d="M15,45h1.679v1.679H15Z" transform="translate(-2.246 -7.058)"/>
      <path id="Path_1274157" data-name="Path 1274157" d="M5.84,26.434H7.028a9.164,9.164,0,0,0,.827,1.982l-.84.84a.84.84,0,0,0,0,1.187l2.374,2.374a.84.84,0,0,0,1.187,0l.84-.84a9.164,9.164,0,0,0,1.98.824V33.99a.84.84,0,0,0,.84.84h3.358a.84.84,0,0,0,.84-.84V32.8a9.165,9.165,0,0,0,1.982-.824l.84.84a.84.84,0,0,0,1.187,0l.512-.507H49.5a.84.84,0,0,0,.84-.84V17.2a.84.84,0,0,0-.84-.84h-25.7L22.445,15.01a.84.84,0,0,0-1.187,0l-.84.84a9.14,9.14,0,0,0-1.985-.822V13.84a.84.84,0,0,0-.84-.84H14.236a.84.84,0,0,0-.84.84v1.188a9.14,9.14,0,0,0-1.982.824l-.84-.84a.84.84,0,0,0-1.187,0L7.01,17.384a.84.84,0,0,0,0,1.187l.84.84A9.164,9.164,0,0,0,7.028,21.4H5.84a.84.84,0,0,0-.84.84v3.358a.84.84,0,0,0,.84.84Zm42.82,4.2H24.634l.186-.186a.84.84,0,0,0,0-1.187l-.84-.84a9.164,9.164,0,0,0,.822-1.985H25.99a.84.84,0,0,0,.84-.84V22.236a.84.84,0,0,0-.84-.84H24.8a9.164,9.164,0,0,0-.824-1.982l.84-.84a.83.83,0,0,0,.235-.534H48.659ZM6.679,23.075H7.687A.84.84,0,0,0,8.51,22.4a7.472,7.472,0,0,1,1.1-2.651.84.84,0,0,0-.106-1.058l-.715-.715,1.187-1.187.715.714a.84.84,0,0,0,1.057.107,7.472,7.472,0,0,1,2.654-1.1.84.84,0,0,0,.672-.824V14.679h1.679v1.008a.84.84,0,0,0,.672.824,7.472,7.472,0,0,1,2.652,1.1.84.84,0,0,0,1.057-.107l.715-.714,1.187,1.187-.715.715a.84.84,0,0,0-.106,1.058,7.472,7.472,0,0,1,1.1,2.653.84.84,0,0,0,.823.672H25.15v1.679H24.143a.84.84,0,0,0-.823.672,7.472,7.472,0,0,1-1.1,2.651.84.84,0,0,0,.106,1.058l.715.715-1.187,1.187-.715-.715a.84.84,0,0,0-1.058-.107,7.441,7.441,0,0,1-2.653,1.1.84.84,0,0,0-.672.824V33.15H15.075V32.143a.84.84,0,0,0-.672-.824,7.44,7.44,0,0,1-2.651-1.1.84.84,0,0,0-1.058.107l-.715.715L8.791,29.852l.715-.715a.84.84,0,0,0,.106-1.058,7.472,7.472,0,0,1-1.1-2.652.84.84,0,0,0-.824-.672H6.679Z" transform="translate(-0.642 -1.925)"/>
      <path id="Path_1274158" data-name="Path 1274158" d="M16.877,30.754A5.877,5.877,0,1,0,11,24.877a5.877,5.877,0,0,0,5.877,5.877Zm0-10.075a4.2,4.2,0,1,1-4.2,4.2A4.2,4.2,0,0,1,16.877,20.679Z" transform="translate(-1.604 -2.887)"/>
    </g>
  </g>
</svg>
