<svg xmlns="http://www.w3.org/2000/svg" width="190" height="144" viewBox="0 0 190 144">
  <g id="Group_1191356" data-name="Group 1191356" transform="translate(-180.051 -14545)">
    <rect id="Rectangle_411297" data-name="Rectangle 411297" width="190" height="144" rx="13" transform="translate(180.051 14545)" fill="#00ce3b"/>
    <g id="Group_1190007" data-name="Group 1190007" transform="translate(226.051 14568)">
      <g id="Group_1189998" data-name="Group 1189998" transform="translate(1.425 1.424)">
        <g id="Group_1189993" data-name="Group 1189993" transform="translate(56.88 66.147)">
          <path id="Path_1274159" data-name="Path 1274159" d="M424.338,394.306v11.321a5.3,5.3,0,0,1-3.586,5.019C406.8,406.9,403.127,399.536,406.982,389H419.03A5.307,5.307,0,0,1,424.338,394.306Z" transform="translate(-386.83 -382.694)" fill="#b2aee4"/>
          <path id="Path_1274160" data-name="Path 1274160" d="M340.923,383.75a5.23,5.23,0,0,1-1.723.289H312.308A5.307,5.307,0,0,1,307,378.73V367.409a5.307,5.307,0,0,1,5.308-5.306h3.821a1.239,1.239,0,0,0,1.238-1.24V357.57a1.769,1.769,0,0,1,3.029-1.242l5.175,5.247a1.766,1.766,0,0,0,1.259.528h.321C326.677,372.444,331.345,379.748,340.923,383.75Z" transform="translate(-307 -355.797)" fill="#a29cde"/>
        </g>
        <g id="Group_1189995" data-name="Group 1189995" transform="translate(0 15.383)">
          <path id="Path_1274161" data-name="Path 1274161" d="M164.943,114.687l-3.542-.706a2.746,2.746,0,0,1-2.068-1.8,25.079,25.079,0,0,0-1.274-3.073,2.752,2.752,0,0,1,.188-2.737l2.006-3.006a2.767,2.767,0,0,0-.346-3.491l-4.115-4.115a2.767,2.767,0,0,0-3.491-.346l-3.006,2.006a2.752,2.752,0,0,1-2.737.188,25.083,25.083,0,0,0-3.073-1.274,2.746,2.746,0,0,1-1.8-2.068l-.706-3.542a2.766,2.766,0,0,0-2.714-2.224h-5.819a2.766,2.766,0,0,0-2.714,2.224l-.706,3.542a2.744,2.744,0,0,1-1.738,2.045c-5.294,25.727,6.753,39.976,32.2,44.856h0l.42-.422a2.767,2.767,0,0,0,.346-3.491l-2.006-3.006a2.752,2.752,0,0,1-.188-2.737,25.078,25.078,0,0,0,1.274-3.073,2.746,2.746,0,0,1,2.068-1.8l3.542-.706a2.766,2.766,0,0,0,2.224-2.714V117.4A2.766,2.766,0,0,0,164.943,114.687Z" transform="translate(-103.545 -88.5)" fill="#a4e7ff"/>
          <path id="Path_1274162" data-name="Path 1274162" d="M31.243,123.823c-.019.01-.04.015-.06.023a25.456,25.456,0,0,0-3.073,1.275,2.746,2.746,0,0,1-2.738-.189l-3.006-2a2.765,2.765,0,0,0-3.491.345l-4.114,4.114a2.765,2.765,0,0,0-.345,3.491l2,3.008a2.742,2.742,0,0,1,.189,2.736,25.449,25.449,0,0,0-1.274,3.073,2.744,2.744,0,0,1-2.067,1.8l-3.542.708A2.767,2.767,0,0,0,7.5,144.915v5.818a2.767,2.767,0,0,0,2.225,2.713l3.542.708a2.744,2.744,0,0,1,2.067,1.8,25.45,25.45,0,0,0,1.274,3.073,2.742,2.742,0,0,1-.189,2.736l-2,3.007a2.765,2.765,0,0,0,.345,3.491l4.114,4.114a2.765,2.765,0,0,0,3.491.345l3.006-2a2.746,2.746,0,0,1,2.738-.189,25.436,25.436,0,0,0,3.073,1.275,2.745,2.745,0,0,1,1.8,2.067l.708,3.542a2.766,2.766,0,0,0,2.713,2.225h5.818a2.766,2.766,0,0,0,2.713-2.225l.708-3.542a2.745,2.745,0,0,1,1.8-2.067,25.449,25.449,0,0,0,3.073-1.275,2.746,2.746,0,0,1,2.738.189l3.006,2a2.765,2.765,0,0,0,3.491-.345l3.694-3.694c-21.647-7.881-32.555-23.029-32.2-44.857Z" transform="translate(-7.501 -116.013)" fill="#83deff"/>
          <g id="Group_1189994" data-name="Group 1189994" transform="translate(12.344 12.345)">
            <path id="Path_1274163" data-name="Path 1274163" d="M160.886,172.966a19.423,19.423,0,0,1-7.228,15.138c-13.4-6.4-20.557-17.1-20.089-32.956a19.476,19.476,0,0,1,27.317,17.818Z" transform="translate(-121.953 -153.5)" fill="#ff97c1"/>
            <path id="Path_1274164" data-name="Path 1274164" d="M104.2,195.136A19.468,19.468,0,1,1,84.115,162.18C85.393,176.522,92.151,187.574,104.2,195.136Z" transform="translate(-72.5 -160.532)" fill="#ff83b4"/>
          </g>
        </g>
        <g id="Group_1189996" data-name="Group 1189996" transform="translate(69.699 41.497)">
          <path id="Path_1274165" data-name="Path 1274165" d="M387.794,237.395h-7.6a5.7,5.7,0,1,1,0-11.395h7.6a5.7,5.7,0,0,1,0,11.395Z" transform="translate(-374.5 -226)" fill="#8ce09f"/>
        </g>
        <g id="Group_1189997" data-name="Group 1189997" transform="translate(56.88)">
          <path id="Path_1274166" data-name="Path 1274166" d="M406.724,12.808V24.129a5.307,5.307,0,0,1-5.308,5.306h-2.442C385.594,26.113,380.684,18.851,385.764,7.5h15.651a5.307,5.307,0,0,1,5.308,5.308Z" transform="translate(-369.215 -7.5)" fill="#ffaa75"/>
          <path id="Path_1274167" data-name="Path 1274167" d="M336.758,29.435h-9.927a1.766,1.766,0,0,0-1.259.528L320.4,35.211a1.769,1.769,0,0,1-3.029-1.242V30.675a1.239,1.239,0,0,0-1.238-1.24h-3.821A5.307,5.307,0,0,1,307,24.129V12.808A5.307,5.307,0,0,1,312.308,7.5h11.241c-.862,9.974,3.61,17.379,13.209,21.935Z" transform="translate(-307 -7.5)" fill="#ff9a5c"/>
        </g>
      </g>
      <g id="Group_1190006" data-name="Group 1190006" transform="translate(0)">
        <g id="Group_1190000" data-name="Group 1190000" transform="translate(66.375 79.622)">
          <g id="Group_1189999" data-name="Group 1189999" transform="translate(6.41)">
            <path id="Path_1274168" data-name="Path 1274168" d="M387.523,429.693a4.278,4.278,0,0,1-4.273-4.273v-1.9a4.273,4.273,0,1,1,8.546,0v1.9A4.278,4.278,0,0,1,387.523,429.693Zm0-7.6a1.426,1.426,0,0,0-1.424,1.424v1.9a1.424,1.424,0,1,0,2.849,0v-1.9A1.426,1.426,0,0,0,387.523,422.1Z" transform="translate(-383.25 -419.248)"/>
          </g>
          <path id="Path_1274169" data-name="Path 1274169" d="M352.444,429.693a1.424,1.424,0,0,1-1.424-1.424V422.1h-.1a1.424,1.424,0,0,1,0-2.849h1.519a1.424,1.424,0,0,1,1.424,1.424v7.6A1.424,1.424,0,0,1,352.444,429.693Z" transform="translate(-349.5 -419.248)"/>
          <path id="Path_1274170" data-name="Path 1274170" d="M441.944,429.693a1.424,1.424,0,0,1-1.424-1.424V422.1h-.095a1.424,1.424,0,1,1,0-2.849h1.519a1.424,1.424,0,0,1,1.424,1.424v7.6A1.424,1.424,0,0,1,441.944,429.693Z" transform="translate(-422.003 -419.248)"/>
        </g>
        <path id="Path_1274171" data-name="Path 1274171" d="M85.891,187.781a20.892,20.892,0,0,1-11.367-38.42,1.424,1.424,0,1,1,1.552,2.389,17.964,17.964,0,1,0,5.663-2.422,1.424,1.424,0,1,1-.656-2.772,20.892,20.892,0,1,1,4.808,41.225Z" transform="translate(-52.655 -118.272)"/>
        <g id="Group_1190002" data-name="Group 1190002" transform="translate(18.278 42.446)">
          <g id="Group_1190001" data-name="Group 1190001" transform="translate(12.345)">
            <path id="Path_1274172" data-name="Path 1274172" d="M163.66,235.845a8.376,8.376,0,0,1-1.231-.029,1.424,1.424,0,0,1-1.184-1.4v-9.488a1.424,1.424,0,1,1,2.849,0V233c.57,0,1.249,0,1.893-.007H166a1.424,1.424,0,0,1,.008,2.849C164.915,235.843,164.172,235.845,163.66,235.845Z" transform="translate(-161.246 -223.5)"/>
          </g>
          <path id="Path_1274173" data-name="Path 1274173" d="M104.316,223.5a1.424,1.424,0,0,0-1.424,1.424V229.9l-4.045-5.778a1.424,1.424,0,0,0-2.6.8v9.5a1.424,1.424,0,1,0,2.849,0v-4.977l4.045,5.778a1.424,1.424,0,0,0,2.6-.8v-9.5a1.424,1.424,0,0,0-1.424-1.424Z" transform="translate(-96.245 -223.502)"/>
          <path id="Path_1274174" data-name="Path 1274174" d="M213.027,223.5h-2.849a1.424,1.424,0,0,0-1.424,1.424v9.5a1.424,1.424,0,0,0,2.849,0v-2.374h1.424a4.273,4.273,0,1,0,0-8.546Zm0,5.7H211.6v-2.849h1.424a1.424,1.424,0,0,1,0,2.849Z" transform="translate(-187.387 -223.502)"/>
        </g>
        <g id="Group_1190004" data-name="Group 1190004" transform="translate(0)">
          <path id="Path_1274175" data-name="Path 1274175" d="M95.812,10.493a1.424,1.424,0,0,0,1.424-1.424V6.733A6.74,6.74,0,0,0,90.5,0H63.612A6.74,6.74,0,0,0,56.88,6.733V7.787H33.235a1.424,1.424,0,0,0-1.424,1.424v6.172H30.325a4.2,4.2,0,0,0-4.109,3.37l-.707,3.542a1.322,1.322,0,0,1-.859,1A26.858,26.858,0,0,0,21.4,24.638a1.323,1.323,0,0,1-1.316-.1l-3.007-2a4.2,4.2,0,0,0-5.288.524L7.678,27.175a4.2,4.2,0,0,0-.524,5.288l2,3.007a1.324,1.324,0,0,1,.1,1.316,26.844,26.844,0,0,0-1.346,3.247,1.322,1.322,0,0,1-1,.859L3.37,41.6A4.2,4.2,0,0,0,0,45.708v5.82a4.2,4.2,0,0,0,3.37,4.109l3.542.707a1.321,1.321,0,0,1,1,.859,26.886,26.886,0,0,0,1.346,3.247,1.324,1.324,0,0,1-.1,1.316l-2,3.007a4.2,4.2,0,0,0,.524,5.288l4.115,4.115a4.2,4.2,0,0,0,5.288.524l3.007-2a1.323,1.323,0,0,1,1.316-.1,26.872,26.872,0,0,0,3.247,1.346,1.321,1.321,0,0,1,.859,1l.707,3.542a4.2,4.2,0,0,0,4.11,3.37h1.486v6.172a1.424,1.424,0,0,0,1.424,1.424H56.88V90.5a6.74,6.74,0,0,0,6.733,6.733H90.5A6.74,6.74,0,0,0,97.237,90.5V88.736a1.424,1.424,0,0,0-2.849,0V90.5A3.888,3.888,0,0,1,90.5,94.388H63.612A3.888,3.888,0,0,1,59.728,90.5V79.183A3.887,3.887,0,0,1,63.612,75.3h3.821A2.667,2.667,0,0,0,70.1,72.637V69.344a.345.345,0,0,1,.591-.242l5.173,5.246a3.21,3.21,0,0,0,2.275.954H90.5a3.887,3.887,0,0,1,3.884,3.882v2.906a1.424,1.424,0,1,0,2.849,0V79.183A6.739,6.739,0,0,0,90.5,72.453H87.741v-6.2a1.425,1.425,0,0,0-.417-1.007l-5.28-5.278V55.74h2.374a7.122,7.122,0,1,0,0-14.244H82.043V37.268l5.28-5.279a1.424,1.424,0,0,0,.417-1.007v-6.2H90.5a6.739,6.739,0,0,0,6.733-6.731V15.716a1.424,1.424,0,1,0-2.849,0v2.338A3.887,3.887,0,0,1,90.5,21.935H78.135a3.208,3.208,0,0,0-2.273.952l-5.175,5.247a.345.345,0,0,1-.591-.242V24.6a2.667,2.667,0,0,0-2.663-2.665H63.612a3.887,3.887,0,0,1-3.884-3.882V6.733a3.888,3.888,0,0,1,3.884-3.884H90.5a3.888,3.888,0,0,1,3.884,3.884V9.068a1.424,1.424,0,0,0,1.424,1.424ZM30.325,79a1.345,1.345,0,0,1-1.316-1.079L28.3,74.384a4.178,4.178,0,0,0-2.737-3.138,24.031,24.031,0,0,1-2.9-1.2,4.129,4.129,0,0,0-1.828-.424,4.2,4.2,0,0,0-2.329.7l-3.007,2a1.345,1.345,0,0,1-1.693-.168L9.692,68.047a1.346,1.346,0,0,1-.168-1.693l2-3.007a4.181,4.181,0,0,0,.28-4.157,23.976,23.976,0,0,1-1.2-2.9,4.178,4.178,0,0,0-3.137-2.737l-3.542-.707a1.346,1.346,0,0,1-1.079-1.316v-5.82a1.346,1.346,0,0,1,1.079-1.316l3.542-.707a4.179,4.179,0,0,0,3.137-2.737,23.989,23.989,0,0,1,1.2-2.9,4.181,4.181,0,0,0-.28-4.157l-2-3.007a1.345,1.345,0,0,1,.168-1.693l4.115-4.115a1.346,1.346,0,0,1,1.693-.168l3.007,2a4.181,4.181,0,0,0,4.157.281,23.975,23.975,0,0,1,2.9-1.2A4.178,4.178,0,0,0,28.3,22.853l.707-3.542a1.345,1.345,0,0,1,1.316-1.079h5.82a1.345,1.345,0,0,1,1.316,1.079l.707,3.542a4.178,4.178,0,0,0,2.737,3.138,24.031,24.031,0,0,1,2.9,1.2,4.181,4.181,0,0,0,4.157-.281l3.007-2a1.346,1.346,0,0,1,1.693.168l4.115,4.115a1.346,1.346,0,0,1,.168,1.693l-2,3.007a4.181,4.181,0,0,0-.28,4.157,23.976,23.976,0,0,1,1.2,2.9A4.178,4.178,0,0,0,59,43.685l3.542.707a1.346,1.346,0,0,1,1.079,1.316v5.82a1.346,1.346,0,0,1-1.079,1.316L59,53.552a4.179,4.179,0,0,0-3.137,2.737,23.99,23.99,0,0,1-1.2,2.9,4.181,4.181,0,0,0,.28,4.157l2,3.007a1.346,1.346,0,0,1-.167,1.693l-4.115,4.115a1.345,1.345,0,0,1-1.693.168l-3.007-2a4.181,4.181,0,0,0-4.157-.281,23.976,23.976,0,0,1-2.9,1.2,4.178,4.178,0,0,0-2.737,3.138l-.707,3.542A1.345,1.345,0,0,1,36.145,79ZM84.892,66.844v5.609H78.135a.345.345,0,0,1-.245-.1L72.715,67.1a3.194,3.194,0,0,0-5.467,2.243v3.109H63.612a6.739,6.739,0,0,0-6.733,6.731V86.6H34.66V81.854h1.486a4.2,4.2,0,0,0,4.109-3.37l.707-3.542a1.322,1.322,0,0,1,.859-1A26.858,26.858,0,0,0,45.067,72.6a1.322,1.322,0,0,1,1.316.1l3.007,2a4.2,4.2,0,0,0,5.288-.524l4.115-4.115a4.2,4.2,0,0,0,.523-5.288l-2-3.007a1.324,1.324,0,0,1-.1-1.316A26.845,26.845,0,0,0,58.561,57.2a1.322,1.322,0,0,1,1-.859l3.542-.707a4.2,4.2,0,0,0,3.37-4.109V50.043h3.372a7.134,7.134,0,0,0,6.979,5.7h2.374v4.818a1.425,1.425,0,0,0,.417,1.007Zm-.475-22.5a4.273,4.273,0,1,1,0,8.546h-7.6a4.273,4.273,0,0,1,0-8.546ZM63.612,24.784h3.635v3.109a3.193,3.193,0,0,0,5.468,2.242l5.177-5.249a.343.343,0,0,1,.243-.1h6.757v5.609l-5.28,5.279a1.424,1.424,0,0,0-.417,1.007V41.5H76.821a7.134,7.134,0,0,0-6.979,5.7H66.47V45.708A4.2,4.2,0,0,0,63.1,41.6l-3.542-.707a1.321,1.321,0,0,1-1-.859,26.886,26.886,0,0,0-1.346-3.247,1.324,1.324,0,0,1,.1-1.316l2-3.007a4.2,4.2,0,0,0-.524-5.288l-4.115-4.115a4.2,4.2,0,0,0-5.288-.524l-3.007,2a1.323,1.323,0,0,1-1.316.1,26.871,26.871,0,0,0-3.247-1.346,1.321,1.321,0,0,1-.859-1l-.707-3.542a4.2,4.2,0,0,0-4.11-3.37H34.66V10.635H56.88v7.418a6.739,6.739,0,0,0,6.733,6.731Z" transform="translate(0)"/>
          <g id="Group_1190003" data-name="Group 1190003" transform="translate(75.871 47.194)">
            <circle id="Ellipse_12264" data-name="Ellipse 12264" cx="1.424" cy="1.424" r="1.424"/>
            <circle id="Ellipse_12265" data-name="Ellipse 12265" cx="1.424" cy="1.424" r="1.424" transform="translate(6.647)"/>
          </g>
        </g>
        <g id="Group_1190005" data-name="Group 1190005" transform="translate(62.577 7.17)">
          <path id="Path_1274176" data-name="Path 1274176" d="M336.779,37.991a1.424,1.424,0,0,0-1.975.4l-1.347,2.021-1.347-2.021a1.424,1.424,0,0,0-2.37,1.58l2.006,3.008-2.006,3.008a1.424,1.424,0,1,0,2.37,1.58l1.347-2.021,1.347,2.021a1.424,1.424,0,1,0,2.37-1.58l-2.005-3.008,2.005-3.008A1.424,1.424,0,0,0,336.779,37.991Z" transform="translate(-329.5 -37.752)"/>
          <path id="Path_1274177" data-name="Path 1274177" d="M446.822,45.349h-2.4l3.588-5.382a1.424,1.424,0,0,0-1.185-2.214h-5.064a1.424,1.424,0,1,0,0,2.849h2.4l-3.588,5.382a1.424,1.424,0,0,0,1.185,2.214h5.064a1.424,1.424,0,1,0,0-2.849Z" transform="translate(-419.284 -37.752)"/>
          <path id="Path_1274178" data-name="Path 1274178" d="M392.2,37.991a1.424,1.424,0,0,0-1.975.4l-1.347,2.021-1.347-2.021a1.424,1.424,0,1,0-2.37,1.58l2.293,3.439v3.367a1.424,1.424,0,1,0,2.849,0V43.405l2.293-3.439A1.425,1.425,0,0,0,392.2,37.991Z" transform="translate(-374.393 -37.752)"/>
        </g>
      </g>
    </g>
  </g>
</svg>
