<svg xmlns="http://www.w3.org/2000/svg" xmlns:xlink="http://www.w3.org/1999/xlink" width="118" height="118" viewBox="0 0 118 118">
  <defs>
    <filter id="Ellipse_12115" x="0" y="0" width="118" height="118" filterUnits="userSpaceOnUse">
      <feOffset dy="3" input="SourceAlpha"/>
      <feGaussianBlur stdDeviation="3" result="blur"/>
      <feFlood flood-opacity="0.161"/>
      <feComposite operator="in" in2="blur"/>
      <feComposite in="SourceGraphic"/>
    </filter>
  </defs>
  <g id="Group_1190244" data-name="Group 1190244" transform="translate(3452.219 8895)">
    <g id="Group_1190162" data-name="Group 1190162" transform="translate(-4252 -11438)">
      <g transform="matrix(1, 0, 0, 1, 799.78, 2543)" filter="url(#Ellipse_12115)">
        <g id="Ellipse_12115-2" data-name="Ellipse 12115" transform="translate(9 6)" fill="#fbe4a3" stroke="#f6bc1c" stroke-width="2">
          <circle cx="50" cy="50" r="50" stroke="none"/>
          <circle cx="50" cy="50" r="49" fill="none"/>
        </g>
      </g>
    </g>
    <g id="Group_1190243" data-name="Group 1190243" transform="translate(-3422.71 -8867.594)">
      <path id="Path_1275709" data-name="Path 1275709" d="M360,352h13.344v13.344H360Zm0,0" transform="translate(-317.109 -310.063)" fill="#006e20"/>
      <path id="Path_1275710" data-name="Path 1275710" d="M8,352H21.344v13.344H8Zm0,0" transform="translate(-7.047 -310.063)" fill="#e91d18"/>
      <path id="Path_1275711" data-name="Path 1275711" d="M194.484,262.672h-1.315a3.813,3.813,0,1,0-4.995,0h-1.315A2.859,2.859,0,0,0,184,265.531v5.719l1.906.953v9.531h9.531V272.2l1.906-.953v-5.719A2.859,2.859,0,0,0,194.484,262.672Zm0,0" transform="translate(-162.078 -225.5)" fill="#1787ce"/>
      <path id="Path_1275712" data-name="Path 1275712" d="M23.25,15.625A7.625,7.625,0,1,1,15.625,8,7.625,7.625,0,0,1,23.25,15.625Zm0,0" transform="translate(-7.047 -7.047)" fill="#1787ce"/>
      <path id="Path_1275713" data-name="Path 1275713" d="M45.709,51.889h-.067a2.341,2.341,0,0,0,.553-1.506,2.383,2.383,0,0,0-4.766,0,2.341,2.341,0,0,0,.553,1.506h-.067A1.919,1.919,0,0,0,40,53.8v3.651l7.625.076V53.8A1.916,1.916,0,0,0,45.709,51.889Zm0,0" transform="translate(-35.234 -42.281)" fill="#fca219"/>
      <path id="Path_1275714" data-name="Path 1275714" d="M191.25,15.625A7.625,7.625,0,1,1,183.625,8,7.625,7.625,0,0,1,191.25,15.625Zm0,0" transform="translate(-155.031 -7.047)" fill="#1787ce"/>
      <path id="Path_1275715" data-name="Path 1275715" d="M213.709,51.889h-.067a2.341,2.341,0,0,0,.553-1.506,2.383,2.383,0,0,0-4.766,0,2.341,2.341,0,0,0,.553,1.506h-.067A1.919,1.919,0,0,0,208,53.8v3.651l7.625.076V53.8A1.916,1.916,0,0,0,213.709,51.889Zm0,0" transform="translate(-183.219 -42.281)" fill="#e91d18"/>
      <path id="Path_1275716" data-name="Path 1275716" d="M359.25,15.625A7.625,7.625,0,1,1,351.625,8,7.625,7.625,0,0,1,359.25,15.625Zm0,0" transform="translate(-303.016 -7.047)" fill="#1787ce"/>
      <path id="Path_1275717" data-name="Path 1275717" d="M381.709,51.889h-.067a2.341,2.341,0,0,0,.553-1.506,2.383,2.383,0,0,0-4.766,0,2.341,2.341,0,0,0,.553,1.506h-.067A1.919,1.919,0,0,0,376,53.8v3.651l7.625.076V53.8A1.916,1.916,0,0,0,381.709,51.889Zm0,0" transform="translate(-331.203 -42.281)" fill="#006e20"/>
      <path id="Path_1275718" data-name="Path 1275718" d="M226.859,333.719v-3.812h.953V328H224v1.906h.953v3.813Zm0,0" transform="translate(-197.313 -288.922)"/>
      <path id="Path_1275719" data-name="Path 1275719" d="M248,440h1.906v1.906H248Zm0,0" transform="translate(-218.453 -387.578)"/>
      <path id="Path_1275720" data-name="Path 1275720" d="M187.968,254.708a4.678,4.678,0,0,0,.423-1.943,4.766,4.766,0,0,0-9.531,0,4.678,4.678,0,0,0,.423,1.943A3.819,3.819,0,0,0,176,258.484V264.2a.954.954,0,0,0,.527.853l1.379.689v8.942a.953.953,0,0,0,.953.953h9.531a.953.953,0,0,0,.953-.953v-8.942l1.379-.69a.951.951,0,0,0,.527-.852v-5.719A3.819,3.819,0,0,0,187.968,254.708Zm1.376,8.906-1.379.69a.951.951,0,0,0-.527.852v8.578h-7.625v-8.578a.954.954,0,0,0-.527-.853l-1.379-.689v-5.13a1.908,1.908,0,0,1,1.906-1.906h1.314a.953.953,0,0,0,.627-1.67,2.823,2.823,0,0,1-.988-2.143,2.859,2.859,0,0,1,5.719,0,2.817,2.817,0,0,1-.989,2.142.953.953,0,0,0,.628,1.671h1.314a1.908,1.908,0,0,1,1.906,1.906Zm0,0" transform="translate(-155.031 -218.453)"/>
      <path id="Path_1275721" data-name="Path 1275721" d="M232,160h1.906v1.906H232Zm0,0" transform="translate(-204.359 -140.938)"/>
      <path id="Path_1275722" data-name="Path 1275722" d="M232,192h1.906v1.906H232Zm0,0" transform="translate(-204.359 -169.125)"/>
      <path id="Path_1275723" data-name="Path 1275723" d="M232,224h1.906v1.906H232Zm0,0" transform="translate(-204.359 -197.313)"/>
      <path id="Path_1275724" data-name="Path 1275724" d="M64,160h1.906v1.906H64Zm0,0" transform="translate(-56.375 -140.938)"/>
      <path id="Path_1275725" data-name="Path 1275725" d="M88,184h1.906v1.906H88Zm0,0" transform="translate(-77.516 -162.078)"/>
      <path id="Path_1275726" data-name="Path 1275726" d="M112,208h1.906v1.906H112Zm0,0" transform="translate(-98.656 -183.219)"/>
      <path id="Path_1275727" data-name="Path 1275727" d="M136,232h1.906v1.906H136Zm0,0" transform="translate(-119.797 -204.359)"/>
      <path id="Path_1275728" data-name="Path 1275728" d="M160,256h1.906v1.906H160Zm0,0" transform="translate(-140.938 -225.5)"/>
      <path id="Path_1275729" data-name="Path 1275729" d="M400,160h1.906v1.906H400Zm0,0" transform="translate(-352.344 -140.938)"/>
      <path id="Path_1275730" data-name="Path 1275730" d="M376,184h1.906v1.906H376Zm0,0" transform="translate(-331.203 -162.078)"/>
      <path id="Path_1275731" data-name="Path 1275731" d="M352,208h1.906v1.906H352Zm0,0" transform="translate(-310.063 -183.219)"/>
      <path id="Path_1275732" data-name="Path 1275732" d="M328,232h1.906v1.906H328Zm0,0" transform="translate(-288.922 -204.359)"/>
      <path id="Path_1275733" data-name="Path 1275733" d="M304,256h1.906v1.906H304Zm0,0" transform="translate(-267.781 -225.5)"/>
      <path id="Path_1275734" data-name="Path 1275734" d="M381.877,386.161h.043a.957.957,0,0,0,.689-.341l4.766-5.719-1.464-1.221-4.1,4.917-2.122-2.122-1.348,1.348,2.859,2.859A.948.948,0,0,0,381.877,386.161Zm0,0" transform="translate(-333.268 -333.739)"/>
      <path id="Path_1275735" data-name="Path 1275735" d="M31.4,382.149l2.7-2.7,2.7,2.7,1.348-1.348-2.7-2.7,2.7-2.7L36.8,374.063l-2.7,2.7-2.7-2.7-1.348,1.348,2.7,2.7-2.7,2.7Zm0,0" transform="translate(-26.474 -329.496)"/>
      <path id="Path_1275736" data-name="Path 1275736" d="M14.3,344H.953a.953.953,0,0,0-.953.953V358.3a.953.953,0,0,0,.953.953H14.3a.953.953,0,0,0,.953-.953V344.953A.953.953,0,0,0,14.3,344Zm-.953,13.344H1.906V345.906H13.344Zm0,0" transform="translate(0 -303.016)"/>
      <path id="Path_1275737" data-name="Path 1275737" d="M366.3,344H352.953a.953.953,0,0,0-.953.953V358.3a.953.953,0,0,0,.953.953H366.3a.953.953,0,0,0,.953-.953V344.953A.953.953,0,0,0,366.3,344Zm-.953,13.344H353.906V345.906h11.438Zm0,0" transform="translate(-310.063 -303.016)"/>
      <path id="Path_1275738" data-name="Path 1275738" d="M185.156,8.578a8.578,8.578,0,1,0-8.578,8.578A8.588,8.588,0,0,0,185.156,8.578Zm-15.25,0a6.672,6.672,0,1,1,11.438,4.66V11.522a2.848,2.848,0,0,0-1.553-2.536,3.265,3.265,0,0,0,.123-.886,3.336,3.336,0,0,0-6.672,0,3.272,3.272,0,0,0,.119.872,2.7,2.7,0,0,0-.7.514,2.855,2.855,0,0,0-.85,2.036v1.716A6.65,6.65,0,0,1,169.906,8.578Zm3.813,6.019V11.523a.957.957,0,0,1,.292-.689.986.986,0,0,1,.738-.274A.953.953,0,0,0,175.478,9a1.388,1.388,0,0,1-.33-.895,1.43,1.43,0,0,1,2.859,0,1.378,1.378,0,0,1-.331.894.943.943,0,0,0-.1,1.014,1,1,0,0,0,.9.55.964.964,0,0,1,.962.962V14.6a6.583,6.583,0,0,1-5.719,0Zm0,0" transform="translate(-147.984)"/>
      <path id="Path_1275739" data-name="Path 1275739" d="M344.578,0a8.578,8.578,0,1,0,8.578,8.578A8.588,8.588,0,0,0,344.578,0Zm-2.859,14.6V11.523a.957.957,0,0,1,.292-.689.986.986,0,0,1,.738-.274A.953.953,0,0,0,343.478,9a1.388,1.388,0,0,1-.33-.895,1.43,1.43,0,0,1,2.859,0,1.378,1.378,0,0,1-.331.894.943.943,0,0,0-.1,1.014,1,1,0,0,0,.9.55.964.964,0,0,1,.962.962V14.6a6.583,6.583,0,0,1-5.719,0Zm7.625-1.359V11.522a2.848,2.848,0,0,0-1.553-2.536,3.265,3.265,0,0,0,.123-.886,3.336,3.336,0,0,0-6.672,0,3.272,3.272,0,0,0,.119.872,2.7,2.7,0,0,0-.7.514,2.855,2.855,0,0,0-.85,2.036v1.716a6.672,6.672,0,1,1,9.531,0Zm0,0" transform="translate(-295.969)"/>
      <path id="Path_1275740" data-name="Path 1275740" d="M17.156,8.578a8.578,8.578,0,1,0-8.578,8.578A8.588,8.588,0,0,0,17.156,8.578Zm-15.25,0a6.672,6.672,0,1,1,11.438,4.66V11.522a2.848,2.848,0,0,0-1.553-2.536,3.265,3.265,0,0,0,.123-.886,3.336,3.336,0,0,0-6.672,0,3.272,3.272,0,0,0,.119.872,2.7,2.7,0,0,0-.7.514,2.855,2.855,0,0,0-.85,2.036v1.716A6.65,6.65,0,0,1,1.906,8.578ZM5.719,14.6V11.523a.957.957,0,0,1,.292-.689.986.986,0,0,1,.738-.274A.953.953,0,0,0,7.478,9a1.388,1.388,0,0,1-.33-.895,1.43,1.43,0,0,1,2.859,0A1.378,1.378,0,0,1,9.677,9a.943.943,0,0,0-.1,1.014,1,1,0,0,0,.9.55.964.964,0,0,1,.962.962V14.6a6.583,6.583,0,0,1-5.719,0Zm0,0"/>
    </g>
  </g>
</svg>
