<svg xmlns="http://www.w3.org/2000/svg" xmlns:xlink="http://www.w3.org/1999/xlink" width="118" height="118" viewBox="0 0 118 118">
  <defs>
    <filter id="Ellipse_12115" x="0" y="0" width="118" height="118" filterUnits="userSpaceOnUse">
      <feOffset dy="3" input="SourceAlpha"/>
      <feGaussianBlur stdDeviation="3" result="blur"/>
      <feFlood flood-opacity="0.161"/>
      <feComposite operator="in" in2="blur"/>
      <feComposite in="SourceGraphic"/>
    </filter>
  </defs>
  <g id="Group_1190246" data-name="Group 1190246" transform="translate(3138.219 8895)">
    <g id="Group_1190161" data-name="Group 1190161" transform="translate(-3938 -11438)">
      <g transform="matrix(1, 0, 0, 1, 799.78, 2543)" filter="url(#Ellipse_12115)">
        <g id="Ellipse_12115-2" data-name="Ellipse 12115" transform="translate(9 6)" fill="#fbe4a3" stroke="#f6bc1c" stroke-width="2">
          <circle cx="50" cy="50" r="50" stroke="none"/>
          <circle cx="50" cy="50" r="49" fill="none"/>
        </g>
      </g>
    </g>
    <g id="_x35_2_Audit" transform="translate(-3128.121 -8870.559)">
      <g id="Group_1190245" data-name="Group 1190245" transform="translate(26.836 1.017)">
        <path id="Path_1275741" data-name="Path 1275741" d="M71.921,54.638V8.483a2.138,2.138,0,0,0-2.138-2.138H34.31a2.138,2.138,0,0,0-2.138,2.138V64.016a2.138,2.138,0,0,0,2.138,2.138h26.1Z" transform="translate(-31.533 -5.707)" fill="#e8f1f8"/>
        <path id="Path_1275742" data-name="Path 1275742" d="M71.912,8.479V54.634L60.4,66.15H34.3a2.138,2.138,0,0,1-2.138-2.138V61.894a42.352,42.352,0,0,0,31.6-55.553h6.013a2.139,2.139,0,0,1,2.138,2.138Z" transform="translate(-31.521 -5.703)" opacity="0.1"/>
        <path id="Path_1275743" data-name="Path 1275743" d="M279.4,409.528h-9.378a2.138,2.138,0,0,0-2.138,2.138v9.378Z" transform="translate(-239.011 -360.597)" fill="#acbadf"/>
        <path id="Path_1275744" data-name="Path 1275744" d="M77.243,59.178a4.978,4.978,0,1,1-4.98-4.976A4.978,4.978,0,0,1,77.243,59.178Z" transform="translate(-62.442 -47.832)" fill="#0e9c4a"/>
        <path id="Path_1275745" data-name="Path 1275745" d="M77.243,184.013a4.978,4.978,0,1,1-4.98-4.976A4.978,4.978,0,0,1,77.243,184.013Z" transform="translate(-62.442 -157.714)" fill="#475da9"/>
        <path id="Path_1275746" data-name="Path 1275746" d="M77.243,308.847a4.978,4.978,0,1,1-4.98-4.976A4.979,4.979,0,0,1,77.243,308.847Z" transform="translate(-62.442 -267.595)" fill="#f14f4a"/>
        <path id="Path_1275747" data-name="Path 1275747" d="M364.029,349.128V365.3a2.58,2.58,0,0,0,5.161,0v-16.17Z" transform="translate(-323.64 -307.431)" fill="#474747"/>
        <path id="Path_1275748" data-name="Path 1275748" d="M310.588,207.532a11.29,11.29,0,1,1,0-15.965A11.291,11.291,0,0,1,310.588,207.532Z" transform="translate(-259.635 -165.831)" fill="#f14f4a"/>
        <path id="Path_1275749" data-name="Path 1275749" d="M321.6,218.527a11.289,11.289,0,0,1-15.965,0,11.443,11.443,0,0,1-1.81-2.365,11.292,11.292,0,0,0,15.413-15.413,11.3,11.3,0,0,1,2.362,17.775Z" transform="translate(-270.644 -176.828)" opacity="0.1"/>
        <path id="Path_1275750" data-name="Path 1275750" d="M324.4,232.09a7.6,7.6,0,1,1,10.743,0A7.607,7.607,0,0,1,324.4,232.09Z" transform="translate(-286.805 -192.999)" fill="#fdcf17"/>
        <path id="Path_1275751" data-name="Path 1275751" d="M346.172,243.083a7.606,7.606,0,0,1-11.464-.83,7.6,7.6,0,0,0,10.625-10.637,7.6,7.6,0,0,1,.839,11.467Z" transform="translate(-297.831 -203.995)" opacity="0.1"/>
        <path id="Path_1275752" data-name="Path 1275752" d="M94.046,81.391l-1.765,1.765-.382-.382a.636.636,0,0,0-.9.9l.832.832a.636.636,0,0,0,.9,0l2.215-2.214a.636.636,0,0,0-.9-.9Z" transform="translate(-83.15 -71.6)"/>
        <path id="Path_1275753" data-name="Path 1275753" d="M190.666,71.819a.636.636,0,0,0-.636-.636H171.767a.636.636,0,1,0,0,1.273h18.262A.636.636,0,0,0,190.666,71.819Z" transform="translate(-153.847 -62.779)"/>
        <path id="Path_1275754" data-name="Path 1275754" d="M171.767,110.989h11.7a.636.636,0,1,0,0-1.273h-11.7a.636.636,0,1,0,0,1.273Z" transform="translate(-153.847 -96.696)"/>
        <path id="Path_1275755" data-name="Path 1275755" d="M94.046,206.223l-1.765,1.765-.382-.382a.636.636,0,0,0-.9.9l.832.832a.636.636,0,0,0,.9,0l2.215-2.215a.636.636,0,0,0-.9-.9Z" transform="translate(-83.15 -181.48)"/>
        <path id="Path_1275756" data-name="Path 1275756" d="M183.577,196.015H171.766a.636.636,0,1,0,0,1.273h11.811a.636.636,0,1,0,0-1.273Z" transform="translate(-153.847 -172.658)"/>
        <path id="Path_1275757" data-name="Path 1275757" d="M183.465,234.552h-11.7a.636.636,0,1,0,0,1.273h11.7a.636.636,0,1,0,0-1.273Z" transform="translate(-153.847 -206.579)"/>
        <path id="Path_1275758" data-name="Path 1275758" d="M94.046,331.06l-1.765,1.765-.382-.382a.636.636,0,0,0-.9.9l.832.831a.636.636,0,0,0,.9,0l2.215-2.214a.636.636,0,0,0-.9-.9Z" transform="translate(-83.15 -291.364)"/>
        <path id="Path_1275759" data-name="Path 1275759" d="M183.465,320.851h-11.7a.636.636,0,1,0,0,1.273h11.7a.636.636,0,1,0,0-1.273Z" transform="translate(-153.847 -282.541)"/>
        <path id="Path_1275760" data-name="Path 1275760" d="M183.465,359.384h-11.7a.636.636,0,1,0,0,1.273h11.7a.636.636,0,1,0,0-1.273Z" transform="translate(-153.847 -316.459)"/>
        <path id="Path_1275761" data-name="Path 1275761" d="M67.588,48.892A5.614,5.614,0,1,0,73.2,54.5,5.619,5.619,0,0,0,67.588,48.892Zm0,9.955A4.341,4.341,0,1,1,71.931,54.5a4.346,4.346,0,0,1-4.343,4.343Z" transform="translate(-57.767 -43.158)"/>
        <path id="Path_1275762" data-name="Path 1275762" d="M69.8,62.1a3.22,3.22,0,0,0,3.219-3.213V46.214a11.916,11.916,0,0,0-5.16-23.232V3.791a2.777,2.777,0,0,0-2.774-2.774H29.61a2.777,2.777,0,0,0-2.774,2.774V59.325A2.777,2.777,0,0,0,29.61,62.1H55.7l.009,0a.637.637,0,0,0,.45-.186L66.59,51.482v7.4A3.217,3.217,0,0,0,69.8,62.1Zm1.947-3.213a1.944,1.944,0,0,1-3.887,0V46.492a11.211,11.211,0,0,0,3.887,0ZM77.34,27.2a10.654,10.654,0,1,1-15.067,0,10.647,10.647,0,0,1,15.067,0ZM56.345,59.928V52.086a1.5,1.5,0,0,1,1.5-1.5h7.842Zm1.5-10.616a2.777,2.777,0,0,0-2.774,2.774v8.74H29.61a1.5,1.5,0,0,1-1.5-1.5V3.791a1.5,1.5,0,0,1,1.5-1.5H65.088a1.5,1.5,0,0,1,1.5,1.5V23.259a11.917,11.917,0,0,0,0,22.957v3.1Z" transform="translate(-26.836 -1.017)"/>
        <path id="Path_1275763" data-name="Path 1275763" d="M67.588,173.724a5.614,5.614,0,1,0,5.616,5.612A5.619,5.619,0,0,0,67.588,173.724Zm0,9.956a4.342,4.342,0,1,1,4.343-4.344,4.347,4.347,0,0,1-4.343,4.344Z" transform="translate(-57.767 -153.037)"/>
        <path id="Path_1275764" data-name="Path 1275764" d="M67.588,298.561a5.614,5.614,0,1,0,5.616,5.612A5.619,5.619,0,0,0,67.588,298.561Zm0,9.955a4.341,4.341,0,1,1,4.343-4.343,4.346,4.346,0,0,1-4.343,4.343Z" transform="translate(-57.767 -262.921)"/>
        <path id="Path_1275765" data-name="Path 1275765" d="M319.261,227.86a8.233,8.233,0,1,0,0-11.645A8.243,8.243,0,0,0,319.261,227.86Zm.9-10.746a6.961,6.961,0,1,1,0,9.846A6.968,6.968,0,0,1,320.161,217.114Z" transform="translate(-282.113 -188.319)"/>
      </g>
    </g>
  </g>
</svg>
