<svg xmlns="http://www.w3.org/2000/svg" xmlns:xlink="http://www.w3.org/1999/xlink" width="118" height="118" viewBox="0 0 118 118">
  <defs>
    <filter id="Ellipse_12115" x="0" y="0" width="118" height="118" filterUnits="userSpaceOnUse">
      <feOffset dy="3" input="SourceAlpha"/>
      <feGaussianBlur stdDeviation="3" result="blur"/>
      <feFlood flood-opacity="0.161"/>
      <feComposite operator="in" in2="blur"/>
      <feComposite in="SourceGraphic"/>
    </filter>
  </defs>
  <g id="Group_1190248" data-name="Group 1190248" transform="translate(-742.051 -3271)">
    <g id="Group_1184522" data-name="Group 1184522" transform="translate(-3.73 -575)">
      <g id="Group_1181949" data-name="Group 1181949" transform="translate(-54 1303)">
        <g transform="matrix(1, 0, 0, 1, 799.78, 2543)" filter="url(#Ellipse_12115)">
          <circle id="Ellipse_12115-2" data-name="Ellipse 12115" cx="50" cy="50" r="50" transform="translate(9 6)" fill="#00ce3b"/>
        </g>
      </g>
    </g>
    <g id="Group_1190247" data-name="Group 1190247" transform="translate(769.051 3295)">
      <circle id="Ellipse_12285" data-name="Ellipse 12285" cx="10" cy="10" r="10" transform="translate(42 2)" fill="#d96d6d"/>
      <path id="Path_1275766" data-name="Path 1275766" d="M42,37V30A19,19,0,0,0,23,11H21A19,19,0,0,0,2,30V63H26V58h9a6,6,0,0,0,6-6V48l6-2Z" fill="#e6ccab"/>
      <path id="Path_1275767" data-name="Path 1275767" d="M28.332,15.026A16.65,16.65,0,0,0,22.319,14H21C12.163,14,5.5,22.163,5.5,31l0,.315a23.913,23.913,0,0,0,1.665,8.571,18,18,0,0,1,1.115,4.367l.353,2.828a3.332,3.332,0,0,0,6.286,1.077l.958-1.916a22.514,22.514,0,0,1,5.774-7.269,10,10,0,0,1,3.954-2l5.73-1.432A8.113,8.113,0,0,0,37.5,27.606c-.064-5.67-3.664-10.452-9.167-12.579Z" fill="#dae6f2"/>
      <path id="Path_1275768" data-name="Path 1275768" d="M21.735,35A1.779,1.779,0,0,0,23.5,33.208V31.684a2.064,2.064,0,0,1,.7-1.566A5.206,5.206,0,0,0,26,26.16a4.995,4.995,0,1,0-9.976-.518,5.224,5.224,0,0,0,1.762,4.465,2.083,2.083,0,0,1,.714,1.575v1.526A1.779,1.779,0,0,0,20.265,35Z" fill="#f2d891"/>
      <path id="Path_1275769" data-name="Path 1275769" d="M20.265,35h1.471A1.779,1.779,0,0,0,23.5,33.208V32h-5c0,.308,0,.747,0,1.207A1.779,1.779,0,0,0,20.265,35Z" fill="#7483a6"/>
      <path id="Path_1275770" data-name="Path 1275770" d="M3,30A18.021,18.021,0,0,1,21,12h2A18.021,18.021,0,0,1,41,30v7a1,1,0,0,0,.126.486l4.415,7.946-4.857,1.619A1,1,0,0,0,40,48v4a5.006,5.006,0,0,1-5,5H26a1,1,0,0,0-1,1v5h2V59h8a7.008,7.008,0,0,0,7-7V48.721l5.316-1.772a1,1,0,0,0,.558-1.435L43,36.741V30A20.023,20.023,0,0,0,23,10H21A20.023,20.023,0,0,0,1,30V63H3Z"/>
      <path id="Path_1275771" data-name="Path 1275771" d="M31.579,36.511a9.074,9.074,0,0,0,6.92-8.917c-.067-6.015-3.825-11.188-9.808-13.5A17.627,17.627,0,0,0,22.319,13H21C12.056,13,4.5,21.243,4.5,31.009l0,.314a24.8,24.8,0,0,0,1.733,8.93A17.032,17.032,0,0,1,7.29,44.377l.353,2.829a4.332,4.332,0,0,0,8.173,1.4l.958-1.916a21.385,21.385,0,0,1,5.518-6.946,9.063,9.063,0,0,1,3.559-1.8ZM21.016,38.2A23.367,23.367,0,0,0,14.984,45.8l-.958,1.916a2.332,2.332,0,0,1-4.4-.753l-.353-2.829A19.056,19.056,0,0,0,8.1,39.52,22.8,22.8,0,0,1,6.5,31.306L6.5,31c0-8.673,6.641-16,14.5-16h1.319a15.64,15.64,0,0,1,5.65.959h0c5.2,2.012,8.471,6.479,8.528,11.658a7.08,7.08,0,0,1-5.4,6.954L25.365,36a11.061,11.061,0,0,0-4.35,2.2Z"/>
      <path id="Path_1275772" data-name="Path 1275772" d="M24.935,21.509a5.848,5.848,0,0,0-4.618-1.47,6.091,6.091,0,0,0-5.287,5.509,6.249,6.249,0,0,0,2.1,5.314,1.083,1.083,0,0,1,.369.819v1.525A2.782,2.782,0,0,0,20.265,36h1.471A2.782,2.782,0,0,0,24.5,33.208V31.684a1.059,1.059,0,0,1,.354-.808,6.261,6.261,0,0,0,.081-9.367ZM22.5,33.208a.78.78,0,0,1-.765.792H20.265a.78.78,0,0,1-.765-.793V33h3Zm1.049-3.847A3.018,3.018,0,0,0,22.577,31H19.422a3.071,3.071,0,0,0-.982-1.649,4.254,4.254,0,0,1-1.421-3.615,4.136,4.136,0,0,1,3.523-3.71A4.038,4.038,0,0,1,21,22a3.877,3.877,0,0,1,2.6,1,4.262,4.262,0,0,1-.054,6.359Z"/>
      <path id="Path_1275773" data-name="Path 1275773" d="M20,16h2v3H20Z"/>
      <path id="Path_1275774" data-name="Path 1275774" d="M28,25h3v2H28Z"/>
      <path id="Path_1275775" data-name="Path 1275775" d="M11,25h3v2H11Z"/>
      <path id="Path_1275776" data-name="Path 1275776" d="M13.989,18.489h2v3h-2Z" transform="translate(-9.744 16.451) rotate(-45)"/>
      <path id="Path_1275777" data-name="Path 1275777" d="M25.511,18.99h3v2h-3Z" transform="translate(-6.223 24.954) rotate(-45)"/>
      <path id="Path_1275778" data-name="Path 1275778" d="M52,5a4,4,0,0,0-4,4h2a2,2,0,1,1,2,2,1,1,0,0,0-1,1v4h2V12.874A4,4,0,0,0,52,5Z"/>
      <path id="Path_1275779" data-name="Path 1275779" d="M51,17h2v2H51Z"/>
      <path id="Path_1275780" data-name="Path 1275780" d="M52,1A11,11,0,1,0,63,12,11,11,0,0,0,52,1Zm0,20a9,9,0,1,1,9-9,9,9,0,0,1-9,9Z"/>
    </g>
  </g>
</svg>
