<svg xmlns="http://www.w3.org/2000/svg" xmlns:xlink="http://www.w3.org/1999/xlink" width="118" height="118" viewBox="0 0 118 118">
  <defs>
    <filter id="Ellipse_12115" x="0" y="0" width="118" height="118" filterUnits="userSpaceOnUse">
      <feOffset dy="3" input="SourceAlpha"/>
      <feGaussianBlur stdDeviation="3" result="blur"/>
      <feFlood flood-opacity="0.161"/>
      <feComposite operator="in" in2="blur"/>
      <feComposite in="SourceGraphic"/>
    </filter>
  </defs>
  <g id="Group_1190261" data-name="Group 1190261" transform="translate(-321.051 -3270.533)">
    <g id="Group_1184522" data-name="Group 1184522" transform="translate(-424.73 -575.467)">
      <g id="Group_1181949" data-name="Group 1181949" transform="translate(-54 1303)">
        <g transform="matrix(1, 0, 0, 1, 799.78, 2543)" filter="url(#Ellipse_12115)">
          <circle id="Ellipse_12115-2" data-name="Ellipse 12115" cx="50" cy="50" r="50" transform="translate(9 6)" fill="#00ce3b"/>
        </g>
      </g>
    </g>
    <g id="Group_1190260" data-name="Group 1190260" transform="translate(348.319 3247.646)">
      <g id="Group_1190249" data-name="Group 1190249" transform="translate(37.865 74.174)">
        <path id="Path_1275781" data-name="Path 1275781" d="M328.506,214.373H310.313a11.069,11.069,0,0,1-6.118,9.724v19.263l.124.375h24.186a.622.622,0,0,0,.622-.622V215A.622.622,0,0,0,328.506,214.373Z" transform="translate(-304.195 -214.373)" fill="#dff6fd"/>
        <path id="Path_1275782" data-name="Path 1275782" d="M304.2,266.584v19.263l.124.375H308.4V262.9a11.118,11.118,0,0,1-4.208,3.683Z" transform="translate(-304.195 -256.86)" fill="#c8effe"/>
      </g>
      <g id="Group_1190250" data-name="Group 1190250" transform="translate(37.865 61.455)">
        <path id="Path_1275783" data-name="Path 1275783" d="M324.737,112.2H304.2v2.636a11.069,11.069,0,0,1,6.12,9.9c0,.06,0,.12,0,.18H325.36v-12.1A.622.622,0,0,0,324.737,112.2Z" transform="translate(-304.195 -112.198)" fill="#dbf1d0"/>
        <path id="Path_1275784" data-name="Path 1275784" d="M308.9,119.314V112.2h-4.7v2.636A11.117,11.117,0,0,1,308.9,119.314Z" transform="translate(-304.195 -112.198)" fill="#c1e9af"/>
      </g>
      <path id="Path_1275785" data-name="Path 1275785" d="M39.482,91.63a11.07,11.07,0,1,1,5.074-20.91V62.363a.622.622,0,0,0-.622-.622H8.122a.622.622,0,0,0-.622.622V109.48a.622.622,0,0,0,.622.622H44.556V90.4a11.021,11.021,0,0,1-5.074,1.229Z" transform="translate(-6.566 -6.566)" fill="#fff3de"/>
      <g id="Group_1190251" data-name="Group 1190251" transform="translate(0.934 55.175)">
        <path id="Path_1275786" data-name="Path 1275786" d="M11.708,109.48V62.363a.622.622,0,0,1,.622-.622H8.122a.622.622,0,0,0-.622.622V109.48a.622.622,0,0,0,.622.622H12.33A.622.622,0,0,1,11.708,109.48Z" transform="translate(-7.5 -61.741)" fill="#ffe5c2"/>
      </g>
      <g id="Group_1190252" data-name="Group 1190252" transform="translate(39.425 80.504)">
        <path id="Path_1275787" data-name="Path 1275787" d="M322.225,268.44l-3.212-3.212a11.036,11.036,0,0,1-2.283,2.283l3.212,3.212Z" transform="translate(-316.729 -265.228)" fill="#569acc"/>
      </g>
      <g id="Group_1190253" data-name="Group 1190253" transform="translate(42.206 83.285)">
        <path id="Path_1275788" data-name="Path 1275788" d="M349.83,298.329a2.464,2.464,0,0,1-3.485,0l-7.091-7.091a.622.622,0,0,1,0-.88l2.605-2.605a.622.622,0,0,1,.88,0l7.091,7.091A2.464,2.464,0,0,1,349.83,298.329Z" transform="translate(-339.071 -287.57)" fill="#3675bb"/>
      </g>
      <g id="Group_1190254" data-name="Group 1190254" transform="translate(42.206 83.285)">
        <path id="Path_1275789" data-name="Path 1275789" d="M349.543,298.329l-7.091-7.091a.622.622,0,0,1,0-.88l1.446-1.446-1.159-1.159a.622.622,0,0,0-.88,0l-2.605,2.605a.622.622,0,0,0,0,.88l7.091,7.091a2.463,2.463,0,0,0,3.342.129C349.638,298.417,349.589,298.375,349.543,298.329Z" transform="translate(-339.071 -287.571)" fill="#2b68b6"/>
      </g>
      <g id="Group_1190255" data-name="Group 1190255" transform="translate(21.845 62.924)">
        <circle id="Ellipse_12286" data-name="Ellipse 12286" cx="11.07" cy="11.07" r="11.07" transform="translate(0 0)" fill="#01c0fa"/>
      </g>
      <g id="Group_1190258" data-name="Group 1190258" transform="translate(24.957 66.036)">
        <g id="Group_1190256" data-name="Group 1190256" transform="translate(0 0)">
          <circle id="Ellipse_12287" data-name="Ellipse 12287" cx="7.958" cy="7.958" r="7.958" fill="#c8effe"/>
        </g>
        <g id="Group_1190257" data-name="Group 1190257">
          <path id="Path_1275790" data-name="Path 1275790" d="M204.687,156.958a7.971,7.971,0,0,1,5.864-7.676,7.958,7.958,0,1,0,0,15.353A7.971,7.971,0,0,1,204.687,156.958Z" transform="translate(-200.5 -149)" fill="#99e6fc"/>
        </g>
      </g>
      <g id="Group_1190259" data-name="Group 1190259" transform="translate(0 54.241)">
        <path id="Path_1275791" data-name="Path 1275791" d="M62.176,73.24H59.963V62.078a1.558,1.558,0,0,0-1.556-1.556H38.923V55.8a1.558,1.558,0,0,0-1.556-1.556H12.821a.934.934,0,1,0,0,1.867H37.056v6.619a11.991,11.991,0,0,0-12.592,2.752H7.736a.934.934,0,1,0,0,1.867h15.19a11.975,11.975,0,0,0-1.269,2.484h-6.1a.934.934,0,0,0,0,1.867h5.574a12.018,12.018,0,0,0-.221,2.3c0,.063,0,.125,0,.188H7.736a.934.934,0,1,0,0,1.867H21.088a11.9,11.9,0,0,0,.715,2.484H7.736a.934.934,0,1,0,0,1.867H22.769a12.1,12.1,0,0,0,2.09,2.484H18.671a.934.934,0,1,0,0,1.867h8.923a11.983,11.983,0,0,0,9.337.553v17.3H1.867V56.108h6.6a.934.934,0,1,0,0-1.867H1.556A1.558,1.558,0,0,0,0,55.8v47.116a1.558,1.558,0,0,0,1.556,1.556H53.4a.934.934,0,1,0,0-1.867H38.923V84.38c.163-.094.324-.191.482-.293l1.945,1.945a1.556,1.556,0,0,0,.378,1.58L48.819,94.7a3.4,3.4,0,0,0,5.754-2.953h7.292v2.215H57.632a.934.934,0,1,0,0,1.867h4.232v2.215h-12.2a.934.934,0,1,0,0,1.867h12.2V102.6H57.757a.934.934,0,1,0,0,1.867h4.419a1.558,1.558,0,0,0,1.556-1.556V74.8a1.558,1.558,0,0,0-1.556-1.556ZM58.1,62.389V64.6H47.674a.934.934,0,0,0,0,1.867H58.1v2.215H47.674a.934.934,0,0,0,0,1.867H58.1V73.24h-13.2a12.017,12.017,0,0,0-5.971-9.634V62.389H58.1ZM32.915,84.13A10.136,10.136,0,1,1,43.051,73.994,10.147,10.147,0,0,1,32.915,84.13ZM40.9,82.945a12.124,12.124,0,0,0,.963-.963l1.646,1.646-.963.963ZM52.3,93.383a1.533,1.533,0,0,1-2.165,0l-6.871-6.871,2.165-2.165L52.3,91.218A1.533,1.533,0,0,1,52.3,93.383Zm1.306-3.5-7.077-7.077a1.556,1.556,0,0,0-1.58-.378l-1.945-1.945a11.925,11.925,0,0,0,1.857-5.377h17v2.529H52.653a.934.934,0,1,0,0,1.867h9.211v2.215h-11.2a.934.934,0,1,0,0,1.867h11.2V85.8H55.641a.934.934,0,1,0,0,1.867h6.224v2.215H53.61Z" transform="translate(0 -54.241)"/>
        <path id="Path_1275792" data-name="Path 1275792" d="M109.782,103.367a.934.934,0,0,0,0-1.867H97.36a.934.934,0,1,0,0,1.867Z" transform="translate(-84.423 -95.617)"/>
        <path id="Path_1275793" data-name="Path 1275793" d="M55.584,181.348h4.836a.934.934,0,0,0,0-1.867H55.584a.934.934,0,0,0,0,1.867Z" transform="translate(-47.847 -163.892)"/>
        <path id="Path_1275794" data-name="Path 1275794" d="M63.407,284.352H55.584a.934.934,0,1,0,0,1.867h7.823a.934.934,0,1,0,0-1.867Z" transform="translate(-47.847 -255.709)"/>
        <path id="Path_1275795" data-name="Path 1275795" d="M78.406,319.309H55.584a.934.934,0,1,0,0,1.867H78.406a.934.934,0,1,0,0-1.867Z" transform="translate(-47.847 -286.314)"/>
        <path id="Path_1275796" data-name="Path 1275796" d="M193.844,354.266h-6.41a.934.934,0,1,0,0,1.867h6.41a.934.934,0,1,0,0-1.867Z" transform="translate(-163.285 -316.92)"/>
        <path id="Path_1275797" data-name="Path 1275797" d="M55.584,356.133H69.008a.934.934,0,1,0,0-1.867H55.584a.934.934,0,1,0,0,1.867Z" transform="translate(-47.847 -316.92)"/>
        <path id="Path_1275798" data-name="Path 1275798" d="M55.584,391.09H78.406a.934.934,0,0,0,0-1.867H55.584a.934.934,0,1,0,0,1.867Z" transform="translate(-47.847 -347.526)"/>
        <path id="Path_1275799" data-name="Path 1275799" d="M209.807,151.617a.934.934,0,0,0-1.149.65,7.024,7.024,0,1,1-.027-3.845.934.934,0,0,0,1.792-.525,8.891,8.891,0,1,0,.034,4.868A.933.933,0,0,0,209.807,151.617Z" transform="translate(-168.975 -130.638)"/>
        <path id="Path_1275800" data-name="Path 1275800" d="M242.819,182.214a.934.934,0,0,0,0-1.867h-4.987a.934.934,0,0,0,0,1.867Z" transform="translate(-207.41 -164.65)"/>
        <path id="Path_1275801" data-name="Path 1275801" d="M235.327,206.364a.934.934,0,0,0-.934-.934h-7.78a.934.934,0,0,0,0,1.867h7.78A.934.934,0,0,0,235.327,206.364Z" transform="translate(-197.588 -186.611)"/>
        <path id="Path_1275802" data-name="Path 1275802" d="M244.243,230.514a.934.934,0,0,0,0,1.867h3.391a.934.934,0,1,0,0-1.867Z" transform="translate(-213.023 -208.572)"/>
      </g>
    </g>
  </g>
</svg>
