<svg xmlns="http://www.w3.org/2000/svg" xmlns:xlink="http://www.w3.org/1999/xlink" width="118" height="118" viewBox="0 0 118 118">
  <defs>
    <filter id="Ellipse_12115" x="0" y="0" width="118" height="118" filterUnits="userSpaceOnUse">
      <feOffset dy="3" input="SourceAlpha"/>
      <feGaussianBlur stdDeviation="3" result="blur"/>
      <feFlood flood-opacity="0.161"/>
      <feComposite operator="in" in2="blur"/>
      <feComposite in="SourceGraphic"/>
    </filter>
  </defs>
  <g id="Group_1189889" data-name="Group 1189889" transform="translate(6021 11022.194)">
    <g id="Group_1181947" data-name="Group 1181947" transform="translate(-6820.781 -13565.194)">
      <g transform="matrix(1, 0, 0, 1, 799.78, 2543)" filter="url(#Ellipse_12115)">
        <g id="Ellipse_12115-2" data-name="Ellipse 12115" transform="translate(9 6)" fill="#fbe4a3" stroke="#f6bc1c" stroke-width="2">
          <circle cx="50" cy="50" r="50" stroke="none"/>
          <circle cx="50" cy="50" r="49" fill="none"/>
        </g>
      </g>
    </g>
    <g id="Group_1189888" data-name="Group 1189888" transform="translate(-5990.303 -10994.35)">
      <path id="Path_1273970" data-name="Path 1273970" d="M62.5,35.248A27.248,27.248,0,1,1,35.248,8,27.248,27.248,0,0,1,62.5,35.248Zm0,0" transform="translate(-7.092 -7.092)" fill="#85d3c1"/>
      <path id="Path_1273971" data-name="Path 1273971" d="M162.165,193.083A9.083,9.083,0,1,1,153.083,184,9.082,9.082,0,0,1,162.165,193.083Zm0,0" transform="translate(-127.651 -163.11)" fill="#f5f7fa"/>
      <path id="Path_1273972" data-name="Path 1273972" d="M124.715,173.8a9.083,9.083,0,1,0-9.083-9.083A9.086,9.086,0,0,0,124.715,173.8Zm-10.245-1.562a12.664,12.664,0,1,1,3.814,3.452A12.642,12.642,0,0,1,114.471,172.236Zm0,0" transform="translate(-99.284 -134.743)" fill="#f9d48a"/>
      <path id="Path_1273973" data-name="Path 1273973" d="M343.5,330.661l1.072,1.071-.99,1.49a7.472,7.472,0,0,1,.826,2l1.753.345V338.6l-1.753.345a7.471,7.471,0,0,1-.826,2l.99,1.49-2.143,2.143-1.49-.99a7.471,7.471,0,0,1-2,.826l-.345,1.753h-3.033l-.345-1.753a7.472,7.472,0,0,1-2-.826l-1.49.99-1.071-1.072-1.072-1.071.99-1.49a7.469,7.469,0,0,1-.826-2L328,338.6v-3.033l1.753-.345a7.47,7.47,0,0,1,.826-2l-.99-1.49,2.143-2.143,1.49.99a7.47,7.47,0,0,1,2-.826l.345-1.753H338.6l.345,1.753a7.469,7.469,0,0,1,2,.826l1.49-.99Zm-2.788,6.421a3.633,3.633,0,1,0-3.633,3.633A3.632,3.632,0,0,0,340.716,337.083Zm0,0" transform="translate(-290.762 -290.762)" fill="#f9d48a"/>
      <path id="Path_1273974" data-name="Path 1273974" d="M459.633,64V80.349H456V64Zm0,0" transform="translate(-404.23 -56.734)" fill="#ff958a"/>
      <path id="Path_1273975" data-name="Path 1273975" d="M383.266,379.633A3.633,3.633,0,1,1,379.633,376,3.633,3.633,0,0,1,383.266,379.633Zm0,0" transform="translate(-333.312 -333.312)" fill="#f5f7fa"/>
      <path id="Path_1273976" data-name="Path 1273976" d="M395.633,128v9.083H392V128Zm0,0" transform="translate(-347.496 -113.468)" fill="#ff958a"/>
      <path id="Path_1273977" data-name="Path 1273977" d="M152.7,14.939v6.685h-1.817v9.083h-3.633v-5.45h-3.633v5.45h-.8A12.711,12.711,0,0,0,120,32.35V8h32.7ZM132.716,18.9V11.633h-9.083V18.9Zm0,0" transform="translate(-106.376 -7.092)" fill="#f5f7fa"/>
      <path id="Path_1273978" data-name="Path 1273978" d="M328,160h3.633v5.45H328Zm0,0" transform="translate(-290.762 -141.835)" fill="#ff958a"/>
      <path id="Path_1273979" data-name="Path 1273979" d="M152,40h9.083v7.266H152Zm0,0" transform="translate(-134.743 -35.459)" fill="#ff958a"/>
      <path id="Path_1273980" data-name="Path 1273980" d="M114.739,333.69l-3.106,3.106L108,333.163l2.925-2.925A12.727,12.727,0,0,0,114.739,333.69Zm0,0" transform="translate(-95.739 -292.746)" fill="#f5f7fa"/>
      <path id="Path_1273981" data-name="Path 1273981" d="M130.951,413.35l.99-1.49a7.471,7.471,0,0,1-.826-2l-1.753-.345V408h-5.45l-3.633,3.633H103.931l-.009.009a27.166,27.166,0,0,0,5.458,3.17,26.3,26.3,0,0,0,5.377,1.707,27.355,27.355,0,0,0,11.044,0,26.421,26.421,0,0,0,6.222-2.1Zm0,0" transform="translate(-92.123 -361.679)" fill="#ff958a"/>
      <path id="Path_1273982" data-name="Path 1273982" d="M22.986,359.633l-10.6,10.6A2.569,2.569,0,1,1,8.754,366.6l10.6-10.6Zm0,0" transform="translate(-7.092 -315.583)" fill="#f9d48a"/>
      <g id="Group_1189887" data-name="Group 1189887">
        <path id="Path_1273983" data-name="Path 1273983" d="M372.541,368a4.541,4.541,0,1,0,4.541,4.541A4.547,4.547,0,0,0,372.541,368Zm0,7.266a2.725,2.725,0,1,1,2.725-2.725A2.728,2.728,0,0,1,372.541,375.266Zm0,0" transform="translate(-326.22 -326.22)" fill="#232323"/>
        <path id="Path_1273984" data-name="Path 1273984" d="M216,256h1.816v1.816H216Zm0,0" transform="translate(-191.477 -226.936)" fill="#232323"/>
        <path id="Path_1273985" data-name="Path 1273985" d="M248,256h1.816v1.816H248Zm0,0" transform="translate(-219.844 -226.936)" fill="#232323"/>
        <path id="Path_1273986" data-name="Path 1273986" d="M184,256h1.817v1.816H184Zm0,0" transform="translate(-163.11 -226.936)" fill="#232323"/>
        <path id="Path_1273987" data-name="Path 1273987" d="M154.9,32H144v9.083h10.9Zm-1.817,7.266h-7.266v-5.45h7.266Zm0,0" transform="translate(-127.651 -28.367)" fill="#232323"/>
        <path id="Path_1273988" data-name="Path 1273988" d="M256,32h14.532v1.817H256Zm0,0" transform="translate(-226.936 -28.367)" fill="#232323"/>
        <path id="Path_1273989" data-name="Path 1273989" d="M256,64h14.532v1.817H256Zm0,0" transform="translate(-226.936 -56.734)" fill="#232323"/>
        <path id="Path_1273990" data-name="Path 1273990" d="M369.266,96h1.673v1.816h-1.673Zm0,0" transform="translate(-327.342 -85.101)" fill="#232323"/>
        <path id="Path_1273991" data-name="Path 1273991" d="M256,96h10.918v1.816H256Zm0,0" transform="translate(-226.936 -85.101)" fill="#232323"/>
        <path id="Path_1273992" data-name="Path 1273992" d="M56.312,6.358h-5.45v5.181a28.218,28.218,0,0,0-3.633-4.076V0H12.716V4.621A28.134,28.134,0,0,0,5.944,45.45L1.018,50.376a3.477,3.477,0,1,0,4.917,4.916l4.926-4.925a28.211,28.211,0,0,0,17.294,5.944A27.865,27.865,0,0,0,39.7,53.83l1.152,1.152,1.65-1.1a8.435,8.435,0,0,0,1.169.484l.39,1.946H48.58l.389-1.946a8.545,8.545,0,0,0,1.169-.484l1.65,1.1,3.2-3.194-1.1-1.65a8.491,8.491,0,0,0,.484-1.17l1.945-.39V44.062l-1.946-.39a8.6,8.6,0,0,0-.484-1.17l1.1-1.65L53.831,39.7a27.887,27.887,0,0,0,2.48-11.546,28.444,28.444,0,0,0-.257-3.633h.257ZM52.679,8.174H54.5V22.706H52.679Zm-1.817,6.641v7.891H49.046V13.624H47.229V9.991A26.362,26.362,0,0,1,50.862,14.815Zm-6.8,21.515-.389,1.946a8.545,8.545,0,0,0-1.169.484l-1.65-1.1-3.2,3.194,1.1,1.65a8.491,8.491,0,0,0-.484,1.17l-1.946.39v1.35H31.413L27.78,49.046h-15.6l3.711-3.711,1.628,1.628,1.284-1.284L17.179,44.05l1.991-1.991a13.607,13.607,0,0,0,18.74-17.537h7.5V36.33Zm-25.9,14.532H21.8V53.7a26.362,26.362,0,0,1-3.633-1.2Zm-1.817.811c-.511-.256-1.017-.522-1.511-.811h1.511Zm7.266-.811h3.633v3.594a26.331,26.331,0,0,1-3.633-.358Zm5.45-.532,3.1-3.1H32.7v6.876a26.461,26.461,0,0,1-3.633.365ZM25.431,18.165A11.807,11.807,0,1,1,13.624,29.972,11.821,11.821,0,0,1,25.431,18.165Zm14.532,4.541H38.147V19.073h1.816ZM17.576,41.085l-1.681,1.681-2.349-2.349,1.57-1.57A13.755,13.755,0,0,0,17.576,41.085ZM47.229,15.44v7.266H45.413V15.44ZM45.413,1.817V13.624H43.6v9.083H41.78v-5.45H36.33v4.576a13.572,13.572,0,0,0-21.8,0V1.817ZM1.817,28.156a26.211,26.211,0,0,1,10.9-21.342V25.121a13.491,13.491,0,0,0,1.3,12.26l-1.752,1.752L10.633,37.5,9.349,38.789l1.628,1.628L7.251,44.143A26.375,26.375,0,0,1,1.817,28.156ZM4.651,54.009a1.661,1.661,0,0,1-2.835-1.175A1.651,1.651,0,0,1,2.3,51.659L12.261,41.7,14.61,44.05Zm29.862-.292V47.229H36.33v1.35l1.946.39a8.6,8.6,0,0,0,.484,1.17l-1.1,1.65.669.668A25.876,25.876,0,0,1,34.514,53.717ZM54.5,45.551v1.538l-1.586.318-.14.555a6.612,6.612,0,0,1-.729,1.757l-.294.492.9,1.346-1.087,1.088-1.346-.9-.492.293a6.641,6.641,0,0,1-1.758.728l-.555.141L47.09,54.5H45.552l-.317-1.586-.555-.141a6.617,6.617,0,0,1-1.758-.728l-.492-.293-1.346.9L40,51.557l.9-1.346-.294-.492a6.668,6.668,0,0,1-.729-1.757l-.14-.555-1.587-.317V45.552l1.586-.318.14-.555a6.612,6.612,0,0,1,.729-1.757l.294-.492L40,41.085,41.084,40l1.346.9.492-.293a6.641,6.641,0,0,1,1.758-.728l.555-.141.317-1.586h1.538l.317,1.586.555.141a6.618,6.618,0,0,1,1.758.728l.492.293,1.346-.9,1.087,1.088-.9,1.346.294.492a6.668,6.668,0,0,1,.729,1.757l.14.555Zm0-17.4a26.1,26.1,0,0,1-2.039,10.173l-.668-.669-1.65,1.1a8.434,8.434,0,0,0-1.169-.484l-.389-1.946h-1.35V24.523h7A26.67,26.67,0,0,1,54.5,28.156Zm0,0" fill="#232323"/>
        <path id="Path_1273993" data-name="Path 1273993" d="M145.991,195.982A9.991,9.991,0,1,0,136,185.991,10,10,0,0,0,145.991,195.982Zm0-18.165a8.174,8.174,0,1,1-8.174,8.174A8.184,8.184,0,0,1,145.991,177.817Zm0,0" transform="translate(-120.56 -156.018)" fill="#232323"/>
      </g>
    </g>
  </g>
</svg>
