<svg xmlns="http://www.w3.org/2000/svg" width="190" height="104" viewBox="0 0 190 104">
  <g id="Group_1191364" data-name="Group 1191364" transform="translate(-285.051 -13393)">
    <g id="Group_1191363" data-name="Group 1191363">
      <rect id="Rectangle_411432" data-name="Rectangle 411432" width="190" height="104" transform="translate(285.051 13393)" fill="#00ce3b"/>
    </g>
    <g id="Group_1190445" data-name="Group 1190445" transform="translate(339.505 13382.791)">
      <path id="Path_1278565" data-name="Path 1278565" d="M205.541,379.385h-20l-1.379,9.256H206.92Z" transform="translate(-154.997 -296.398)" fill="#4e5660"/>
      <path id="Path_1278566" data-name="Path 1278566" d="M180.406,444.074H150.214a1.969,1.969,0,0,1-1.889-2.525l.274-.933a3.891,3.891,0,0,1,3.733-2.793h25.955a3.891,3.891,0,0,1,3.733,2.793l.274.933A1.969,1.969,0,0,1,180.406,444.074Z" transform="translate(-124.764 -345.58)" fill="#c6c6c6"/>
      <path id="Path_1278567" data-name="Path 1278567" d="M162.651,437.823H152.332a3.892,3.892,0,0,0-3.733,2.793l-.274.933a1.969,1.969,0,0,0,1.889,2.525H164.2A7.192,7.192,0,0,1,162.651,437.823Z" transform="translate(-124.764 -345.58)" fill="#9aa3b1"/>
      <path id="Path_1278568" data-name="Path 1278568" d="M76.827,89.3H16.889A9.389,9.389,0,0,1,7.5,79.911V44.1a9.389,9.389,0,0,1,9.389-9.389H76.827A9.389,9.389,0,0,1,86.216,44.1V79.911A9.389,9.389,0,0,1,76.827,89.3Z" transform="translate(-6.312 -6.312)" fill="#4e5660"/>
      <path id="Path_1278569" data-name="Path 1278569" d="M32.923,34.71H16.889A9.389,9.389,0,0,0,7.5,44.1V79.912A9.389,9.389,0,0,0,16.889,89.3H40.013c-8.924-9.339-12.852-35.556-7.09-54.59Z" transform="translate(-6.312 -6.313)" fill="#383c43"/>
      <path id="Path_1278570" data-name="Path 1278570" d="M48.044,112.85V79.405A4.151,4.151,0,0,1,52.2,75.254h57.571a4.151,4.151,0,0,1,4.151,4.151V112.85A4.151,4.151,0,0,1,109.766,117H52.2a4.151,4.151,0,0,1-4.151-4.151Z" transform="translate(-40.435 -40.436)" fill="#f7ef87"/>
      <path id="Path_1278571" data-name="Path 1278571" d="M69.891,117c-5-10.4-7.036-27.24-4.384-41.747H52.2a4.151,4.151,0,0,0-4.151,4.151V112.85A4.151,4.151,0,0,0,52.2,117Z" transform="translate(-40.436 -40.436)" fill="#efd176"/>
      <path id="Path_1278572" data-name="Path 1278572" d="M284.785,75.254H256V117h28.785a4.151,4.151,0,0,0,4.151-4.151V79.405A4.151,4.151,0,0,0,284.785,75.254Z" transform="translate(-215.454 -40.436)" fill="#383c43"/>
      <path id="Path_1278573" data-name="Path 1278573" d="M7.5,303.52v2.627a9.389,9.389,0,0,0,9.389,9.389H76.827a9.389,9.389,0,0,0,9.389-9.389V303.52Z" transform="translate(-6.312 -232.548)" fill="#c6c6c6"/>
      <path id="Path_1278574" data-name="Path 1278574" d="M7.5,303.52v2.627a9.389,9.389,0,0,0,9.389,9.389H40.013c-2.626-2.748-4.819-6.957-6.46-12.016Z" transform="translate(-6.312 -232.548)" fill="#9aa3b1"/>
      <circle id="Ellipse_12291" data-name="Ellipse 12291" cx="3.433" cy="3.433" r="3.433" transform="translate(37.113 73.547)" fill="#fff"/>
      <path id="Path_1278575" data-name="Path 1278575" d="M387.336,211.787h-4.722a1.188,1.188,0,1,1,0-2.376h4.722a1.188,1.188,0,1,1,0,2.376Z" transform="translate(-321.016 -153.344)" fill="#fff"/>
      <path id="Path_1278576" data-name="Path 1278576" d="M304.536,211.787H294.9a1.188,1.188,0,1,1,0-2.376h9.631a1.188,1.188,0,1,1,0,2.376Z" transform="translate(-247.197 -153.344)" fill="#a3defe"/>
      <path id="Path_1278577" data-name="Path 1278577" d="M354.812,239.062h-5.875a1.188,1.188,0,0,1,0-2.376h5.875a1.188,1.188,0,1,1,0,2.376Z" transform="translate(-292.673 -176.3)" fill="#a3defe"/>
      <path id="Path_1278578" data-name="Path 1278578" d="M299.2,239.062h-4.3a1.188,1.188,0,0,1,0-2.376h4.3a1.188,1.188,0,0,1,0,2.376Z" transform="translate(-247.198 -176.3)" fill="#fff"/>
      <path id="Path_1278579" data-name="Path 1278579" d="M355.764,184.512h-8.716a1.188,1.188,0,0,1,0-2.376h8.716a1.188,1.188,0,0,1,0,2.376Z" transform="translate(-291.082 -130.389)" fill="#89d47f"/>
      <path id="Path_1278580" data-name="Path 1278580" d="M298.9,184.512h-4a1.188,1.188,0,0,1,0-2.376h4a1.188,1.188,0,0,1,0,2.376Z" transform="translate(-247.198 -130.389)" fill="#e8899e"/>
      <path id="Path_1278581" data-name="Path 1278581" d="M385.93,157.236h-4.986a1.188,1.188,0,1,1,0-2.376h4.986a1.188,1.188,0,1,1,0,2.376Z" transform="translate(-319.609 -107.433)" fill="#e8899e"/>
      <path id="Path_1278582" data-name="Path 1278582" d="M304.271,157.236H294.9a1.188,1.188,0,1,1,0-2.376h9.366a1.188,1.188,0,1,1,0,2.376Z" transform="translate(-247.197 -107.433)" fill="#fff"/>
      <path id="Path_1278583" data-name="Path 1278583" d="M354.247,129.961h-5.309a1.188,1.188,0,0,1,0-2.376h5.309a1.188,1.188,0,1,1,0,2.376Z" transform="translate(-292.673 -84.478)" fill="#89d47f"/>
      <path id="Path_1278584" data-name="Path 1278584" d="M299.2,129.961h-4.3a1.188,1.188,0,0,1,0-2.376h4.3a1.188,1.188,0,1,1,0,2.376Z" transform="translate(-247.198 -84.478)" fill="#a3defe"/>
      <path id="Path_1278585" data-name="Path 1278585" d="M27.233,44.169a1.187,1.187,0,0,0-1.523.71l-5.5,15.1a1.188,1.188,0,1,0,2.232.813l5.5-15.1a1.188,1.188,0,0,0-.71-1.523ZM19.7,47.1a1.188,1.188,0,0,0-1.68,0L13.127,52a1.188,1.188,0,0,0,0,1.68l4.894,4.894a1.188,1.188,0,1,0,1.68-1.68l-4.055-4.054L19.7,48.783A1.188,1.188,0,0,0,19.7,47.1ZM70.515,27.209H59.9a1.188,1.188,0,1,0,0,2.376H70.515a8.21,8.21,0,0,1,8.2,8.2v32H74.67V38.969a5.345,5.345,0,0,0-5.339-5.339H11.76a5.345,5.345,0,0,0-5.339,5.339V69.784H2.376v-32a8.21,8.21,0,0,1,8.2-8.2H53.928a1.188,1.188,0,1,0,0-2.376H10.576A10.589,10.589,0,0,0,0,37.785V73.6a10.59,10.59,0,0,0,6.293,9.673A1.188,1.188,0,0,0,7.256,81.1a8.212,8.212,0,0,1-4.88-7.5V72.16h76.34V73.6a8.21,8.21,0,0,1-8.2,8.2h-58.2a1.188,1.188,0,0,0,0,2.376H29.17l-1.025,6.88h-.576A5.108,5.108,0,0,0,22.7,94.7l-.274.933a3.157,3.157,0,0,0,3.029,4.049H55.642a3.157,3.157,0,0,0,3.029-4.049L58.4,94.7a5.108,5.108,0,0,0-4.873-3.645h-.576l-1.025-6.88H70.515A10.589,10.589,0,0,0,81.092,73.6V37.785A10.589,10.589,0,0,0,70.515,27.209Zm1.779,42.575H8.8V38.969a2.967,2.967,0,0,1,2.963-2.963H69.331a2.967,2.967,0,0,1,2.963,2.963ZM31.572,84.175H49.52l1.025,6.88h-20Zm20.352,9.256h1.6a2.719,2.719,0,0,1,2.594,1.94l.274.933a.767.767,0,0,1-.124.689.775.775,0,0,1-.626.313H25.45a.775.775,0,0,1-.626-.313A.767.767,0,0,1,24.7,96.3l.274-.933a2.719,2.719,0,0,1,2.594-1.94H51.924ZM30.134,47.1a1.188,1.188,0,0,0-1.68,1.68l4.055,4.054-4.055,4.054a1.188,1.188,0,0,0,1.68,1.68l4.894-4.894a1.188,1.188,0,0,0,0-1.68Z"/>
    </g>
  </g>
</svg>
