<svg xmlns="http://www.w3.org/2000/svg" width="296" height="170" viewBox="0 0 296 170">
  <g id="Group_1190385" data-name="Group 1190385" transform="translate(-180.051 -4508)">
    <path id="Rectangle_389225" data-name="Rectangle 389225" d="M9,0H287a9,9,0,0,1,9,9V55a0,0,0,0,1,0,0H0a0,0,0,0,1,0,0V9A9,9,0,0,1,9,0Z" transform="translate(180.051 4508)" fill="#3a1d71"/>
    <path id="Rectangle_389226" data-name="Rectangle 389226" d="M0,0H296a0,0,0,0,1,0,0V106a9,9,0,0,1-9,9H9a9,9,0,0,1-9-9V0A0,0,0,0,1,0,0Z" transform="translate(180.051 4563)" fill="#110628"/>
    <circle id="Ellipse_11380" data-name="Ellipse 11380" cx="8" cy="8" r="8" transform="translate(212.051 4527)" fill="#fb130d"/>
    <circle id="Ellipse_11381" data-name="Ellipse 11381" cx="8" cy="8" r="8" transform="translate(247.051 4527)" fill="#fecd02"/>
    <circle id="Ellipse_11382" data-name="Ellipse 11382" cx="8" cy="8" r="8" transform="translate(288.051 4527)" fill="#43dfaa"/>
    <text id="Sub_MostrarFormulario_UserForm1.Show_End_Sub" data-name="Sub MostrarFormulario()
      UserForm1.Show
End Sub" transform="translate(206.051 4584)" fill="#fff" font-size="16" font-family="Roboto-Italic, Roboto" font-style="italic"><tspan x="0" y="15">Sub MostrarFormulario()</tspan><tspan x="0" y="38" xml:space="preserve">      UserForm1.Show</tspan><tspan x="0" y="61">End Sub</tspan></text>
  </g>
</svg>
