<svg xmlns="http://www.w3.org/2000/svg" xmlns:xlink="http://www.w3.org/1999/xlink" width="118" height="118" viewBox="0 0 118 118">
  <defs>
    <filter id="Ellipse_12115" x="0" y="0" width="118" height="118" filterUnits="userSpaceOnUse">
      <feOffset dy="3" input="SourceAlpha"/>
      <feGaussianBlur stdDeviation="3" result="blur"/>
      <feFlood flood-opacity="0.161"/>
      <feComposite operator="in" in2="blur"/>
      <feComposite in="SourceGraphic"/>
    </filter>
  </defs>
  <g id="Group_1189910" data-name="Group 1189910" transform="translate(5374 11022.194)">
    <g id="Group_1181947" data-name="Group 1181947" transform="translate(-6173.781 -13565.194)">
      <g transform="matrix(1, 0, 0, 1, 799.78, 2543)" filter="url(#Ellipse_12115)">
        <g id="Ellipse_12115-2" data-name="Ellipse 12115" transform="translate(9 6)" fill="#fbe4a3" stroke="#f6bc1c" stroke-width="2">
          <circle cx="50" cy="50" r="50" stroke="none"/>
          <circle cx="50" cy="50" r="49" fill="none"/>
        </g>
      </g>
    </g>
    <g id="Group_1189909" data-name="Group 1189909" transform="translate(-5342.804 -10993.999)">
      <g id="Group_1189907" data-name="Group 1189907" transform="translate(7.874 13.523)">
        <path id="Path_1274016" data-name="Path 1274016" d="M86.55,390.11l-10.565-.042a.326.326,0,0,1-.326-.326l.09-4.6a.326.326,0,0,1,.326-.326l1.413-.32h9.449a.326.326,0,0,1,.326.326V388.3l-.387,1.482A.326.326,0,0,1,86.55,390.11Z" transform="translate(-75.316 -356.262)" fill="#fe7c66"/>
        <path id="Path_1274017" data-name="Path 1274017" d="M84.447,388.3v1.846a.325.325,0,0,1-.326.326h-11.3a.325.325,0,0,1-.326-.326v-5.322a.325.325,0,0,1,.326-.326h1.846v3.475A.325.325,0,0,0,75,388.3Z" transform="translate(-72.5 -356.262)" fill="#fe6c55"/>
        <path id="Path_1274018" data-name="Path 1274018" d="M113.81,305.093H79.092a.326.326,0,0,1-.326-.326l0-4.416a.326.326,0,0,1,.326-.326l1.164-.526h33.886a.326.326,0,0,1,.326.326V303.3l-.334,1.466A.326.326,0,0,1,113.81,305.093Z" transform="translate(-78.085 -280.494)" fill="#fee45a"/>
        <path id="Path_1274019" data-name="Path 1274019" d="M108.884,303.3v1.846a.325.325,0,0,1-.326.326H72.826a.325.325,0,0,1-.326-.326v-5.322a.325.325,0,0,1,.326-.326h1.846v3.475A.325.325,0,0,0,75,303.3Z" transform="translate(-72.5 -280.494)" fill="#ffd15b"/>
        <path id="Path_1274020" data-name="Path 1274020" d="M80.533,130.256H75.794a.326.326,0,0,1-.326-.326v-4.887a.326.326,0,0,1,.326-.326l1.524-.217h3.475a.326.326,0,0,1,.326.326V128.3l-.26,1.629A.326.326,0,0,1,80.533,130.256Z" transform="translate(-75.146 -124.5)" fill="#6cabca"/>
        <path id="Path_1274021" data-name="Path 1274021" d="M78.473,128.3v1.846a.325.325,0,0,1-.326.326H72.826a.325.325,0,0,1-.326-.326v-5.322a.325.325,0,0,1,.326-.326h1.846v3.475A.325.325,0,0,0,75,128.3Z" transform="translate(-72.5 -124.5)" fill="#3b98bc"/>
        <path id="Path_1274022" data-name="Path 1274022" d="M97.874,215.148l-21.962-.163a.434.434,0,0,1-.434-.434l-.009-4.3a.434.434,0,0,1,.434-.434l1.415-.32H98.062a.434.434,0,0,1,.434.434V213.3l-.188,1.412A.434.434,0,0,1,97.874,215.148Z" transform="translate(-75.146 -200.268)" fill="#5de1c4"/>
        <path id="Path_1274023" data-name="Path 1274023" d="M215.161,390.256h-2.1a.326.326,0,0,1-.326-.326L212.5,388.3v-3.475a.326.326,0,0,1,.326-.326h2.607a.326.326,0,0,1,.326.326V388.3l-.271,1.629A.326.326,0,0,1,215.161,390.256Z" transform="translate(-197.295 -356.262)" fill="#fe7c66"/>
        <path id="Path_1274024" data-name="Path 1274024" d="M275.2,390.256l-2.133.08a.326.326,0,0,1-.326-.326L272.5,388.3v-3.475a.326.326,0,0,1,.326-.326h2.607a.326.326,0,0,1,.326.326V388.3l-.237,1.629A.326.326,0,0,1,275.2,390.256Z" transform="translate(-250.778 -356.262)" fill="#fe7c66"/>
        <path id="Path_1274025" data-name="Path 1274025" d="M212.5,419.5h3.258v1.846a.325.325,0,0,1-.326.326h-2.607a.325.325,0,0,1-.326-.326Z" transform="translate(-197.295 -387.461)" fill="#fe6c55"/>
        <path id="Path_1274026" data-name="Path 1274026" d="M275.758,419.5v1.846a.325.325,0,0,1-.326.326h-2.607a.325.325,0,0,1-.326-.326V419.5Z" transform="translate(-250.778 -387.461)" fill="#fe6c55"/>
        <path id="Path_1274027" data-name="Path 1274027" d="M95.851,213.3v1.738a.434.434,0,0,1-.434.434H72.934a.434.434,0,0,1-.434-.434v-5.1a.434.434,0,0,1,.434-.434h1.738v3.475A.325.325,0,0,0,75,213.3Z" transform="translate(-72.5 -200.268)" fill="#09d6b4"/>
        <g id="Group_1189906" data-name="Group 1189906" transform="translate(26.609 9.232)">
          <g id="Group_1189904" data-name="Group 1189904" transform="translate(6.516)">
            <path id="Path_1274028" data-name="Path 1274028" d="M379.977,215.148h-1.7a.434.434,0,0,1-.434-.434L377.5,213.3v-3.367a.434.434,0,0,1,.434-.434h2.389a.434.434,0,0,1,.434.434V213.3l-.345,1.412A.434.434,0,0,1,379.977,215.148Z" transform="translate(-377.499 -209.5)" fill="#5de1c4"/>
            <path id="Path_1274029" data-name="Path 1274029" d="M380.758,244.5v1.738a.434.434,0,0,1-.434.434h-2.389a.434.434,0,0,1-.434-.434V244.5Z" transform="translate(-377.5 -240.699)" fill="#09d6b4"/>
          </g>
          <g id="Group_1189905" data-name="Group 1189905">
            <path id="Path_1274030" data-name="Path 1274030" d="M319.977,215.148h-1.7a.434.434,0,0,1-.434-.434L317.5,213.3v-3.367a.434.434,0,0,1,.434-.434h2.389a.434.434,0,0,1,.434.434V213.3l-.345,1.412A.434.434,0,0,1,319.977,215.148Z" transform="translate(-317.499 -209.5)" fill="#5de1c4"/>
            <path id="Path_1274031" data-name="Path 1274031" d="M320.758,244.5v1.738a.434.434,0,0,1-.434.434h-2.389a.434.434,0,0,1-.434-.434V244.5Z" transform="translate(-317.5 -240.699)" fill="#09d6b4"/>
          </g>
        </g>
      </g>
      <g id="Group_1189908" data-name="Group 1189908" transform="translate(0 0.001)">
        <path id="Path_1274032" data-name="Path 1274032" d="M65.815,384.6H77.761a.814.814,0,0,0,.815-.815v-5.973a.814.814,0,0,0-.815-.815H74.43a.815.815,0,0,0,0,1.629h2.516v4.344H66.629v-4.344h4a.815.815,0,0,0,0-1.629H65.815a.814.814,0,0,0-.815.815v5.973A.815.815,0,0,0,65.815,384.6Z" transform="translate(-57.94 -336.055)"/>
        <path id="Path_1274033" data-name="Path 1274033" d="M65.815,299.6H87.536a.815.815,0,0,0,0-1.629H66.629v-4.344h34.755v4.344H91.338a.815.815,0,0,0,0,1.629H102.2a.814.814,0,0,0,.815-.815v-5.973A.814.814,0,0,0,102.2,292H65.815a.814.814,0,0,0-.815.815v5.973A.815.815,0,0,0,65.815,299.6Z" transform="translate(-57.94 -260.286)"/>
        <path id="Path_1274034" data-name="Path 1274034" d="M65.815,124.6h5.973a.814.814,0,0,0,.815-.815v-5.973a.814.814,0,0,0-.815-.815H65.815a.814.814,0,0,0-.815.815v5.973A.815.815,0,0,0,65.815,124.6Zm.815-5.973h4.344v4.344H66.629Z" transform="translate(-57.94 -104.293)"/>
        <path id="Path_1274035" data-name="Path 1274035" d="M65.815,209.6H89.165a.814.814,0,0,0,.815-.815v-5.973a.814.814,0,0,0-.815-.815H83.3a.815.815,0,1,0,0,1.629h5.05v4.344H66.629v-4.344H79.5a.815.815,0,1,0,0-1.629H65.815a.814.814,0,0,0-.815.815v5.973A.815.815,0,0,0,65.815,209.6Z" transform="translate(-57.94 -180.061)"/>
        <path id="Path_1274036" data-name="Path 1274036" d="M310.815,209.6h3.258a.814.814,0,0,0,.815-.815v-5.973a.814.814,0,0,0-.815-.815h-3.258a.814.814,0,0,0-.815.815v5.973A.815.815,0,0,0,310.815,209.6Zm.815-5.973h1.629v4.344h-1.629Z" transform="translate(-276.331 -180.061)"/>
        <path id="Path_1274037" data-name="Path 1274037" d="M205.815,377a.814.814,0,0,0-.815.815v5.973a.814.814,0,0,0,.815.815h3.258a.814.814,0,0,0,.815-.815v-5.973a.814.814,0,0,0-.815-.815Zm2.444,5.973h-1.629v-4.344h1.629Z" transform="translate(-182.735 -336.055)"/>
        <path id="Path_1274038" data-name="Path 1274038" d="M265.815,377a.814.814,0,0,0-.815.815v5.973a.814.814,0,0,0,.815.815h3.258a.814.814,0,0,0,.815-.815v-5.973a.814.814,0,0,0-.815-.815Zm2.444,5.973h-1.629v-4.344h1.629Z" transform="translate(-236.219 -336.055)"/>
        <path id="Path_1274039" data-name="Path 1274039" d="M370.815,209.6h3.258a.814.814,0,0,0,.815-.815v-5.973a.814.814,0,0,0-.815-.815h-3.258a.814.814,0,0,0-.815.815v5.973A.815.815,0,0,0,370.815,209.6Zm.815-5.973h1.629v4.344h-1.629Z" transform="translate(-329.815 -180.061)"/>
        <path id="Path_1274040" data-name="Path 1274040" d="M150.815,161.129h6.191a.815.815,0,0,0,0-1.629h-6.191a.815.815,0,1,0,0,1.629Z" transform="translate(-133.709 -142.177)"/>
        <path id="Path_1274041" data-name="Path 1274041" d="M150.815,131.129h2.932a.815.815,0,1,0,0-1.629h-2.932a.815.815,0,1,0,0,1.629Z" transform="translate(-133.709 -115.435)"/>
        <path id="Path_1274042" data-name="Path 1274042" d="M430.815,246.129h6.191a.815.815,0,1,0,0-1.629h-6.191a.815.815,0,1,0,0,1.629Z" transform="translate(-383.298 -217.945)"/>
        <path id="Path_1274043" data-name="Path 1274043" d="M430.815,216.129h2.932a.815.815,0,1,0,0-1.629h-2.932a.815.815,0,1,0,0,1.629Z" transform="translate(-383.298 -191.204)"/>
        <path id="Path_1274044" data-name="Path 1274044" d="M430.815,336.129h6.191a.815.815,0,1,0,0-1.629h-6.191a.815.815,0,1,0,0,1.629Z" transform="translate(-383.298 -298.171)"/>
        <path id="Path_1274045" data-name="Path 1274045" d="M430.815,306.129h2.932a.815.815,0,1,0,0-1.629h-2.932a.815.815,0,1,0,0,1.629Z" transform="translate(-383.298 -271.429)"/>
        <path id="Path_1274046" data-name="Path 1274046" d="M325.815,421.129h6.191a.815.815,0,0,0,0-1.629h-6.191a.815.815,0,0,0,0,1.629Z" transform="translate(-289.702 -373.939)"/>
        <path id="Path_1274047" data-name="Path 1274047" d="M325.815,391.129h2.932a.815.815,0,0,0,0-1.629h-2.932a.815.815,0,0,0,0,1.629Z" transform="translate(-289.702 -347.197)"/>
        <path id="Path_1274048" data-name="Path 1274048" d="M55.369,51.5l-2.064-2.064a.815.815,0,1,0-1.152,1.152l.673.673H4.344V2.782l.673.673A.815.815,0,1,0,6.169,2.3L4.106.24a.815.815,0,0,0-1.152,0L.89,2.3A.815.815,0,1,0,2.042,3.455l.673-.673V9.45H1.9a.815.815,0,1,0,0,1.629h.815v4.344H.815a.815.815,0,0,0,0,1.629h1.9V21.4H1.9a.815.815,0,0,0,0,1.629h.815V27.37H.815A.815.815,0,1,0,.815,29h1.9v4.344H1.9a.815.815,0,1,0,0,1.629h.815v4.344H.815a.815.815,0,1,0,0,1.629h1.9v4.344H1.9a.815.815,0,1,0,0,1.629h.815v4.344H.815a.815.815,0,1,0,0,1.629h1.9v1.9a.815.815,0,0,0,1.629,0v-1.9H8.689v.815a.815.815,0,1,0,1.629,0v-.815h4.344v1.9a.815.815,0,0,0,1.629,0v-1.9h4.344v.815a.815.815,0,1,0,1.629,0v-.815h4.344v1.9a.815.815,0,0,0,1.629,0v-1.9h4.344v.815a.815.815,0,1,0,1.629,0v-.815h4.344v1.9a.815.815,0,0,0,1.629,0v-1.9h4.344v.815a.815.815,0,1,0,1.629,0v-.815h6.668l-.673.673a.815.815,0,0,0,1.152,1.152l2.064-2.064a.815.815,0,0,0,0-1.152Z" transform="translate(0 -0.001)"/>
      </g>
    </g>
  </g>
</svg>
